<?xml version="1.0" encoding="utf-8"?>
<svg viewBox="0 0 16 16" width="16" height="16" xmlns="http://www.w3.org/2000/svg">
  <path id="Blue_1_" d="M 1.801 15.029 C 1.375 15.029 1.029 14.683 1.029 14.257 L 1.029 1.801 C 1.029 1.375 1.375 1.029 1.801 1.029 L 14.257 1.029 C 14.683 1.029 15.029 1.375 15.029 1.801 L 15.029 14.257 C 15.029 14.683 14.683 15.029 14.257 15.029 L 10.689 15.029 L 10.689 9.608 L 12.509 9.608 L 12.781 7.495 L 10.689 7.495 L 10.689 6.146 C 10.689 5.534 10.859 5.117 11.735 5.117 L 12.855 5.117 L 12.855 3.228 C 12.661 3.201 11.997 3.144 11.225 3.144 C 9.611 3.144 8.507 4.128 8.507 5.937 L 8.507 7.495 L 6.683 7.495 L 6.683 9.608 L 8.507 9.608 L 8.507 15.029 Z" fill="#3C5A99"/>
</svg>