<?xml version="1.0" encoding="UTF-8"?>
<svg width="48px" height="48px" viewBox="0 0 48 48" version="1.1" xmlns="http://www.w3.org/2000/svg" xmlns:xlink="http://www.w3.org/1999/xlink">
    <!-- Generator: Sketch 43.2 (39069) - http://www.bohemiancoding.com/sketch -->
    <title>theicons.co/svg/grid-12</title>
    <desc>Created with Sketch.</desc>
    <defs></defs>
    <g id="The-Icons" stroke="none" stroke-width="1" fill="none" fill-rule="evenodd">
        <path d="M34,15.9940603 L34,32.0059397 C34,33.1072288 33.1101074,34 32.0002927,34 L15.9997073,34 C14.8952994,34 14,33.1054862 14,32.0059397 L14,15.9940603 C14,14.8927712 14.8898926,14 15.9997073,14 L32.0002927,14 C33.1047006,14 34,14.8945138 34,15.9940603 Z M16.000385,38 C17.1047419,38 18,38.8877296 18,40 C18,41.1045695 17.1125667,42 16.000385,42 L8,42 C6.8954305,42 6,41.0980496 6,39.9914698 L6,32.0085302 C6,30.8992496 6.88772964,30 8,30 C9.1045695,30 10,30.9019504 10,32.0085302 L10,38 L16.000385,38 Z M30,30 L30,18 L18,18 L18,30 L30,30 Z M41.4114209,6.58649593 C41.7763372,6.94642533 42,7.44528861 42,8 L42,15.9914698 C42,17.1007504 41.1122704,18 40,18 C38.8954305,18 38,17.0980496 38,15.9914698 L38,10 L32.0085302,10 C30.8992496,10 30,9.11227036 30,8 C30,6.8954305 30.9019504,6 32.0085302,6 L39.9914698,6 C40.5508656,6 41.0497149,6.22433028 41.4114209,6.58649593 Z" id="Combined-Shape" fill="#000000"></path>
    </g>
</svg>