<svg width="247" height="192" xmlns="http://www.w3.org/2000/svg"><defs><linearGradient x1="37.438%" y1="26.358%" x2="66.119%" y2="82.972%" id="a"><stop stop-color="#BA425E" offset="0%"/><stop stop-color="#77135E" offset="100%"/></linearGradient><linearGradient x1="50%" y1="100.937%" x2="50%" y2="37.237%" id="b"><stop stop-color="#FFE0C2" stop-opacity="0" offset="0%"/><stop stop-color="#FFC282" offset="100%"/></linearGradient><linearGradient x1="0%" y1="50.005%" x2="100%" y2="50.005%" id="c"><stop stop-color="#FFF" offset="0%"/><stop stop-color="#C7ECEF" offset="100%"/></linearGradient><linearGradient x1="20.818%" y1="3.57%" x2="38.685%" y2="36.883%" id="d"><stop stop-color="#FFF" offset="0%"/><stop stop-color="#C7ECEF" offset="100%"/></linearGradient><linearGradient x1="18.479%" y1="46.425%" x2="77.484%" y2="70.453%" id="e"><stop stop-color="#FFDC6E" offset="0%"/><stop stop-color="#FFB22A" offset="100%"/></linearGradient><linearGradient x1="0%" y1="50%" x2="100%" y2="50%" id="f"><stop stop-color="#FFE0C2" stop-opacity="0" offset="0%"/><stop stop-color="#FFC282" offset="100%"/></linearGradient><linearGradient x1="83.904%" y1="48.781%" x2="-1.862%" y2="38.527%" id="g"><stop stop-color="#FFF" stop-opacity="0" offset="0%"/><stop stop-color="#FFF" offset="100%"/></linearGradient><linearGradient x1=".055%" y1="49.806%" x2="99.929%" y2="49.806%" id="h"><stop stop-color="#984742" offset="0%"/><stop stop-color="#B76942" offset="100%"/></linearGradient><linearGradient x1="46.878%" y1="58.322%" x2="25.825%" y2="92.256%" id="i"><stop stop-color="#EAF3F7" offset="0%"/><stop stop-color="#CEE5ED" offset="100%"/></linearGradient><linearGradient x1="30.721%" y1="53.758%" x2="103.357%" y2="11.105%" id="j"><stop stop-color="#FFF" stop-opacity="0" offset="0%"/><stop stop-color="#FFF" offset="100%"/></linearGradient><linearGradient x1="49.371%" y1="45.529%" x2="55.523%" y2="88.99%" id="k"><stop stop-color="#EAF3F7" offset="0%"/><stop stop-color="#CEE5ED" offset="100%"/></linearGradient><linearGradient x1="27.636%" y1="25.629%" x2="94.505%" y2="85.161%" id="l"><stop stop-color="#A01F41" offset="0%"/><stop stop-color="#B9326D" offset="100%"/></linearGradient></defs><g fill="none" fill-rule="evenodd"><path d="M102.956 159.415c35.109 0 144.044 36.195 144.044-49.55C247 44.245 208.541 13 168.397 13 129.419 13 15.062 33.127 1.44 99.21c-12.41 60.205 58.262 60.205 101.516 60.205z" fill="#B5DCFF"/><path d="M238.025 54.693l-.161-.25a5.641 5.641 0 0 0 2.627-4.969 5.63 5.63 0 0 0-2.949-4.78 7.026 7.026 0 0 0-4.906-.467 9.499 9.499 0 0 0-6.32 5.105 9.696 9.696 0 0 0-.127 8.183 3.76 3.76 0 0 0-3.014-1.85 3.748 3.748 0 0 0-3.205 1.484 5.947 5.947 0 0 0-.986 3.547c.085 2.136.374 4.257.865 6.336.484 2.09.514 4.26.087 6.362-.536 2.035-2.01 4.002-4.021 4.518l-.302.088a2.193 2.193 0 0 0-1.588-1.669 2.516 2.516 0 0 0-1.803.407 6.047 6.047 0 0 0-.938.774c-7.377-2.546-13.022-8.634-15.066-16.246l-.248-.224a34.147 34.147 0 0 0-6.548 11.158 13.644 13.644 0 0 1-4.419-10.37 13.628 13.628 0 0 1 4.868-10.162c6.334-5.27 16.145-3.84 22.84-8.621 5.476-3.907 7.935-11.342 13.826-14.57a13.138 13.138 0 0 1 13.927 1.146c3.937 3.133 5.997 8.1 5.449 13.139-.63 4.915-3.46 9.264-7.674 11.789-.068.053-.14.1-.214.142z" fill="#BA425E" fill-rule="nonzero"/><path d="M238.407 54.317l.163.248a1.78 1.78 0 0 0 .23-.141l.089.134c4.169 3.547 5.986 9.096 4.71 14.384a11.219 11.219 0 0 1-3.226 5.578 8.138 8.138 0 0 1-5.476 2.13 9.462 9.462 0 0 1-1.683 10.19c-2.532 2.779-6.472 3.841-10.081 2.72-2.467-.764-4.506-2.465-6.614-3.951-1.85-1.34-4.27-2.538-6.519-2.746.115-.368.46-1.118.46-1.118a8.976 8.976 0 0 0 3.39-.67 3.58 3.58 0 0 0 2.1-2.524 2.462 2.462 0 0 0-.054-.971l.305-.087c2.066-.509 3.55-2.424 4.066-4.46a14.456 14.456 0 0 0-.089-6.281 32.116 32.116 0 0 1-.874-6.254 5.768 5.768 0 0 1 .996-3.503 3.827 3.827 0 0 1 3.242-1.464c1.259.073 2.4.756 3.047 1.826a9.367 9.367 0 0 1 .128-8.078 9.561 9.561 0 0 1 6.391-5.04 7.262 7.262 0 0 1 4.96.462 5.545 5.545 0 0 1 2.983 4.711 5.534 5.534 0 0 1-2.644 4.905z" fill="url(#a)" fill-rule="nonzero"/><path d="M189.997 72.11A34.042 34.042 0 0 1 196.478 61l.245.223c2.023 7.579 7.612 13.64 14.914 16.174.283-.287.594-.545.929-.77a2.479 2.479 0 0 1 1.784-.405c.79.206 1.4.85 1.572 1.662.081.32.1.652.053.979a3.585 3.585 0 0 1-2.056 2.546 7.84 7.84 0 0 1-3.151.675h-.146a8.46 8.46 0 0 1-.451 1.108c-1.566 3.491-5.146 5.576-8.897 5.18.133.952.425 3.444.578 4.551l-.067-.033a18.932 18.932 0 0 1-6.03 4.727c-.664.331-1.506.601-2.077.128-.57-.472-.47-1.438-.212-2.174a10.764 10.764 0 0 1 1.897-3.323h.087v-.202c.152-1.405.312-2.823.47-4.235-.238 0-3.004-.31-4.232-.614-1.227-.304-2.461-.723-3.118-1.945a7 7 0 0 1-.517-3.627c.192-3.25.847-6.456 1.944-9.516z" fill="#FFE0C2" fill-rule="nonzero"/><path d="M194.063 80l4.937.822s-.91 4.104-3.209 4.177c-2.3.073-1.728-4.999-1.728-4.999z" fill="#FFF" fill-rule="nonzero"/><path d="M196.538 72c-.25.978-.55 1.938-.895 2.875-.347.953-.743 1.88-1.185 2.778l-.107.104s.036 0 .054-.07c.018-.069 0-.09 0-.083 0 .007.035.063.083.097.097.085.2.159.308.223.23.138.474.263.717.382L197 79a11.528 11.528 0 0 1-1.582-.396 6.784 6.784 0 0 1-.776-.312 2.191 2.191 0 0 1-.391-.243.61.61 0 0 1-.202-.23.423.423 0 0 1-.035-.305.361.361 0 0 1 .19-.23l-.107.105c.409-.875.776-1.799 1.185-2.701.409-.903.817-1.806 1.256-2.688z" fill="#F2895F" fill-rule="nonzero"/><path d="M195 69.597a7.114 7.114 0 0 1-.923 1.8 9.428 9.428 0 0 1-.641.817c-.122.132-.23.258-.368.39a1.45 1.45 0 0 1-.576.365.945.945 0 0 1-.483 0 .72.72 0 0 1-.418-.27.836.836 0 0 1-.123-.674c.065-.346.13-.629.21-.968.144-.63.317-1.258.511-1.887l.152.188c-.447-.113-.901-.22-1.341-.358.468 0 .937 0 1.398.044h.166v.176c-.05.63-.13 1.29-.23 1.931-.044.32-.116.629-.16.95a.502.502 0 0 0 0 .27h.08c.08 0 .44-.302.72-.534.282-.233.476-.472.721-.724.433-.465.865-.98 1.305-1.516zM201.474 71c-.03.652-.055 1.304-.036 1.957 0 .313 0 .652.048.932.049.28.145.476.26.49.116.013.34-.111.516-.307.195-.22.37-.458.527-.71a6.572 6.572 0 0 0 .757-1.664l.067-.235.175.098c.418.241.83.49 1.212.77a15.99 15.99 0 0 1-1.37-.418l.243-.137a5.312 5.312 0 0 1-.606 1.911 4.719 4.719 0 0 1-.575.828 1.62 1.62 0 0 1-.43.36.86.86 0 0 1-.606.11.81.81 0 0 1-.521-.456 1.524 1.524 0 0 1-.134-.58 6.91 6.91 0 0 1 .055-1.018c.065-.66.205-1.308.418-1.931z" fill="#3A2F2C" fill-rule="nonzero"/><path fill="url(#b)" fill-rule="nonzero" d="M195.338 88l5.662.548L195 91z"/><path d="M213.735 78a6.413 6.413 0 0 0-1.274 1.63c-.18.256-.25.57-.192.876.102.242.456.283.769.206a3.144 3.144 0 0 0 1.689-1 .25.25 0 0 0-.03-.341.44.44 0 0 0-.42-.041c-.313.106-.518.453-.854.588.3-.188.444-.53.793-.718a.612.612 0 0 1 .601 0c.186.139.238.39.12.589a3.01 3.01 0 0 1-1.803 1.176 1.32 1.32 0 0 1-.601 0 .688.688 0 0 1-.499-.394c-.09-.381.002-.783.253-1.088A4.937 4.937 0 0 1 213.735 78z" fill="#F2895F" fill-rule="nonzero"/><path d="M183 128.921a11.655 11.655 0 0 1-.484 3.079c-8.805-2.002-15.165-9.62-15.516-18.587 1.07-.129 2.132-.264 3.201-.413l.041.338v.068c.055 7.387 5.21 13.768 12.458 15.42l.3.095z" fill="#42B798" fill-rule="nonzero"/><path d="M182 132.061a16.492 16.492 0 0 1-3.036 6.695c-2.092 2.832-4.834 5.093-7.568 7.293-16.576 13.335-44.558 34.2-63.059 44.951l-.12-.283c-.408-.921-.816-1.843-1.217-2.765C144.396 166.718 175.16 129 175.16 129a19.618 19.618 0 0 0 6.84 3.061z" fill="url(#c)" fill-rule="nonzero"/><path d="M175 129.354S144.148 166.876 106.63 188c-.322-.73-.637-1.452-.96-2.175l-.67-1.533.04-.348c19.31-12.717 45.875-39.162 62.274-55.708l.308-.314s-5.057-4.183-4.258-10.214l-25.534 5.288-12.978 37.622-2.246-.776v-.047c.979-13.32 6.183-30.32 12.743-41.946 9.08-1.205 18.383-2.243 27.558-3.387 1.221-.154 2.428-.301 3.642-.462a19.742 19.742 0 0 0 4.588 11.874 19.282 19.282 0 0 0 3.863 3.48z" fill="#FFF" fill-rule="nonzero"/><path d="M126.749 160.993c.081.415.17.844.251 1.266l-18.22 5.597c-.59.18-1.356.283-1.682-.263-.326-.547.224-1.204.72-1.605a35.111 35.111 0 0 1 14.12-6.919V159l.326.118 4.526 1.598-.041.277zm-21.014 24.548c.753 1.61 1.508 3.214 2.265 4.814-.801.85-1.784 1.707-2.996 1.641-1.338-.065-2.244-1.23-2.94-2.282l-7.505-11.275c-.432-.654-.85-1.543-.286-2.106.329-.288.791-.4 1.226-.294a3.77 3.77 0 0 1 1.192.523c3.726 2.261 6.77 5.382 8.842 9.064l.202-.085z" fill="#42B798" fill-rule="nonzero"/><path d="M168 127.289l-.526.047c-9.049.822-18.132 2.124-27.174 1.45v.04c-3.527 10.113-9.474 21.872-13 32.005l-.061.169-2.239-.775 13.048-37.899 25.67-5.326c-.802 6.075 4.282 10.289 4.282 10.289z" fill="url(#d)" fill-rule="nonzero"/><path d="M101.4 178.253a6.849 6.849 0 0 1-1.321 3.136c-.264.346.198.839.456.494a7.487 7.487 0 0 0 1.46-3.447c.066-.437-.548-.627-.595-.183zm1.027 1.012a6.112 6.112 0 0 1-1.345 3.167c-.26.31.158.779.418.463a6.629 6.629 0 0 0 1.496-3.455c.055-.45-.515-.631-.569-.175zm5.513 1.659c-.372-1.187-1.7-.597-2.858.152.277-.5.504-1.026.678-1.572.193-.619.715-2.031-.107-2.44-.821-.407-1.593 1.217-1.857 1.785a8.5 8.5 0 0 0-.793 3.8.358.358 0 0 0 .168.3.347.347 0 0 0 .339.013c1.079.095 5.023-.16 4.43-2.038zm-3.901-.692c0-.131.757-2.235 1.064-2.184.836.116-.614 2.628-1.35 3.764a7.404 7.404 0 0 1 .286-1.58zm1.964 1.776c-.233.08-.471.142-.714.182a5.208 5.208 0 0 1-.565.073l.43-.284.714-.451c.335-.219.521-.575.714-.102.193.473-.179.451-.579.582zm15.447-25.558c-1.057-.559-1.702.69-2.064 2.13-.312-1.544-.894-3.04-1.894-2.447-.71.44-.482 1.882-.348 2.55a6.051 6.051 0 0 0 1.852 3.213.345.345 0 0 0 .496 0c.13.083.302.065.412-.042a6.404 6.404 0 0 0 1.88-2.985c.191-.717.496-1.978-.334-2.42zm-3.667.4c.326-.22.887 1.516.965 1.799a7.22 7.22 0 0 1 .234 2.233 5.266 5.266 0 0 1-.944-1.592c-.106-.303-.66-2.165-.255-2.468v.028zm2.93 2.84c-.272.51-.624.974-1.043 1.378a9.113 9.113 0 0 1 .276-1.95c.078-.276.71-2.627 1.334-1.38.199.463-.397 1.6-.568 1.952zm-5.183.38c-.304-.237-.73.183-.426.42a3.432 3.432 0 0 1 1.318 2.291c.055.384.607.22.577-.158a3.883 3.883 0 0 0-1.47-2.553zm-1.898 1.029c-.347-.317-.864.203-.517.528a3.575 3.575 0 0 1 1.145 2.105c.08.468.782.272.738-.196a4.248 4.248 0 0 0-1.366-2.437z" fill="#FFF" fill-rule="nonzero"/><path d="M223 123.832a76272.18 76272.18 0 0 0-16.563-12.564A86.308 86.308 0 0 1 191.787 124h-.055a26.968 26.968 0 0 0-4.732-7.11c.412-.194 13.467-6.494 15.015-23.89l.068.034c.378.207.899.516 1.27.67l.122.047a9.624 9.624 0 0 0-.56 2.506 4.476 4.476 0 0 0 .493 2.72 2.171 2.171 0 0 0 2.427.992c1.02-.375 1.393-1.581 1.63-2.64.094-.422.195-.844.283-1.267l.183.04a22.913 22.913 0 0 1 3.982 4.953h.033a112.055 112.055 0 0 0 8.999 19.903 11.856 11.856 0 0 0 2.055 2.874z" fill="url(#e)" fill-rule="nonzero"/><path d="M201 92.781c-1.522 17.663-14.359 24.022-14.764 24.219a27.617 27.617 0 0 0-6.142-5.122 24.523 24.523 0 0 0-3.038-1.597l-.147-.305 5.225-3.927v-.224c-1.15-.612-2.48-.85-3.676-1.359-1.33-.618-2.659-1.943-2.433-3.451.226-1.508 1.888-2.385 3.324-2.955l.505-.197 14.106-5.578.698-.285v.204h-.086a10.84 10.84 0 0 0-1.901 3.342c-.26.74-.386 1.692.212 2.188.599.496 1.423.204 2.081-.13A18.99 18.99 0 0 0 201 92.782z" fill="#FFDC6E" fill-rule="nonzero"/><path d="M228.793 118.202a7.414 7.414 0 0 1-.211 4.194 4.041 4.041 0 0 1-3.114 2.595 4.299 4.299 0 0 1-3.365-1.294 11.986 11.986 0 0 1-2.044-2.88 113.483 113.483 0 0 1-9.082-20.11 90.77 90.77 0 0 1-2.861-10.502H208c.245-1.064.484-2.134.722-3.205a374.805 374.805 0 0 1 15.67 22.061c1.88 2.826 3.754 5.794 4.401 9.14z" fill="#F2C751" fill-rule="nonzero"/><path d="M207.657 87.73c.277-.165.56-.324.851-.482l.437-.248.055.069a444.043 444.043 0 0 1-.734 3.257c-.422 1.866-.852 3.725-1.274 5.585-.09.433-.194.867-.29 1.301-.243 1.088-.624 2.328-1.67 2.713a2.22 2.22 0 0 1-2.485-1.019 4.613 4.613 0 0 1-.505-2.796c.075-.88.269-1.746.574-2.575a10.716 10.716 0 0 1 1.98-3.347 10.327 10.327 0 0 1 3.06-2.458z" fill="#F4C8A6" fill-rule="nonzero"/><path d="M165.079 85.16a209.48 209.48 0 0 1 28.88 7.202l.041.101L179.691 98l-.04-.101-20.142-8.417.054-.135L144 71.57l.074-.068L146.88 69l18.207 15.808-.007.351z" fill="#F2C751" fill-rule="nonzero"/><path d="M190 122.483L185.344 127 179 112.32v-.042l1.552-.278c3.943 2.549 7.2 6.162 9.448 10.483z" fill="#FFF" fill-rule="nonzero"/><path d="M178.579 112.014c2.147 4.784 4.287 9.57 6.421 14.354L182.21 129l-.046-.054a1.543 1.543 0 0 1-.24-.055c-6.93-1.654-11.863-8.041-11.924-15.44h.267l8.305-1.451.007.014z" fill="#FFE0C2" fill-rule="nonzero"/><path d="M146.918 67.628l-1.109.3c-1.879-2.105-5.187-2.368-7.405-.587H138c.315-.47.637-.934.91-1.43l.295.156a23.757 23.757 0 0 0 4.592-1.54l.082-.216c-.657-2.886-1.316-5.772-1.978-8.658.246-.406.7-.655 1.191-.653.684.072.972.797 1.143 1.41.61 2.077 1.136 4.18 1.732 6.255.342 1.78.686 3.559 1.033 5.335a1.844 1.844 0 0 0-.082-.372z" fill="#F4C8A6" fill-rule="nonzero"/><path d="M143.573 57.388c-.18 3.025-.349 6.023-.523 9.068l-.13.187a25.341 25.341 0 0 1-5.132.341l.31-.267c.13-.148.252-.295.375-.449.205-.3.358-.636.453-.99l.575.047h2.21c.052-.884.091-1.767.143-2.644l.155-3.165.155-2.958c.078-1.506.155-3.005.226-4.517h-.523c-.944-.04-1.894-.067-2.844-.1l-2.896-.107h-.116l-.389 3.888c-.103 1.057-.213 2.114-.316 3.178-.25.118-.489.261-.711.429a7.218 7.218 0 0 0-.595.441c.252-2.924.601-6.839.853-9.737L144 50v.04c-.147 2.45-.289 4.899-.427 7.348z" fill="#E5E5E5" fill-rule="nonzero"/><path d="M142 63.015c-.053.99-.092 1.988-.144 2.985h-2.272l-.584-.053a3.66 3.66 0 0 0 .144-.46A217.92 217.92 0 0 0 141.77 63l.23.015z" fill="#A8EFEF" fill-rule="nonzero"/><path d="M143 60.012l-.157 2.91h-.183L140 65c.052-.154 0-.326 0-.492.17-.601.206-1.23.105-1.845L142.928 60l.072.012z" fill="#CAFDFF" fill-rule="nonzero"/><path d="M142.97 56.531l-.176 2.763h-.081L139.532 62c-.28-.675-1.098-1.119-1.532-1.725 0-.038.31-.269.28-.306l.17-.038L143 56l-.03.531z" fill="#A8EFEF" fill-rule="nonzero"/><path d="M143 52.014c-.073 1.536-.152 3.059-.231 4.588v-.578l-4.702 4.935-.152.041A7.497 7.497 0 0 0 136 59.355v-.136l6.445-7.015V52l.555.014z" fill="#CAFDFF" fill-rule="nonzero"/><path d="M142.799 52.08H143l-6.161 6.57v.134A2.181 2.181 0 0 0 136 59c.107-1.071.221-2.136.329-3.2a945.302 945.302 0 0 1 3.537-3.8c.966.013 1.953.04 2.933.08z" fill="#A8EFEF" fill-rule="nonzero"/><path d="M140 52.117A1012.958 1012.958 0 0 0 136 56l.455-4h.137l3.408.117z" fill="#CAFDFF" fill-rule="nonzero"/><path d="M134.104 60.2c-.336.253-.673.52-.983.8l-.121-.154c.148-2.919.566-6.84.72-9.759L135 50c-.27 3.03-.633 7.135-.896 10.2z" fill="#EF488D" fill-rule="nonzero"/><path fill="url(#f)" fill-rule="nonzero" d="M179 112l1.988 16.431 1.973.569 3.039-2.628z"/><path fill="url(#g)" fill-rule="nonzero" d="M169 43l-29 8.82L165.62 67"/><path d="M147.883 69.509L145.025 72a102.136 102.136 0 0 1-11.682-4.11 6.464 6.464 0 0 1-1.463-.819 2.336 2.336 0 0 1-.873-1.396 3.08 3.08 0 0 1 .447-1.813c.372-.75.797-1.476 1.27-2.17.234-.342.482-.67.75-1 .15-.201.316-.403.488-.597.183-.218.386-.42.604-.605.225-.193.487-.342.77-.436a1.49 1.49 0 0 1 .247-.054 2.864 2.864 0 0 1 2.158 1.007l.117.094a11.49 11.49 0 0 1 1.615 1.7c.369.485.618 1.048.728 1.644.03.18.045.362.041.544.01.143.01.287 0 .43a4.682 4.682 0 0 1-.357 1.29c-.083.187-.172.362-.254.543-.275.51-.598.987-.914 1.47h.405c2.228-1.79 5.515-1.507 7.387.639l1.092-.31c0 .108.062.216.097.323.096.356.199.671.302 1.06l-.09.102-.027-.027z" fill="#F9D6B9" fill-rule="nonzero"/><path d="M193.975 102.769c-.225 1.204-1.666 1.792-2.615 2.278a39.685 39.685 0 0 1-4.465 1.943.341.341 0 0 1-.41-.233 16.348 16.348 0 0 1-.477-4.453c.04-.917.075-2.019.75-2.737 1.523-1.573 2.8.479 3.148 1.895.901-.513 1.918-.999 2.95-.588a1.697 1.697 0 0 1 1.119 1.895z" fill="#42B798" fill-rule="nonzero"/><path d="M35.798 53.928a10.188 10.188 0 0 1-7.842 7.852c.458.878.98 1.72 1.565 2.518.202.35.346.731.426 1.128a2.008 2.008 0 0 1-.393 1.79 2.745 2.745 0 0 1-1.664.668 10.86 10.86 0 0 1-4.66-.328v-4.874c-1.658.474-3.422.915-5.073.407a4.665 4.665 0 0 1-2.923-2.67 2.677 2.677 0 0 0-.572-1.937 2.173 2.173 0 0 0-1.611-.595c-.59.033-1.173.15-1.731.348l-.153-.334a55.991 55.991 0 0 0 2.31-11.352c0-.253 0-.574-.22-.667-.22-.094-.532.14-.666.387a22.336 22.336 0 0 0-2.756 5.555c-3.701.515-6.038-6.57-4.187-7.178 1.85-.607 3.522 1.623 3.522 1.623-.44-1.463-.873-2.938-1.332-4.4l.2-.06a10.822 10.822 0 0 1 .506-5.583 6.748 6.748 0 0 1 3.854-3.92 4.962 4.962 0 0 1 5.22 1.142c.852.935 1.264 2.217 2.143 3.139a4.1 4.1 0 0 0 3.907 1.163 4.113 4.113 0 0 0 2.983-2.786 6.739 6.739 0 0 0 5.646 2.11 67.084 67.084 0 0 1 2.989 9.669c.566 2.364.978 4.814.512 7.185z" fill="#EDAC88" fill-rule="nonzero"/><path d="M42.688 29.632a9.858 9.858 0 0 1-3.954 5.352 15.099 15.099 0 0 1-5.892 2.339 6.663 6.663 0 0 1-5.645-2.155 4.15 4.15 0 0 1-2.983 2.845 4.045 4.045 0 0 1-3.907-1.188c-.879-.94-1.291-2.25-2.143-3.204a4.888 4.888 0 0 0-5.22-1.166 6.824 6.824 0 0 0-3.854 4.002c-.64 1.77-.822 3.68-.526 5.543a9.647 9.647 0 0 1-1.308-7.477c.603-2.57 2.229-4.764 4.484-6.05a7.267 7.267 0 0 1 3.907-1.03 5.32 5.32 0 0 1 3.655 1.623c-.26-2.009.676-3.983 2.376-5.018a6.309 6.309 0 0 1 5.552-.396 9.33 9.33 0 0 1 4.36 3.73c.004-2.683 1.579-5.101 3.995-6.136 2.188-.677 4.557.073 5.991 1.895a7.397 7.397 0 0 1 1.112 6.49z" fill="url(#h)" fill-rule="nonzero"/><path d="M35.584 21.658a6.475 6.475 0 0 0-4.001 5.966 9.277 9.277 0 0 0-4.369-3.626 6.491 6.491 0 0 0-5.562.385 4.915 4.915 0 0 0-2.36 4.878 5.405 5.405 0 0 0-3.662-1.578 7.452 7.452 0 0 0-3.915 1.001 9.2 9.2 0 0 0-4.475 5.86 9.146 9.146 0 0 0 1.28 7.244v.152l-.2.06a.158.158 0 0 1 0-.053h-.113a24.708 24.708 0 0 1-1.88-4.64 8.276 8.276 0 0 1 .106-4.944c1.494-3.851 6.57-5.687 7.55-9.73.667-2.93-1.054-6.058-.2-8.942.827-2.513 3.377-4.05 6.002-3.619 2.6.608 4.364 3.014 4.148 5.66a9.259 9.259 0 0 1 6.056-3.313 6.719 6.719 0 0 1 6.149 2.784 5.231 5.231 0 0 1-.554 6.455z" fill="#B75A42" fill-rule="nonzero"/><path d="M35.67 21.435a1.4 1.4 0 0 0-.34.13"/><path d="M13 34a19.693 19.693 0 0 1-1.67 3.659A19.994 19.994 0 0 1 9 41a22.558 22.558 0 0 1 3.992-7H13zm1 1a32.988 32.988 0 0 1-2.187 4.67A32.056 32.056 0 0 1 9 44a32.545 32.545 0 0 1 2.187-4.664A33.602 33.602 0 0 1 14 35zm1 3a31.914 31.914 0 0 1-2.23 4.175A30.194 30.194 0 0 1 10 46a31.12 31.12 0 0 1 2.224-4.124A30.888 30.888 0 0 1 15 38zm-1 4a12.54 12.54 0 0 1-1.25 2.667A11.617 11.617 0 0 1 11 47c.315-.94.734-1.835 1.25-2.667A12.067 12.067 0 0 1 14 42z" fill="#9D4D42" fill-rule="nonzero"/><path d="M6.408 46a1.785 1.785 0 0 0 0 1.348c.114.448.294.879.536 1.28.242.394.54.754.89 1.072.338.304.735.634 1.073.674a.37.37 0 0 0 .36-.12.695.695 0 0 0 .088-.48 5.065 5.065 0 0 0-.36-1.3c-.169-.411-.478-.674-.794-.391a.64.64 0 0 0-.198.566c.031.23.093.457.184.674a1.966 1.966 0 0 1-.375-.674.88.88 0 0 1 .066-.768c.196-.293.602-.404.94-.257a1.4 1.4 0 0 1 .633.634c.26.454.439.943.529 1.45.055.298-.005.606-.17.869a1.137 1.137 0 0 1-1.006.418 1.84 1.84 0 0 1-.89-.35 5.018 5.018 0 0 1-.624-.52 4.47 4.47 0 0 1-.882-1.26 3.96 3.96 0 0 1-.382-1.456A1.733 1.733 0 0 1 6.408 46zM25 41a71.26 71.26 0 0 1 2.092 2.721c.698.898 1.319 1.816 1.96 2.721l-.328-.143c1.2-.197 2.4-.38 3.606-.558l.265-.034.09.225c.215.566.321 1.165.315 1.769a3.18 3.18 0 0 1-.523 1.72 3.19 3.19 0 0 1-1.395 1.137 5.905 5.905 0 0 1-.823.292c-.286.062-.572.102-.858.15l.809-.286c.254-.115.5-.245.74-.387.465-.289.847-.69 1.108-1.164.244-.461.357-.978.328-1.496a4.416 4.416 0 0 0-.335-1.51l.356.19c-1.2.197-2.406.38-3.606.558h-.216l-.112-.17a91.94 91.94 0 0 1-1.785-2.857A58.31 58.31 0 0 1 25 41z" fill="#C67855" fill-rule="nonzero"/><path d="M31.285 52L26 54.011s.817 4.269 4.154 3.974c3.337-.294 1.13-5.985 1.13-5.985z" fill="#FFF" fill-rule="nonzero"/><path d="M20.207 42.204L20.15 42h.063c.223.834.425 1.668.572 2.508.077.432.153.822.21 1.285a1.25 1.25 0 0 1-.196.784c-.193.283-.55.445-.921.42a2.568 2.568 0 0 1-1.395-.815c-.335-.313-.652-.64-.95-.982A10.845 10.845 0 0 1 16 43.013a59.015 59.015 0 0 0 1.932 1.884c.335.297.663.618 1.012.884.349.265.698.617.963.617s.418-.204.397-.574c-.02-.37-.076-.84-.104-1.236a28.32 28.32 0 0 1-.084-2.557h.063l.028.173zM28 40.483a21.526 21.526 0 0 1 1.767 1.59c.287.268.555.556.836.838.28.282.548.503.638.423.37-.094.07-1.14 0-1.899A23.591 23.591 0 0 1 31.062 39c.268.771.472 1.556.638 2.341.096.396.172.785.262 1.188a1.79 1.79 0 0 1 0 .738.876.876 0 0 1-.534.676.81.81 0 0 1-.825-.14 2.308 2.308 0 0 1-.472-.463c-.255-.302-.517-.603-.76-.919-.49-.62-.947-1.267-1.371-1.938z" fill="#000" fill-rule="nonzero"/><path d="M14.989 60.643v.43a26.75 26.75 0 0 1-.252 2.511 3.177 3.177 0 0 1-.664 1.813c-.412.386-.953.6-1.514.598a4.887 4.887 0 0 1-1.242-.101l-.445-.094-.073.181-3.559-1.464.093-.382-.113-.296a47.74 47.74 0 0 1-3.193-12.717c-.054-.45-.06-.987.305-1.255a.889.889 0 0 1 1.089.154c.28.314.48.692.584 1.101l2.49 6.715a23.58 23.58 0 0 1 1.992-8.131 22.989 22.989 0 0 1 1.826-3.284c.153-.248.418-.517.664-.39.246.128.246.43.22.672a56.704 56.704 0 0 1-2.305 11.415l.173.329a6.168 6.168 0 0 1 1.726-.35 2.157 2.157 0 0 1 1.607.598 2.71 2.71 0 0 1 .591 1.947z" fill="#DB926E" fill-rule="nonzero"/><path d="M67.578 11.544l.343-.087c.357 1.18.744 2.362 1.079 3.543l-.514-.263c-1.541-.698-2.746-1.884-3.386-3.334a1.233 1.233 0 0 1 0-.972 1.22 1.22 0 0 1 .864-.428c.343-.022.68.092.922.313.354.342.594.768.692 1.228zM80 17a16.758 16.758 0 0 1-2.826 4L77 18.812c.123-1.06.032-.268.148-1.327A16.79 16.79 0 0 0 80 17z" fill="#EDAC88" fill-rule="nonzero"/><path d="M79 18.707l-.2.138-5.19 1.205c-1.357.321-2.719.638-4.085.95v-.041l-1.078-4.352-.885-3.628c-.839-3.402-1.67-6.782-2.509-10.19L65 2.575 74.941 0l.1.2a110.92 110.92 0 0 0 3.58 11.264c-.413.076-1.111.489-1.504.606-.166.062-1.49-4.448-1.677-4.38-.2-.729-.4-1.452-.612-2.182a540.4 540.4 0 0 0-.732-2.616l-3.327.82-3.992.977c.372 1.62.747 3.227 1.124 4.82.353 1.507.666 3.015 1.051 4.516.24 1.081.5 2.162.746 3.236.086.365.166.689.233.978.379-.048.791-.117 1.21-.193 1.684-.303 3.654-.805 5.244-1.267l.812-.248.113-.04-.266-.758a7.057 7.057 0 0 0 1.19-.427c.267 1.143.513 2.279.766 3.401z" fill="#E5E5E5" fill-rule="nonzero"/><path d="M74.262 3L75 5.58h-.054L69.06 14c-.357-1.48-.71-2.965-1.059-4.454h.134a31.327 31.327 0 0 1 2.783-5.656v-.055L74.262 3z" fill="#A8EFEF" fill-rule="nonzero"/><path d="M76.85 19l.15 2.418a16.55 16.55 0 0 1-1.41 1.406v.106l-4.305.07A5.017 5.017 0 0 0 71 20.497c1.763-.485 3.824-1.595 5.614-1.406L76.85 19z" fill="#EDAC88" fill-rule="nonzero"/><path d="M72.926 14.542s-1.511 1.943-2.203 2.843l-.064.103-.628.512c-.07-.253-.155-.576-.247-.92-.261-1.016-.586-2.286-.784-3.043L75.171 6h.064c.226.686 1.54 3.84 1.765 4.533 0 0-4.49 3.556-4.074 4.009z" fill="#CAFDFF" fill-rule="nonzero"/><path d="M74.67 36.47A88.021 88.021 0 0 1 47.697 73.8l-.547.2L40 62.675A53.893 53.893 0 0 0 56.954 50.45a53.424 53.424 0 0 0 13.43-27.183v-.2h1.309L75.98 23h.736c.871 4.466-.391 9.133-2.046 13.47z" fill="url(#i)" fill-rule="nonzero"/><path d="M62 88.511l-.04.435-.308.25-26.744 21.03-1.01.774c-6.023-5.935-9.753-13.862-10.516-22.346L9 105.464c.236-.742.414-1.502.535-2.272a148.639 148.639 0 0 0 2.414-22.76h.133c2.206-5.559 6.184-10.207 11.3-13.202v.292c1.518.453 3.114.566 4.68.332a2.74 2.74 0 0 0 1.671-.678 2.06 2.06 0 0 0 .395-1.818l.167-.034a52.485 52.485 0 0 0 9.2-3.324l7.08 11.458c2.566 7.171 8.263 12.73 15.425 15.053z" fill="#FFF" fill-rule="nonzero"/><path d="M78 16.097l-.107.045-.77.27c-1.509.502-3.377 1.049-4.974 1.378-.398.083-.79.158-1.149.21 0 0 1.894-2.846 2.525-3.903l.094-.097c.296.392.648.717 1.042.959.493.29 1.029.46 1.578.502a4.292 4.292 0 0 0 1.54-.188l.221.824z" fill="#A8EFEF" fill-rule="nonzero"/><path d="M71 3v.057A33.824 33.824 0 0 0 68.252 9h-.133c-.377-1.67-.748-3.346-1.119-4.994L71 3z" fill="#CAFDFF" fill-rule="nonzero"/><path d="M11.21 65.97l.447.095-.034.183c.35 4.871.456 9.757.32 14.64a147.874 147.874 0 0 1-2.396 22.645 15.29 15.29 0 0 1-.532 2.261 6.433 6.433 0 0 1-.465 1.08 3.903 3.903 0 0 1-2.595 2.106 3.83 3.83 0 0 1-3.526-1.62 9.452 9.452 0 0 1-1.524-3.8c-1.464-6.594-1.018-13.5.38-20.134 1.397-6.635 3.692-12.987 6-19.325L7.538 64l.113.297c1.205.493 2.369 1.188 3.56 1.674z" fill="#CEE5ED" fill-rule="nonzero"/><path fill="url(#j)" fill-rule="nonzero" d="M54.655 29L71 3 42 8.37"/><path d="M77.56 16.972a7.654 7.654 0 0 1-1.3 0 5.825 5.825 0 0 1-1.653-.395 4.551 4.551 0 0 1-1.48-.978 4.067 4.067 0 0 1-.808-1.187 3.78 3.78 0 0 1-.304-1.85 3.76 3.76 0 0 1 1.666-2.747 6.442 6.442 0 0 1 3.7-.79h.58c.433.015.865.058 1.293.127.89.082 1.71.507 2.275 1.18.691.964.512 2.298.159 3.444-.286.923-.656 1.82-1.106 2.68-.99.256-2.001.429-3.022.516z" fill="#EDAC88" fill-rule="nonzero"/><path fill="url(#k)" fill-rule="nonzero" d="M23 88.382V69L9 105z"/><path d="M126 56.016L122.575 58a6.205 6.205 0 0 1 .435-6l2.865 3.819.125.197zm-10.337 81.974c.152.21.266.439.337.68l-.571.091c-2.457 0-4.921.104-7.379.239-.203-1.417.213-2.848 1.164-4a22.79 22.79 0 0 1 4.68 1.713c.692.3 1.297.737 1.769 1.278z" fill="#42B798" fill-rule="nonzero"/><path d="M115.94 139a1.67 1.67 0 0 1-.198 1.338c-.482.716-1.466.863-2.335.943L95.19 143l-.19-1.926a3.585 3.585 0 0 0 0-.382 149.6 149.6 0 0 1 13.077-1.337c2.424-.148 4.854-.235 7.278-.261l.584-.094z" fill="#FFDC6E" fill-rule="nonzero"/><path d="M92.865 136.463a18.92 18.92 0 0 1-3.28.496 15.4 15.4 0 0 1-1.255.041h-.14c.3-12.192-3.055-24.187-9.618-34.392a62.465 62.465 0 0 0-2.564-3.663l-.307.163a64.449 64.449 0 0 1-14.894 13.883 35.187 35.187 0 0 1-7.387 3.928 18.938 18.938 0 0 1-6.278 1.237c-4.922.068-10.152-2.63-11.815-7.353l-.327-.428 2.972-2.344.08.108s23.65-.469 34.169-10.438A15.856 15.856 0 0 0 76.168 92s18.587 15.399 16.697 44.463z" fill="url(#l)" fill-rule="nonzero"/><path d="M93.521 136c1.898-28.607-16.888-43.763-16.888-43.763a15.606 15.606 0 0 1-3.992 5.611c-10.64 9.813-34.56 10.274-34.56 10.274l-.081-.107c7.998-6.14 16-12.276 24.008-18.407l.365.462a30.466 30.466 0 0 1 6.08-3.565c1.052-.45 2.144-.8 3.262-1.05 3.52-.816 7.276-.602 10.356 1.204 3.195 1.872 5.215 5.136 6.755 8.507.203.449.406.89.595 1.338a84.937 84.937 0 0 1 6.755 38.546v.047c.277-.1.547-.187.824-.274A19.309 19.309 0 0 1 93.521 136z" fill="#BA425E" fill-rule="nonzero"/><path d="M122.949 52.368c-2.465-3.4-4.932-6.812-7.402-10.235L112 37.236a1.64 1.64 0 0 1 .592-.217c1.144-.175 2.043.873 2.724 1.807L127 55.134c-.483.298-.974.582-1.45.866l-.11-.176c-.803-1.116-1.66-2.3-2.491-3.456z" fill="#FFDC6E" fill-rule="nonzero"/><path d="M118.065 52.288l-.065.047a45.372 45.372 0 0 1-5-8.85h.065A6.235 6.235 0 0 0 115.978 42c2.339 3.436 4.68 6.87 7.022 10.301a6.182 6.182 0 0 0-.362 5.447l-.4.252a9.577 9.577 0 0 0-.285-.49 31.195 31.195 0 0 0-3.888-5.222z" fill="#FFF" fill-rule="nonzero"/><path d="M117.894 52.047l.067-.047A31.143 31.143 0 0 1 122 57.154h-.047A297.565 297.565 0 0 1 89.097 95c-1.561-3.382-3.574-6.709-6.73-8.603-3.07-1.826-6.813-2.029-10.32-1.217L72 84.977a754.956 754.956 0 0 0 45.894-32.93z" fill="#A01F41" fill-rule="nonzero"/><path d="M112.115 37L116 41.611A7.92 7.92 0 0 1 112.637 43h-.074a35.896 35.896 0 0 1-.962-1.949 4.668 4.668 0 0 1-.597-2.471c.085-.64.49-1.216 1.111-1.58z" fill="#42B798" fill-rule="nonzero"/><path d="M110 134.86a6.909 6.909 0 0 0-1.133 4.702c-4.317.283-8.62.762-12.91 1.438.007-1.67-.687-3.254-1.89-4.313l-.067-.295c1.19-.301 2.35-.725 3.465-1.265A20.354 20.354 0 0 1 110 134.86z" fill="#FFF" fill-rule="nonzero"/><path d="M95.825 140.405l.175 2.048-5 .547v-2.069c1.612-.341 3.225-.654 4.85-.931a4.39 4.39 0 0 1-.025.405z" fill="#FFDC6E" fill-rule="nonzero"/><path d="M93.197 136.272a5.017 5.017 0 0 1 1.803 3.88c-1.662.253-3.312.538-4.962.848v-3.881l-.038-.647a18.21 18.21 0 0 0 3.14-.472l.057.272z" fill="#42B798" fill-rule="nonzero"/><path d="M79 102.593l-.132.094C71.542 108.86 61.96 113.667 53 117l1.059-.353a34.982 34.982 0 0 0 7.325-3.86A63.611 63.611 0 0 0 76.161 99.16l.305-.16A59.146 59.146 0 0 1 79 102.593z" fill="#A01F41" fill-rule="nonzero"/><path d="M100.85 127.028c-1.092.237-1.383 2.087-1.507 2.942a8.17 8.17 0 0 0 .546 4.25 5.428 5.428 0 0 0-2.704 1.48c-.609.62-1.446 1.69-1.107 2.608.94 2.567 4.288-2.781 4.766-3.518a.3.3 0 0 0 0-.355c.31-1.099 2.434-7.928.006-7.407zm.492 1.169c.193.104-.346 2.559-.422 2.934a36.89 36.89 0 0 1-.56 2.42 7.366 7.366 0 0 1-.422-2.426c0-.418.165-3.603 1.404-2.907v-.021zm-3.307 9.235a2.908 2.908 0 0 1-.394.431l-.187.195c-.574-.264-.746-.563-.525-.883.387-1.182 1.826-1.975 3.03-2.281a22.588 22.588 0 0 1-1.17 1.634c-.242.306-.498.605-.754.904zm5.363-5.36c-1.178.964-2.006 2.193-2.386 3.54-.112.387.593.558.705.165.354-1.242 1.116-2.375 2.198-3.268a.276.276 0 0 0-.023-.418.419.419 0 0 0-.494-.02zm2.112-.012a12.591 12.591 0 0 0-3.458 3.484c-.229.346.36.641.588.314a11.923 11.923 0 0 1 3.215-3.252c.346-.237.007-.789-.345-.545zm11.39-81.266a.311.311 0 0 0-.117-.368.364.364 0 0 0-.321-.376 6.395 6.395 0 0 0-3.493.543c-.738.348-2.002 1.052-1.968 2.01.054 1.66 2.187.67 3.807-.322-1.367 1.809-2.803 4.3-1.169 4.69 1.148.28 2.29-1.501 2.7-2.312a6.1 6.1 0 0 0 .56-3.865zm-3.637 1.568c-.314.167-1.634.67-1.244-.335.212-.523 1.613-1.019 2.098-1.16a5.824 5.824 0 0 1 1.88-.214c-.601.422-1.217.831-1.86 1.193a9.25 9.25 0 0 1-.874.516zm2.734 1.42c-.152.409-.352.8-.595 1.165a5.38 5.38 0 0 1-.615.75c-.17.315-.39.329-.683 0-.43-.06-.513-.254-.253-.569a12.18 12.18 0 0 1 1.018-1.963c.4-.63.857-1.221 1.367-1.768a5.41 5.41 0 0 1-.239 2.385zm.529-7.752l-3.369 1.456c-.356.16-.044.638.313.484l3.369-1.457c.362-.153.05-.637-.313-.483zm-.982-1.01a24.192 24.192 0 0 0-3.358 1.36c-.424.203-.046.78.37.577a22.688 22.688 0 0 1 3.192-1.257c.447-.177.25-.822-.204-.68z" fill="#353231" fill-rule="nonzero"/></g></svg>