<svg width="226" height="186" xmlns="http://www.w3.org/2000/svg"><defs><linearGradient x1=".055%" y1="49.806%" x2="97.562%" y2="49.806%" id="a"><stop stop-color="#985042" offset="0%"/><stop stop-color="#B75D42" offset="100%"/></linearGradient><linearGradient x1=".055%" y1="49.806%" x2="97.562%" y2="49.806%" id="b"><stop stop-color="#985042" offset="0%"/><stop stop-color="#B75D42" offset="100%"/></linearGradient></defs><g fill="none" fill-rule="evenodd"><path d="M184.504 179.434c60.305-23 35.664-57.82 35.664-113.8S143.737 38.358 80.5 38.358c-63.237 0-80.5 7.45-80.5 65.576 0 58.125 124.2 98.5 184.504 75.5z" fill="#C1F5A9"/><path d="M193 47.647l.763-.996 1.394-1.825v-6.928l-1.54-7.217s3.697 0 4.622 5.333l1.208 1.59s6.78-8.473 8.007-7.53c1.228.941 0 6.274 0 6.274a32.808 32.808 0 0 1-.616 6.28c-.611 2.492-8.002 3.763-8.002 3.763L197.49 50 193 47.647zM82.115 32.184l-.434-1.182-.813-2.162 2.228-6.505L87 16.023s-3.664-1.177-6.3 3.552l-1.728 1.088s-3.986-10.14-5.508-9.645c-1.523.494-2.044 5.935-2.044 5.935a31.039 31.039 0 0 0-1.416 6.11c-.2 2.557 6.725 6.094 6.725 6.094l.21 3.843 5.176-.816z" fill="#EDAC88" fill-rule="nonzero"/><path d="M109.657 51s-6.366 3.317-6.641 7.749C102.74 63.18 106.219 75 106.219 75s10.265-17.719 3.438-24z" fill="url(#a)" fill-rule="nonzero"/><path d="M138.976 87.442c-7.584 12.791-21.637 14.175-27.986 11.303-6.348-2.872-12.124-11.904-9.216-18.153 2.908-6.25 3.285-11.313 3.732-19.74.447-8.427 8.694-12.583 8.694-12.583s15.193-7.415 27.87 4.563c12.676 11.978-3.094 34.61-3.094 34.61z" fill="#EDAC88" fill-rule="nonzero"/><path d="M114 73a71.042 71.042 0 0 0-2.092 2.721c-.698.898-1.319 1.816-1.96 2.721l.328-.143c-1.2-.197-2.4-.38-3.606-.558l-.265-.034-.09.225a4.856 4.856 0 0 0-.315 1.769 3.18 3.18 0 0 0 .523 1.72 3.19 3.19 0 0 0 1.395 1.137c.267.117.542.215.823.292.286.062.572.102.858.15l-.809-.286a7.49 7.49 0 0 1-.74-.387 3.168 3.168 0 0 1-1.108-1.164 2.858 2.858 0 0 1-.328-1.496 4.41 4.41 0 0 1 .335-1.51l-.356.19c1.2.197 2.406.38 3.606.558h.216l.112-.17a91.938 91.938 0 0 0 1.785-2.857A58.31 58.31 0 0 0 114 73z" fill="#C67855" fill-rule="nonzero"/><path d="M138.886 82.52s8.666-7.466 9.106-.652c.44 6.813-16.542 13.945-9.106.652z" fill="#EDAC88" fill-rule="nonzero"/><path d="M136.61 63s.5 11.443-.444 16.562c-.944 5.119-4.865 15.744-20.179 18.204C110.463 96.744 104 92.523 104 92.523a14.541 14.541 0 0 0 10.818 7.301c7.797 1.067 18.031-2.713 23.475-11.537C142.45 80.35 146 65.505 146 65.505L136.61 63z" fill="#EDAC88" fill-rule="nonzero"/><path d="M126.753 55.42s-11.351 8.237-16.197 3.312c-4.846-4.926-13.918-18.096-4.342-26.108s36.308 3.297 43.423 20.724c-1.634 2.574-3.968 2.714-3.968 2.714s4.498 3.71 4.326 7.701c-.62 3.338-6.359 15.497-6.359 15.497s-3.762 1.598-7.03 6.74l-2.016-1.508 6.918-15.39-14.755-13.683z" fill="url(#b)" fill-rule="nonzero"/><path d="M115.667 33.056s-9.726-1.057-10.667 6.04c.91 7.46 34.232 12.946 34.577 11.073.345-1.872-14.414-10.766-12.868-10.862C128.255 39.212 140.403 45.715 144 51c-.62-2.784-7.985-14.511-28.333-17.944zm27.145 26.204s4.761-.222 4.13 4.72c-.854 4.623-3.047 4.486-4.508 3.37-1.461-1.117-10.236-9.251-6.528-8.268 2.26.586 4.62.646 6.906.177z" fill="#B75A42" fill-rule="nonzero"/><path d="M119 69.188s7.768.84 11 2.812c.042-1.668-4.845-4.621-6.605-4.967-1.76-.346-4.395 2.155-4.395 2.155zm-6-2.046s-5.5-.257-8 .858c.16-1.268 3.91-2.941 5.18-2.999 1.27-.058 2.82 2.141 2.82 2.141zm9.956 8.083c-.162 1.081-.719 1.887-1.246 1.762-.528-.124-.825-1.114-.668-2.211.157-1.098.723-1.887 1.25-1.763.528.124.826 1.13.664 2.212zm-13-2.998c-.162 1.08-.72 1.885-1.248 1.76-.528-.124-.826-1.117-.664-2.214.162-1.096.72-1.884 1.248-1.76.528.124.826 1.118.664 2.214z" fill="#7E474A" fill-rule="nonzero"/><path d="M92 175.419V179c3 1 3.58 1.452 15.947 3.505 9.254 1.686 15.434 2.53 18.54 2.53-.074-2.53-.074-1.761-.783-8.678C119.82 171.671 92 175.42 92 175.42z" fill="#A01F41" fill-rule="nonzero"/><path d="M122.281 103s13.564 7.555 14.99 8.735c1.426 1.18 3.729 3.38 3.729 3.38l-7.931 9.445s-13.957 31.794-7.296 51.624c0 0-15.545 6.925-33.629-.945-.725-4.74-4.439-6.61 0-57 .635-4.09-1.27-11.329-1.27-11.329l23.794-2.835L122.28 103z" fill="#CEE5ED" fill-rule="nonzero"/><path d="M113.588 99s.91 4.543-1.588 7.955c.452.226 3.407 2.045 3.407 2.045l6.593-3.186L120.86 99h-7.272z" fill="#EDAC88" fill-rule="nonzero"/><path d="M109.772 105s-2.23 4.858-2.23 7.128c.638 0 6.365-2.573 6.365-2.573l5.414 6.175s4.772-4.858 4.453-10.04c.956 2.573-1.274 10.689-3.816 12.31-2.528-.648-6.066-6.48-6.066-6.48L105 115.04s1.269-6.154 4.772-10.04z" fill="#97BDCA" fill-rule="nonzero"/><path d="M92 173s17.7 6.525 33.22.487c.548 2.898.78 5.385.78 5.385s-17.543 5.386-32.915-.98C92.775 177.893 92 173 92 173z" fill="#A01F41" fill-rule="nonzero"/><path d="M107.021 85.668S111.627 87.218 119 85c-.821 3.618-4.22 6.145-8.06 5.994-2.488-.607-4.148-2.865-3.919-5.326z" fill="#F2F3CD" fill-rule="nonzero"/><path d="M132.846 125S180.166 65.75 198 49.718L192.822 45S165.135 66.22 129 110.54l3.846 14.46zm-32.817-17.554c0-1.397-15.108-51.634-16.52-77.446L75 31.874s.47 33.8 18.907 90.126c3.784-2.813 7.093-16.403 7.093-16.403" fill="#CEE5ED" fill-rule="nonzero"/><path d="M161 29.89s3.86 13.654 15.438 17.11L183 39.544S170.95 33.42 170.185 24L161 29.89z" fill="#5A9E52" fill-rule="nonzero"/><path d="M175 36.5a3.5 3.5 0 1 1-7 0 3.5 3.5 0 0 1 7 0zm-11.005-5.273a1.01 1.01 0 0 1-1.14.761 1.002 1.002 0 0 1-.852-1.067 1.007 1.007 0 0 1 1.012-.921c.605.086 1.036.625.98 1.227zm12.671 11.968c.388.359.446.965.132 1.394a.979.979 0 0 1-1.333.25 1.054 1.054 0 0 1-.35-1.352 1.117 1.117 0 0 1 1.551-.292zm4.166-5.098a.529.529 0 0 1 .068.696.49.49 0 0 1-.666.128.527.527 0 0 1-.177-.676.558.558 0 0 1 .775-.148zm-10.836-11.47a.507.507 0 0 1-.994-.17.504.504 0 0 1 .503-.457.57.57 0 0 1 .491.627z" fill="#94C234" fill-rule="nonzero"/><path d="M133.526.207S119.222-1.867 111 7.105L115.065 16s10.88-8.305 19.935-5.182L133.526.208z" fill="#5A9E52" fill-rule="nonzero"/><path d="M121.04 9.68a3.5 3.5 0 1 1 2.92-6.36 3.5 3.5 0 0 1-2.92 6.36zm8.619-7.839c-.49-.185-.764-.778-.621-1.342.282-.495.859-.646 1.303-.342.49.188.764.782.621 1.348-.284.494-.86.642-1.303.336zM114.512 7.7a.981.981 0 0 1-1.414 0 1.25 1.25 0 0 1 .346-1.443c.416-.34 1-.343 1.418-.005.278.502.122 1.145-.35 1.447zm2.203 6.262a.525.525 0 0 1-.655-.227.49.49 0 0 1 .172-.652.529.529 0 0 1 .688.104.56.56 0 0 1-.205.775zm14.97-5.04c-.502-.087-.791-.391-.649-.683.316-.228.857-.302 1.316-.182.46.12.719.405.631.692-.284.249-.855.325-1.298.173z" fill="#94C234" fill-rule="nonzero"/><path d="M71.526 38.207S57.212 36.134 49 45.101L53.065 54S63.945 45.695 73 48.818l-1.474-10.61z" fill="#5A9E52" fill-rule="nonzero"/><path d="M60.04 47.68a3.5 3.5 0 1 1 2.92-6.36 3.5 3.5 0 0 1-2.92 6.36zm8.322-6.851a1.057 1.057 0 0 1-.184-1.384.98.98 0 0 1 1.319-.308c.45.266.628.844.41 1.33a1.119 1.119 0 0 1-1.545.362zM52.44 45.918a1.047 1.047 0 0 1-1.317-.446.982.982 0 0 1 .345-1.31 1.053 1.053 0 0 1 1.376.223 1.115 1.115 0 0 1-.405 1.533zm2.276 7.044a.526.526 0 0 1-.655-.227.49.49 0 0 1 .172-.652.53.53 0 0 1 .688.104c.16.269.07.612-.205.775zm15.472-5.044a.527.527 0 0 1-.101-.692.49.49 0 0 1 .662-.158.524.524 0 0 1 .202.67.558.558 0 0 1-.763.18z" fill="#94C234" fill-rule="nonzero"/><path d="M173.496 104.37s13.733 3.269 22.504-5.086L192.832 90s-11.31 7.466-19.832 3.572l.496 10.798z" fill="#5A9E52" fill-rule="nonzero"/><path d="M186.226 95.456a3.5 3.5 0 1 1-3.45 6.089 3.5 3.5 0 0 1 3.45-6.09zm-9.522 6.771c.368.378.396.985.065 1.399a.975.975 0 0 1-1.338.19 1.06 1.06 0 0 1-.3-1.365 1.12 1.12 0 0 1 1.573-.224zm16.939-4.175a1.04 1.04 0 0 1 1.273.552.987.987 0 0 1-.46 1.278 1.047 1.047 0 0 1-1.35-.34 1.126 1.126 0 0 1 .537-1.49zm-2.073-5.933c.402-.178.994-.153 1.34.056.22.253.023.554-.444.677-.238.14-.612.186-.938.115-.327-.07-.537-.243-.528-.432.01-.19.237-.355.57-.416zm-15.717 2.996c.183.19.197.492.031.698a.488.488 0 0 1-.668.095.53.53 0 0 1-.151-.682.56.56 0 0 1 .788-.111z" fill="#94C234" fill-rule="nonzero"/><path d="M207.422 153s13.666-3.345 17.578-15l-7.09-7s-6.566 12-15.91 12.39l5.422 9.61z" fill="#5A9E52" fill-rule="nonzero"/><ellipse fill="#94C234" fill-rule="nonzero" transform="rotate(-42.78 214.822 142.898)" cx="214.822" cy="142.898" rx="3.42" ry="3.419"/><path d="M210.027 149.014c.55.031.973.494.973 1.04-.091.615-.545 1.028-1.027.932a1.044 1.044 0 0 1-.973-1.04c.091-.615.545-1.028 1.027-.932zm12.199-10.714c.376-.37.983-.402 1.397-.072.414.33.499.911.195 1.338-.304.428-.896.56-1.363.304a1.115 1.115 0 0 1-.23-1.57zm-4.118-5.144a.53.53 0 0 1 .702-.043c.21.165.252.458.097.673a.529.529 0 0 1-.687.145.56.56 0 0 1-.112-.775z" fill="#94C234" fill-rule="nonzero"/><ellipse fill="#94C234" fill-rule="nonzero" transform="rotate(-87.56 205.765 144.335)" cx="205.765" cy="144.335" rx="1" ry="1"/><path d="M176 177.305s-8.031-11.833-20.142-11.287L152 175.371s13.407 1.863 17.141 10.629l6.859-8.695z" fill="#5A9E52" fill-rule="nonzero"/><path d="M160.19 175.636a3.5 3.5 0 1 1 6.621-2.272 3.5 3.5 0 0 1-6.621 2.272zm11.812 1.452c-.036-.526.33-.994.843-1.076a1 1 0 0 1 1.126.762 1.02 1.02 0 0 1-.65 1.207 1.142 1.142 0 0 1-1.319-.893zm-15.112-8.128c-.55-.099-.943-.618-.884-1.143.142-.593.633-.938 1.109-.778.545.099.942.618.878 1.143-.138.594-.629.94-1.104.778zm-3.001 6.021c-.55-.05-.944-.306-.883-.574.143-.295.63-.466 1.105-.388.55.05.944.306.883.574-.143.295-.63.466-1.105.388zm14.112 7.563a.507.507 0 0 1 .421-.538.5.5 0 0 1 .563.38.51.51 0 0 1-.322.605.573.573 0 0 1-.662-.447z" fill="#94C234" fill-rule="nonzero"/><path d="M68 145.293s-8.031-11.82-20.142-11.275L44 143.357s13.407 1.86 17.146 10.643L68 145.293z" fill="#5A9E52" fill-rule="nonzero"/><path d="M53.19 143.636a3.5 3.5 0 1 1 6.621-2.272 3.5 3.5 0 0 1-6.621 2.272zm11.813 1.458c-.04-.527.325-.997.838-1.08a1 1 0 0 1 1.13.758 1.02 1.02 0 0 1-.65 1.208 1.135 1.135 0 0 1-1.318-.886zM49.89 136.96c-.55-.099-.943-.618-.884-1.143.142-.593.633-.938 1.109-.778.545.099.942.618.878 1.143-.138.594-.629.94-1.104.778zm-3.001 6.021c-.55-.05-.944-.306-.883-.574.143-.295.63-.466 1.105-.388.55.05.944.306.883.574-.143.295-.63.466-1.105.388zm14.112 7.563a.507.507 0 0 1 .421-.538.5.5 0 0 1 .563.38.51.51 0 0 1-.322.605.573.573 0 0 1-.662-.447z" fill="#94C234" fill-rule="nonzero"/><path d="M33.631 108S47.908 105.95 53 94.675L46.42 87S38.58 98.381 29 97.874L33.631 108z" fill="#5A9E52" fill-rule="nonzero"/><path d="M41.975 95.033a3.5 3.5 0 1 1-.95 6.935 3.5 3.5 0 0 1 .95-6.935zm-6.872 9.004c.55.093.946.62.892 1.133-.136.597-.622.948-1.097.793-.55-.093-.951-.62-.892-1.133.135-.597.622-.948 1.097-.793zm14.189-9.8a1.066 1.066 0 0 1 1.402.053c.382.366.41.953.065 1.351a1.065 1.065 0 0 1-1.39.179 1.118 1.118 0 0 1-.077-1.583zm-4.143-5.121a.534.534 0 0 1 .7.03c.19.184.202.476.03.675a.533.533 0 0 1-.694.09.559.559 0 0 1-.036-.795zM32.107 98.02c.545.046.943.305.888.57-.147.297-.63.468-1.102.392-.545-.047-.943-.305-.888-.575.147-.296.632-.467 1.102-.388z" fill="#94C234" fill-rule="nonzero"/><path d="M122.615 147s14.284-2.049 19.385-13.322L135.415 126s-7.851 11.379-17.415 10.877L122.615 147z" fill="#5A9E52" fill-rule="nonzero"/><path d="M130.977 134.033a3.5 3.5 0 1 1-.955 6.934 3.5 3.5 0 0 1 .955-6.934zm-5.871 10.002c.55.1.947.618.888 1.137-.136.595-.623.946-1.1.792-.55-.093-.947-.619-.888-1.138.138-.593.624-.942 1.1-.79zm13.191-9.8a1.064 1.064 0 0 1 1.4.058c.38.367.406.954.06 1.351-.347.397-.95.472-1.39.173a1.113 1.113 0 0 1-.07-1.582zm-4.146-5.119a.53.53 0 0 1 .698.03.489.489 0 0 1 .03.675.53.53 0 0 1-.692.09.553.553 0 0 1-.036-.795zm-13.047 8.903c.552.05.951.304.89.573-.145.295-.627.466-1.098.39-.552-.047-.951-.304-.89-.573.142-.296.627-.468 1.098-.39z" fill="#94C234" fill-rule="nonzero"/><path d="M75 98.039s8.691 11.165 20.728 9.854L99 98.423s-13.452-1-17.687-9.423L75 98.039z" fill="#5A9E52" fill-rule="nonzero"/><path d="M90.735 99.165a3.499 3.499 0 1 1-6.462 2.686 3.5 3.5 0 0 1 1.865-4.576 3.503 3.503 0 0 1 4.597 1.89zm-11.744-.321a1.02 1.02 0 0 1-.773 1.131.998.998 0 0 1-1.171-.688 1.027 1.027 0 0 1 .57-1.25 1.132 1.132 0 0 1 1.374.807zm16.068 6.179c.329-.08.662.11.832.474.17.364.14.822-.076 1.146-.215.323-.568.441-.883.295-.55-.055-.973-.532-.929-1.059.11-.598.577-.978 1.056-.856zm2.012-5.993c.546.03.964.265.927.53-.107.298-.576.489-1.056.43-.33.037-.664-.058-.833-.24-.17-.181-.139-.41.077-.571.215-.161.57-.22.885-.149zm-14.078-6.623a.51.51 0 0 1-.375.579.498.498 0 0 1-.593-.339.514.514 0 0 1 .285-.63.57.57 0 0 1 .683.39z" fill="#94C234" fill-rule="nonzero"/><path d="M22.314 74.007l.655-1.657a.566.566 0 0 1 1.048 0l.655 1.657c.056.145.17.26.316.315l1.661.654a.565.565 0 0 1 0 1.045l-1.66.654a.547.547 0 0 0-.317.315l-.655 1.652a.561.561 0 0 1-1.048 0l-.655-1.652a.547.547 0 0 0-.317-.315l-1.646-.654a.565.565 0 0 1 0-1.045l1.66-.654a.546.546 0 0 0 .303-.315z" fill="#F2F3CD" fill-rule="nonzero"/></g></svg>