<?xml version="1.0" encoding="UTF-8"?>
<svg width="225px" height="246px" viewBox="0 0 225 246" version="1.1" xmlns="http://www.w3.org/2000/svg" xmlns:xlink="http://www.w3.org/1999/xlink">
    <!-- Generator: Sketch 54.1 (76490) - https://sketchapp.com -->
    <title>Group 11</title>
    <desc>Created with Sketch.</desc>
    <defs>
        <rect id="path-1" x="32" y="0.5" width="143" height="187"></rect>
        <filter x="-38.5%" y="-18.7%" width="176.9%" height="158.8%" filterUnits="objectBoundingBox" id="filter-2">
            <feOffset dx="0" dy="20" in="SourceAlpha" result="shadowOffsetOuter1"></feOffset>
            <feGaussianBlur stdDeviation="15" in="shadowOffsetOuter1" result="shadowBlurOuter1"></feGaussianBlur>
            <feColorMatrix values="0 0 0 0 0.208291209   0 0 0 0 0.282970616   0 0 0 0 0.62927423  0 0 0 0.09 0" type="matrix" in="shadowBlurOuter1"></feColorMatrix>
        </filter>
        <polygon id="path-3" points="46.79344 176.10716 46.1216 176.10716 46.1216 177 45.97574 177 45.97574 176.10716 44.1989 176.10716 44.1989 176.00108 45.90944 173.906 46.08182 173.906 44.39338 175.97456 45.97574 175.97456 45.97574 175.1878 46.1216 175.1878 46.1216 175.97456 46.79344 175.97456"></polygon>
        <path d="M47.96356,175.22758 C48.4173489,175.22758 48.7451623,175.304929 48.94701,175.45963 C49.1488577,175.614331 49.24978,175.836065 49.24978,176.12484 C49.24978,176.295748 49.2100004,176.448973 49.13044,176.58452 C49.0508796,176.720067 48.9322775,176.826146 48.77463,176.90276 C48.6169825,176.979374 48.4247145,177.01768 48.19782,177.01768 C47.9738722,177.01768 47.764661,176.9779 47.57018,176.89834 C47.375699,176.81878 47.2283672,176.715647 47.12818,176.58894 L47.21216,176.48286 C47.3035071,176.600727 47.4375791,176.696493 47.61438,176.77016 C47.7911809,176.843827 47.9856589,176.88066 48.19782,176.88066 C48.4895415,176.88066 48.7127492,176.811414 48.86745,176.67292 C49.0221508,176.534426 49.0995,176.351734 49.0995,176.12484 C49.0995,175.874372 49.0111009,175.685051 48.8343,175.55687 C48.6574991,175.428689 48.3569421,175.3646 47.93262,175.3646 L47.3315,175.3646 L47.49504,173.906 L49.09066,173.906 L49.09066,174.04302 L47.6188,174.04302 L47.4862,175.22758 L47.96356,175.22758 Z M54.072,177 L54.06758,174.21098 L52.71064,176.57126 L52.63108,176.57126 L51.26972,174.21982 L51.26972,177 L51.12386,177 L51.12386,173.906 L51.24762,173.906 L52.67086,176.3812 L54.08968,173.906 L54.21344,173.906 L54.21786,177 L54.072,177 Z M55.34938,173.906 L55.49966,173.906 L55.49966,177 L55.34938,177 L55.34938,173.906 Z M59.10196,173.906 L59.10196,177 L58.9782,177 L56.78146,174.18004 L56.78146,177 L56.63118,177 L56.63118,173.906 L56.75494,173.906 L58.95168,176.72596 L58.95168,173.906 L59.10196,173.906 Z" id="path-4"></path>
        <path d="M65.46194,176.0939 L63.60996,176.0939 L63.19448,177 L63.03094,177 L64.46302,173.906 L64.60888,173.906 L66.04096,177 L65.87742,177 L65.46194,176.0939 Z M65.40448,175.96572 L64.53816,174.07838 L63.66742,175.96572 L65.40448,175.96572 Z" id="path-5"></path>
        <path d="M69.80228,175.4751 L69.94372,175.4751 L69.94372,176.61988 C69.8081727,176.749534 69.6468443,176.848246 69.45973,176.91602 C69.2726157,176.983794 69.0729811,177.01768 68.86082,177.01768 C68.5573118,177.01768 68.2832746,176.949907 68.0387,176.81436 C67.7941254,176.678813 67.6018574,176.491701 67.46189,176.25302 C67.3219226,176.014339 67.25194,175.747668 67.25194,175.453 C67.25194,175.158332 67.3219226,174.891661 67.46189,174.65298 C67.6018574,174.414299 67.7941254,174.227187 68.0387,174.09164 C68.2832746,173.956093 68.5573118,173.88832 68.86082,173.88832 C69.0818211,173.88832 69.2851391,173.922206 69.47078,173.98998 C69.6564209,174.057754 69.8155393,174.159413 69.94814,174.29496 L69.85974,174.39662 C69.6033787,174.149099 69.271882,174.02534 68.86524,174.02534 C68.5882519,174.02534 68.3385244,174.087956 68.11605,174.21319 C67.8935756,174.338424 67.7189873,174.510066 67.59228,174.72812 C67.4655727,174.946174 67.40222,175.187799 67.40222,175.453 C67.40222,175.718201 67.4655727,175.959826 67.59228,176.17788 C67.7189873,176.395934 67.8935756,176.567576 68.11605,176.69281 C68.3385244,176.818044 68.5882519,176.88066 68.86524,176.88066 C69.2512553,176.88066 69.5635988,176.773108 69.80228,176.558 L69.80228,175.4751 Z M72.26864,177.01768 C71.9680785,177.01768 71.6962512,176.949907 71.45315,176.81436 C71.2100488,176.678813 71.019254,176.491701 70.88076,176.25302 C70.742266,176.014339 70.67302,175.747668 70.67302,175.453 C70.67302,175.158332 70.742266,174.891661 70.88076,174.65298 C71.019254,174.414299 71.2100488,174.227187 71.45315,174.09164 C71.6962512,173.956093 71.9680785,173.88832 72.26864,173.88832 C72.5692015,173.88832 72.8417654,173.956093 73.08634,174.09164 C73.3309146,174.227187 73.522446,174.414299 73.66094,174.65298 C73.799434,174.891661 73.86868,175.158332 73.86868,175.453 C73.86868,175.747668 73.799434,176.014339 73.66094,176.25302 C73.522446,176.491701 73.3309146,176.678813 73.08634,176.81436 C72.8417654,176.949907 72.5692015,177.01768 72.26864,177.01768 Z M72.26864,176.88066 C72.5397347,176.88066 72.7857789,176.818781 73.00678,176.69502 C73.2277811,176.571259 73.4016327,176.400354 73.52834,176.1823 C73.6550473,175.964246 73.7184,175.721148 73.7184,175.453 C73.7184,175.184852 73.6550473,174.941754 73.52834,174.7237 C73.4016327,174.505646 73.2277811,174.334741 73.00678,174.21098 C72.7857789,174.087219 72.5397347,174.02534 72.26864,174.02534 C71.9975453,174.02534 71.7522378,174.087219 71.53271,174.21098 C71.3131822,174.334741 71.1400673,174.505646 71.01336,174.7237 C70.8866527,174.941754 70.8233,175.184852 70.8233,175.453 C70.8233,175.721148 70.8866527,175.964246 71.01336,176.1823 C71.1400673,176.400354 71.3131822,176.571259 71.53271,176.69502 C71.7522378,176.818781 71.9975453,176.88066 72.26864,176.88066 Z" id="path-6"></path>
        <path d="M47.9996,161.9492 L46.3958,165.7178 C46.2329992,166.127002 46.0317012,166.415199 45.7919,166.5824 C45.5520988,166.749601 45.2628017,166.8332 44.924,166.8332 C44.7391991,166.8332 44.5566009,166.8046 44.3762,166.7474 C44.1957991,166.6902 44.0484006,166.611001 43.934,166.5098 L44.3102,165.7772 C44.3894004,165.8476 44.4806995,165.9026 44.5841,165.9422 C44.6875005,165.9818 44.7897995,166.0016 44.891,166.0016 C45.0318007,166.0016 45.1461996,165.9675 45.2342,165.8993 C45.3222004,165.8311 45.4013996,165.717801 45.4718,165.5594 L45.485,165.5264 L43.9472,161.9492 L45.0098,161.9492 L46.0064,164.3582 L47.0096,161.9492 L47.9996,161.9492 Z M50.0126,165.5528 C49.6385981,165.5528 49.3031015,165.474701 49.0061,165.3185 C48.7090985,165.162299 48.4770008,164.945601 48.3098,164.6684 C48.1425992,164.391199 48.059,164.076602 48.059,163.7246 C48.059,163.372598 48.1425992,163.058001 48.3098,162.7808 C48.4770008,162.503599 48.7090985,162.286901 49.0061,162.1307 C49.3031015,161.974499 49.6385981,161.8964 50.0126,161.8964 C50.3866019,161.8964 50.7209985,161.974499 51.0158,162.1307 C51.3106015,162.286901 51.5415992,162.503599 51.7088,162.7808 C51.8760008,163.058001 51.9596,163.372598 51.9596,163.7246 C51.9596,164.076602 51.8760008,164.391199 51.7088,164.6684 C51.5415992,164.945601 51.3106015,165.162299 51.0158,165.3185 C50.7209985,165.474701 50.3866019,165.5528 50.0126,165.5528 Z M50.0126,164.708 C50.2766013,164.708 50.4932992,164.618901 50.6627,164.4407 C50.8321008,164.262499 50.9168,164.023801 50.9168,163.7246 C50.9168,163.425399 50.8321008,163.186701 50.6627,163.0085 C50.4932992,162.830299 50.2766013,162.7412 50.0126,162.7412 C49.7485987,162.7412 49.5308009,162.830299 49.3592,163.0085 C49.1875991,163.186701 49.1018,163.425399 49.1018,163.7246 C49.1018,164.023801 49.1875991,164.262499 49.3592,164.4407 C49.5308009,164.618901 49.7485987,164.708 50.0126,164.708 Z M56.2232,161.9492 L56.2232,165.5 L55.2464,165.5 L55.2464,165.0776 C55.1099993,165.231601 54.9472009,165.3493 54.758,165.4307 C54.5687991,165.5121 54.3642011,165.5528 54.1442,165.5528 C53.6777977,165.5528 53.3082014,165.418601 53.0354,165.1502 C52.7625986,164.881799 52.6262,164.483603 52.6262,163.9556 L52.6262,161.9492 L53.6558,161.9492 L53.6558,163.8038 C53.6558,164.375803 53.8955976,164.6618 54.3752,164.6618 C54.6216012,164.6618 54.8195993,164.581501 54.9692,164.4209 C55.1188007,164.260299 55.1936,164.021602 55.1936,163.7048 L55.1936,161.9492 L56.2232,161.9492 Z M58.1636,162.4178 C58.2868006,162.246199 58.452899,162.1164 58.6619,162.0284 C58.870901,161.9404 59.1117986,161.8964 59.3846,161.8964 L59.3846,162.8468 C59.2701994,162.838 59.1932002,162.8336 59.1536,162.8336 C58.8587985,162.8336 58.6278008,162.916099 58.4606,163.0811 C58.2933992,163.246101 58.2098,163.493598 58.2098,163.8236 L58.2098,165.5 L57.1802,165.5 L57.1802,161.9492 L58.1636,161.9492 L58.1636,162.4178 Z M59.444,165.5 L62.744,165.5 L62.744,166.094 L59.444,166.094 L59.444,165.5 Z M64.5854,161.8964 C65.1354027,161.8964 65.5577985,162.027299 65.8526,162.2891 C66.1474015,162.550901 66.2948,162.945797 66.2948,163.4738 L66.2948,165.5 L65.3312,165.5 L65.3312,165.0578 C65.137599,165.387802 64.7768026,165.5528 64.2488,165.5528 C63.9759986,165.5528 63.739501,165.5066 63.5393,165.4142 C63.339099,165.3218 63.1862005,165.194201 63.0806,165.0314 C62.9749995,164.868599 62.9222,164.683801 62.9222,164.477 C62.9222,164.146998 63.0464988,163.887401 63.2951,163.6982 C63.5437012,163.508999 63.9275974,163.4144 64.4468,163.4144 L65.2652,163.4144 C65.2652,163.189999 65.1970007,163.017301 65.0606,162.8963 C64.9241993,162.775299 64.7196014,162.7148 64.4468,162.7148 C64.2575991,162.7148 64.0717009,162.7445 63.8891,162.8039 C63.7064991,162.8633 63.5514006,162.943599 63.4238,163.0448 L63.0542,162.3254 C63.247801,162.188999 63.4798986,162.0834 63.7505,162.0086 C64.0211014,161.9338 64.2993986,161.8964 64.5854,161.8964 Z M64.5062,164.8598 C64.6822009,164.8598 64.8383993,164.8191 64.9748,164.7377 C65.1112007,164.6563 65.2079997,164.536401 65.2652,164.378 L65.2652,164.015 L64.559,164.015 C64.1365979,164.015 63.9254,164.153599 63.9254,164.4308 C63.9254,164.562801 63.9770995,164.6673 64.0805,164.7443 C64.1839005,164.8213 64.3257991,164.8598 64.5062,164.8598 Z M68.981,165.5528 C68.6025981,165.5528 68.2627015,165.474701 67.9613,165.3185 C67.6598985,165.162299 67.4245008,164.945601 67.2551,164.6684 C67.0856992,164.391199 67.001,164.076602 67.001,163.7246 C67.001,163.372598 67.0856992,163.058001 67.2551,162.7808 C67.4245008,162.503599 67.6598985,162.286901 67.9613,162.1307 C68.2627015,161.974499 68.6025981,161.8964 68.981,161.8964 C69.3550019,161.8964 69.6816986,161.974499 69.9611,162.1307 C70.2405014,162.286901 70.4439994,162.510199 70.5716,162.8006 L69.773,163.2296 C69.5881991,162.903998 69.3220017,162.7412 68.9744,162.7412 C68.7059987,162.7412 68.4838009,162.829199 68.3078,163.0052 C68.1317991,163.181201 68.0438,163.420998 68.0438,163.7246 C68.0438,164.028202 68.1317991,164.267999 68.3078,164.444 C68.4838009,164.620001 68.7059987,164.708 68.9744,164.708 C69.3264018,164.708 69.5925991,164.545202 69.773,164.2196 L70.5716,164.6552 C70.4439994,164.936801 70.2405014,165.156799 69.9611,165.3152 C69.6816986,165.473601 69.3550019,165.5528 68.981,165.5528 Z M72.8354,165.5528 C72.4569981,165.5528 72.1171015,165.474701 71.8157,165.3185 C71.5142985,165.162299 71.2789008,164.945601 71.1095,164.6684 C70.9400992,164.391199 70.8554,164.076602 70.8554,163.7246 C70.8554,163.372598 70.9400992,163.058001 71.1095,162.7808 C71.2789008,162.503599 71.5142985,162.286901 71.8157,162.1307 C72.1171015,161.974499 72.4569981,161.8964 72.8354,161.8964 C73.2094019,161.8964 73.5360986,161.974499 73.8155,162.1307 C74.0949014,162.286901 74.2983994,162.510199 74.426,162.8006 L73.6274,163.2296 C73.4425991,162.903998 73.1764017,162.7412 72.8288,162.7412 C72.5603987,162.7412 72.3382009,162.829199 72.1622,163.0052 C71.9861991,163.181201 71.8982,163.420998 71.8982,163.7246 C71.8982,164.028202 71.9861991,164.267999 72.1622,164.444 C72.3382009,164.620001 72.5603987,164.708 72.8288,164.708 C73.1808018,164.708 73.4469991,164.545202 73.6274,164.2196 L74.426,164.6552 C74.2983994,164.936801 74.0949014,165.156799 73.8155,165.3152 C73.5360986,165.473601 73.2094019,165.5528 72.8354,165.5528 Z M76.6634,165.5528 C76.2893981,165.5528 75.9539015,165.474701 75.6569,165.3185 C75.3598985,165.162299 75.1278008,164.945601 74.9606,164.6684 C74.7933992,164.391199 74.7098,164.076602 74.7098,163.7246 C74.7098,163.372598 74.7933992,163.058001 74.9606,162.7808 C75.1278008,162.503599 75.3598985,162.286901 75.6569,162.1307 C75.9539015,161.974499 76.2893981,161.8964 76.6634,161.8964 C77.0374019,161.8964 77.3717985,161.974499 77.6666,162.1307 C77.9614015,162.286901 78.1923992,162.503599 78.3596,162.7808 C78.5268008,163.058001 78.6104,163.372598 78.6104,163.7246 C78.6104,164.076602 78.5268008,164.391199 78.3596,164.6684 C78.1923992,164.945601 77.9614015,165.162299 77.6666,165.3185 C77.3717985,165.474701 77.0374019,165.5528 76.6634,165.5528 Z M76.6634,164.708 C76.9274013,164.708 77.1440992,164.618901 77.3135,164.4407 C77.4829008,164.262499 77.5676,164.023801 77.5676,163.7246 C77.5676,163.425399 77.4829008,163.186701 77.3135,163.0085 C77.1440992,162.830299 76.9274013,162.7412 76.6634,162.7412 C76.3993987,162.7412 76.1816009,162.830299 76.01,163.0085 C75.8383991,163.186701 75.7526,163.425399 75.7526,163.7246 C75.7526,164.023801 75.8383991,164.262499 76.01,164.4407 C76.1816009,164.618901 76.3993987,164.708 76.6634,164.708 Z M82.874,161.9492 L82.874,165.5 L81.8972,165.5 L81.8972,165.0776 C81.7607993,165.231601 81.5980009,165.3493 81.4088,165.4307 C81.2195991,165.5121 81.0150011,165.5528 80.795,165.5528 C80.3285977,165.5528 79.9590014,165.418601 79.6862,165.1502 C79.4133986,164.881799 79.277,164.483603 79.277,163.9556 L79.277,161.9492 L80.3066,161.9492 L80.3066,163.8038 C80.3066,164.375803 80.5463976,164.6618 81.026,164.6618 C81.2724012,164.6618 81.4703993,164.581501 81.62,164.4209 C81.7696007,164.260299 81.8444,164.021602 81.8444,163.7048 L81.8444,161.9492 L82.874,161.9492 Z M85.9892,161.8964 C86.4292022,161.8964 86.7844986,162.028399 87.0551,162.2924 C87.3257014,162.556401 87.461,162.947997 87.461,163.4672 L87.461,165.5 L86.4314,165.5 L86.4314,163.6256 C86.4314,163.343999 86.3698006,163.133901 86.2466,162.9953 C86.1233994,162.856699 85.9452012,162.7874 85.712,162.7874 C85.4523987,162.7874 85.2456008,162.867699 85.0916,163.0283 C84.9375992,163.188901 84.8606,163.427598 84.8606,163.7444 L84.8606,165.5 L83.831,165.5 L83.831,161.9492 L84.8144,161.9492 L84.8144,162.365 C84.9508007,162.215399 85.120199,162.0999 85.3226,162.0185 C85.525001,161.9371 85.7471988,161.8964 85.9892,161.8964 Z M90.6818,165.3284 C90.5805995,165.4032 90.4563007,165.4593 90.3089,165.4967 C90.1614993,165.5341 90.0064008,165.5528 89.8436,165.5528 C89.4211979,165.5528 89.0945012,165.445001 88.8635,165.2294 C88.6324988,165.013799 88.517,164.697002 88.517,164.279 L88.517,162.8204 L87.9692,162.8204 L87.9692,162.0284 L88.517,162.0284 L88.517,161.1638 L89.5466,161.1638 L89.5466,162.0284 L90.431,162.0284 L90.431,162.8204 L89.5466,162.8204 L89.5466,164.2658 C89.5466,164.415401 89.5850996,164.5309 89.6621,164.6123 C89.7391004,164.6937 89.8479993,164.7344 89.9888,164.7344 C90.1516008,164.7344 90.2901994,164.6904 90.4046,164.6024 L90.6818,165.3284 Z" id="path-7"></path>
        <path d="M62.9996,9.9492 L61.3958,13.7178 C61.2329992,14.127002 61.0317012,14.4151992 60.7919,14.5824 C60.5520988,14.7496008 60.2628017,14.8332 59.924,14.8332 C59.7391991,14.8332 59.5566009,14.8046003 59.3762,14.7474 C59.1957991,14.6901997 59.0484006,14.6110005 58.934,14.5098 L59.3102,13.7772 C59.3894004,13.8476004 59.4806995,13.9025998 59.5841,13.9422 C59.6875005,13.9818002 59.7897995,14.0016 59.891,14.0016 C60.0318007,14.0016 60.1461996,13.9675003 60.2342,13.8993 C60.3222004,13.8310997 60.4013996,13.7178008 60.4718,13.5594 L60.485,13.5264 L58.9472,9.9492 L60.0098,9.9492 L61.0064,12.3582 L62.0096,9.9492 L62.9996,9.9492 Z M65.0126,13.5528 C64.6385981,13.5528 64.3031015,13.4747008 64.0061,13.3185 C63.7090985,13.1622992 63.4770008,12.9456014 63.3098,12.6684 C63.1425992,12.3911986 63.059,12.0766018 63.059,11.7246 C63.059,11.3725982 63.1425992,11.0580014 63.3098,10.7808 C63.4770008,10.5035986 63.7090985,10.2869008 64.0061,10.1307 C64.3031015,9.97449922 64.6385981,9.8964 65.0126,9.8964 C65.3866019,9.8964 65.7209985,9.97449922 66.0158,10.1307 C66.3106015,10.2869008 66.5415992,10.5035986 66.7088,10.7808 C66.8760008,11.0580014 66.9596,11.3725982 66.9596,11.7246 C66.9596,12.0766018 66.8760008,12.3911986 66.7088,12.6684 C66.5415992,12.9456014 66.3106015,13.1622992 66.0158,13.3185 C65.7209985,13.4747008 65.3866019,13.5528 65.0126,13.5528 Z M65.0126,12.708 C65.2766013,12.708 65.4932992,12.6189009 65.6627,12.4407 C65.8321008,12.2624991 65.9168,12.0238015 65.9168,11.7246 C65.9168,11.4253985 65.8321008,11.1867009 65.6627,11.0085 C65.4932992,10.8302991 65.2766013,10.7412 65.0126,10.7412 C64.7485987,10.7412 64.5308009,10.8302991 64.3592,11.0085 C64.1875991,11.1867009 64.1018,11.4253985 64.1018,11.7246 C64.1018,12.0238015 64.1875991,12.2624991 64.3592,12.4407 C64.5308009,12.6189009 64.7485987,12.708 65.0126,12.708 Z M71.2232,9.9492 L71.2232,13.5 L70.2464,13.5 L70.2464,13.0776 C70.1099993,13.2316008 69.9472009,13.3492996 69.758,13.4307 C69.5687991,13.5121004 69.3642011,13.5528 69.1442,13.5528 C68.6777977,13.5528 68.3082014,13.4186013 68.0354,13.1502 C67.7625986,12.8817987 67.6262,12.4836026 67.6262,11.9556 L67.6262,9.9492 L68.6558,9.9492 L68.6558,11.8038 C68.6558,12.3758029 68.8955976,12.6618 69.3752,12.6618 C69.6216012,12.6618 69.8195993,12.5815008 69.9692,12.4209 C70.1188007,12.2602992 70.1936,12.0216016 70.1936,11.7048 L70.1936,9.9492 L71.2232,9.9492 Z M73.1636,10.4178 C73.2868006,10.2461991 73.452899,10.1164004 73.6619,10.0284 C73.870901,9.94039956 74.1117986,9.8964 74.3846,9.8964 L74.3846,10.8468 C74.2701994,10.838 74.1932002,10.8336 74.1536,10.8336 C73.8587985,10.8336 73.6278008,10.9160992 73.4606,11.0811 C73.2933992,11.2461008 73.2098,11.4935983 73.2098,11.8236 L73.2098,13.5 L72.1802,13.5 L72.1802,9.9492 L73.1636,9.9492 L73.1636,10.4178 Z M74.444,13.5 L77.744,13.5 L77.744,14.094 L74.444,14.094 L74.444,13.5 Z M79.5854,9.8964 C80.1354027,9.8964 80.5577985,10.0272987 80.8526,10.2891 C81.1474015,10.5509013 81.2948,10.9457974 81.2948,11.4738 L81.2948,13.5 L80.3312,13.5 L80.3312,13.0578 C80.137599,13.3878017 79.7768026,13.5528 79.2488,13.5528 C78.9759986,13.5528 78.739501,13.5066005 78.5393,13.4142 C78.339099,13.3217995 78.1862005,13.1942008 78.0806,13.0314 C77.9749995,12.8685992 77.9222,12.683801 77.9222,12.477 C77.9222,12.1469984 78.0464988,11.8874009 78.2951,11.6982 C78.5437012,11.5089991 78.9275974,11.4144 79.4468,11.4144 L80.2652,11.4144 C80.2652,11.1899989 80.1970007,11.0173006 80.0606,10.8963 C79.9241993,10.7752994 79.7196014,10.7148 79.4468,10.7148 C79.2575991,10.7148 79.0717009,10.7444997 78.8891,10.8039 C78.7064991,10.8633003 78.5514006,10.9435995 78.4238,11.0448 L78.0542,10.3254 C78.247801,10.1889993 78.4798986,10.0834004 78.7505,10.0086 C79.0211014,9.93379963 79.2993986,9.8964 79.5854,9.8964 Z M79.5062,12.8598 C79.6822009,12.8598 79.8383993,12.8191004 79.9748,12.7377 C80.1112007,12.6562996 80.2079997,12.5364008 80.2652,12.378 L80.2652,12.015 L79.559,12.015 C79.1365979,12.015 78.9254,12.1535986 78.9254,12.4308 C78.9254,12.5628007 78.9770995,12.6672996 79.0805,12.7443 C79.1839005,12.8213004 79.3257991,12.8598 79.5062,12.8598 Z M83.981,13.5528 C83.6025981,13.5528 83.2627015,13.4747008 82.9613,13.3185 C82.6598985,13.1622992 82.4245008,12.9456014 82.2551,12.6684 C82.0856992,12.3911986 82.001,12.0766018 82.001,11.7246 C82.001,11.3725982 82.0856992,11.0580014 82.2551,10.7808 C82.4245008,10.5035986 82.6598985,10.2869008 82.9613,10.1307 C83.2627015,9.97449922 83.6025981,9.8964 83.981,9.8964 C84.3550019,9.8964 84.6816986,9.97449922 84.9611,10.1307 C85.2405014,10.2869008 85.4439994,10.5101985 85.5716,10.8006 L84.773,11.2296 C84.5881991,10.9039984 84.3220017,10.7412 83.9744,10.7412 C83.7059987,10.7412 83.4838009,10.8291991 83.3078,11.0052 C83.1317991,11.1812009 83.0438,11.4209985 83.0438,11.7246 C83.0438,12.0282015 83.1317991,12.2679991 83.3078,12.444 C83.4838009,12.6200009 83.7059987,12.708 83.9744,12.708 C84.3264018,12.708 84.5925991,12.5452016 84.773,12.2196 L85.5716,12.6552 C85.4439994,12.9368014 85.2405014,13.1567992 84.9611,13.3152 C84.6816986,13.4736008 84.3550019,13.5528 83.981,13.5528 Z M87.8354,13.5528 C87.4569981,13.5528 87.1171015,13.4747008 86.8157,13.3185 C86.5142985,13.1622992 86.2789008,12.9456014 86.1095,12.6684 C85.9400992,12.3911986 85.8554,12.0766018 85.8554,11.7246 C85.8554,11.3725982 85.9400992,11.0580014 86.1095,10.7808 C86.2789008,10.5035986 86.5142985,10.2869008 86.8157,10.1307 C87.1171015,9.97449922 87.4569981,9.8964 87.8354,9.8964 C88.2094019,9.8964 88.5360986,9.97449922 88.8155,10.1307 C89.0949014,10.2869008 89.2983994,10.5101985 89.426,10.8006 L88.6274,11.2296 C88.4425991,10.9039984 88.1764017,10.7412 87.8288,10.7412 C87.5603987,10.7412 87.3382009,10.8291991 87.1622,11.0052 C86.9861991,11.1812009 86.8982,11.4209985 86.8982,11.7246 C86.8982,12.0282015 86.9861991,12.2679991 87.1622,12.444 C87.3382009,12.6200009 87.5603987,12.708 87.8288,12.708 C88.1808018,12.708 88.4469991,12.5452016 88.6274,12.2196 L89.426,12.6552 C89.2983994,12.9368014 89.0949014,13.1567992 88.8155,13.3152 C88.5360986,13.4736008 88.2094019,13.5528 87.8354,13.5528 Z M91.6634,13.5528 C91.2893981,13.5528 90.9539015,13.4747008 90.6569,13.3185 C90.3598985,13.1622992 90.1278008,12.9456014 89.9606,12.6684 C89.7933992,12.3911986 89.7098,12.0766018 89.7098,11.7246 C89.7098,11.3725982 89.7933992,11.0580014 89.9606,10.7808 C90.1278008,10.5035986 90.3598985,10.2869008 90.6569,10.1307 C90.9539015,9.97449922 91.2893981,9.8964 91.6634,9.8964 C92.0374019,9.8964 92.3717985,9.97449922 92.6666,10.1307 C92.9614015,10.2869008 93.1923992,10.5035986 93.3596,10.7808 C93.5268008,11.0580014 93.6104,11.3725982 93.6104,11.7246 C93.6104,12.0766018 93.5268008,12.3911986 93.3596,12.6684 C93.1923992,12.9456014 92.9614015,13.1622992 92.6666,13.3185 C92.3717985,13.4747008 92.0374019,13.5528 91.6634,13.5528 Z M91.6634,12.708 C91.9274013,12.708 92.1440992,12.6189009 92.3135,12.4407 C92.4829008,12.2624991 92.5676,12.0238015 92.5676,11.7246 C92.5676,11.4253985 92.4829008,11.1867009 92.3135,11.0085 C92.1440992,10.8302991 91.9274013,10.7412 91.6634,10.7412 C91.3993987,10.7412 91.1816009,10.8302991 91.01,11.0085 C90.8383991,11.1867009 90.7526,11.4253985 90.7526,11.7246 C90.7526,12.0238015 90.8383991,12.2624991 91.01,12.4407 C91.1816009,12.6189009 91.3993987,12.708 91.6634,12.708 Z M97.874,9.9492 L97.874,13.5 L96.8972,13.5 L96.8972,13.0776 C96.7607993,13.2316008 96.5980009,13.3492996 96.4088,13.4307 C96.2195991,13.5121004 96.0150011,13.5528 95.795,13.5528 C95.3285977,13.5528 94.9590014,13.4186013 94.6862,13.1502 C94.4133986,12.8817987 94.277,12.4836026 94.277,11.9556 L94.277,9.9492 L95.3066,9.9492 L95.3066,11.8038 C95.3066,12.3758029 95.5463976,12.6618 96.026,12.6618 C96.2724012,12.6618 96.4703993,12.5815008 96.62,12.4209 C96.7696007,12.2602992 96.8444,12.0216016 96.8444,11.7048 L96.8444,9.9492 L97.874,9.9492 Z M100.9892,9.8964 C101.429202,9.8964 101.784499,10.0283987 102.0551,10.2924 C102.325701,10.5564013 102.461,10.9479974 102.461,11.4672 L102.461,13.5 L101.4314,13.5 L101.4314,11.6256 C101.4314,11.3439986 101.369801,11.1339007 101.2466,10.9953 C101.123399,10.8566993 100.945201,10.7874 100.712,10.7874 C100.452399,10.7874 100.245601,10.8676992 100.0916,11.0283 C99.9375992,11.1889008 99.8606,11.4275984 99.8606,11.7444 L99.8606,13.5 L98.831,13.5 L98.831,9.9492 L99.8144,9.9492 L99.8144,10.365 C99.9508007,10.2153993 100.120199,10.0999004 100.3226,10.0185 C100.525001,9.93709959 100.747199,9.8964 100.9892,9.8964 Z M105.6818,13.3284 C105.580599,13.4032004 105.456301,13.4592998 105.3089,13.4967 C105.161499,13.5341002 105.006401,13.5528 104.8436,13.5528 C104.421198,13.5528 104.094501,13.4450011 103.8635,13.2294 C103.632499,13.0137989 103.517,12.6970021 103.517,12.279 L103.517,10.8204 L102.9692,10.8204 L102.9692,10.0284 L103.517,10.0284 L103.517,9.1638 L104.5466,9.1638 L104.5466,10.0284 L105.431,10.0284 L105.431,10.8204 L104.5466,10.8204 L104.5466,12.2658 C104.5466,12.4154007 104.5851,12.5308996 104.6621,12.6123 C104.7391,12.6937004 104.847999,12.7344 104.9888,12.7344 C105.151601,12.7344 105.290199,12.6904004 105.4046,12.6024 L105.6818,13.3284 Z" id="path-8"></path>
    </defs>
    <g id="Page-1" stroke="none" stroke-width="1" fill="none" fill-rule="evenodd">
        <g id="Group-11" transform="translate(-15.000000, 7.000000)">
            <rect id="Rectangle" x="0" y="0" width="256" height="192"></rect>
            <g id="Group-10" transform="translate(15.000000, 2.000000)">
                <g id="Group-5">
                    <path d="M56.4312835,167 C117.182606,167 211.275034,142 223.173471,94 C235.071909,46 173.924793,15 113.173471,15 C52.4221485,15 -14.2601227,16 2.67347101,77 C19.6070648,138 -4.32003897,167 56.4312835,167 Z" id="Oval" fill="#FCB8CD"></path>
                    <g id="Rectangle">
                        <use fill="black" fill-opacity="1" filter="url(#filter-2)" xlink:href="#path-1"></use>
                        <use fill="#FFFFFF" fill-rule="evenodd" xlink:href="#path-1"></use>
                    </g>
                    <path d="M161.208393,140.5 L154.812623,140.5 C154.363833,140.5 154.000017,140.861491 154.000017,141.307414 L154.000017,148.915199 C153.998257,149.145418 154.132635,149.355233 154.343273,149.451154 C154.420962,149.483318 154.504293,149.499877 154.588456,149.499877 C154.729858,149.502806 154.867263,149.45316 154.973743,149.360668 L158.007005,146.778337 L161.033262,149.339787 L161.033262,149.339787 C161.205198,149.488917 161.449044,149.524307 161.656727,149.430273 C161.867365,149.334352 162.001743,149.124537 161.999983,148.894317 L161.999983,141.307414 C162.00013,140.86952 161.648954,140.511325 161.208393,140.5 Z M161.537638,148.915199 C161.541335,148.959835 161.515969,149.001842 161.474591,149.019606 C161.438178,149.042293 161.391915,149.042293 161.355502,149.019606 L161.355502,149.019606 L158.16112,146.305025 C158.073367,146.227038 157.940644,146.227038 157.85289,146.305025 L154.665513,149.019606 C154.628667,149.040743 154.583271,149.040743 154.546425,149.019606 C154.502283,149.004183 154.473723,148.961617 154.476372,148.915199 L154.476372,141.307414 C154.476372,141.122894 154.626917,140.973311 154.812623,140.973311 L161.208393,140.973311 C161.296941,140.973292 161.381766,141.008712 161.443717,141.071577 C161.505667,141.134441 161.539522,141.219451 161.537638,141.307414 L161.537638,148.915199 Z" id="Shape" fill="#3E3E3D" fill-rule="nonzero"></path>
                    <path d="M52.8607814,145.307757 C52.6933717,145.829197 52.3856907,146.28941 51.9744344,146.633509 L48.6420445,149.44267 C48.6021748,149.479345 48.5509153,149.499712 48.4977555,149.5 C48.4427478,149.498456 48.3897053,149.478339 48.3465955,149.44267 L45.0210766,146.633509 C44.6077836,146.291402 44.2996437,145.830502 44.1347296,145.307757 C43.8015089,144.213041 44.09778,143.015994 44.8974002,142.226279 C45.6345189,141.501397 46.7125596,141.29901 47.645763,141.71031 C47.9951922,141.880074 48.2942677,142.144967 48.5114973,142.477097 C48.7287269,142.144967 49.0278024,141.880074 49.3772316,141.71031 C50.310435,141.29901 51.3884757,141.501397 52.1255943,142.226279 C52.9124952,143.024084 53.1974276,144.218355 52.8607814,145.307757 L52.8607814,145.307757 Z" id="Path" fill="#FF1C46" fill-rule="nonzero"></path>
                    <path d="M67.8952038,143.537088 C67.4995735,141.921029 66.1328845,140.720203 64.4693882,140.527032 C62.8058918,140.333861 61.1970653,141.18916 60.4366177,142.670971 C59.6761702,144.152781 59.9247752,145.948014 61.0597844,147.170997 C62.1947936,148.39398 63.9763928,148.786311 65.5256361,148.154435 C65.6360823,148.111801 65.7586056,148.111801 65.8690517,148.154435 L66.9885866,148.49545 C67.0479552,148.501517 67.1077941,148.501517 67.1671627,148.49545 C67.3116368,148.494078 67.4507177,148.440773 67.5586565,148.345403 C67.713706,148.206046 67.7862512,147.99765 67.7509692,147.792959 L67.50371,146.585764 C67.4830882,146.475824 67.5025672,146.362184 67.5586565,146.26521 L67.5586565,146.26521 C67.9915244,145.423766 68.1107367,144.457406 67.8952038,143.537088 L67.8952038,143.537088 Z M67.1602944,146.053781 L67.1602944,146.053781 C67.0586929,146.243981 67.0248075,146.462697 67.064138,146.674428 L67.2907923,147.881623 C67.29894,147.924809 67.2832239,147.969027 67.2495824,147.997568 C67.2117533,148.02101 67.1637819,148.02101 67.1259528,147.997568 L66.006418,147.656552 C65.9198222,147.629137 65.8294435,147.61533 65.7385538,147.615631 C65.6038445,147.616522 65.4706971,147.644357 65.34706,147.697474 C63.7588945,148.349986 61.9281021,147.77934 61.0003337,146.342628 C60.0725653,144.905916 60.3141915,143.015631 61.5740104,141.854652 C62.8338293,140.693674 64.7501357,140.595329 66.1237666,141.62116 C67.4973976,142.64699 67.9339715,144.502469 67.1602944,146.026499 L67.1602944,146.053781 Z" id="Shape" fill="#3E3E3D" fill-rule="nonzero"></path>
                    <path d="M83.9754885,141.629916 C83.9394744,141.550377 83.8621236,141.499691 83.7772325,141.500001 L75.2257906,141.500001 C75.1324131,141.501375 75.0489947,141.560713 75.0143176,141.650429 C74.9808485,141.742774 75.007337,141.84692 75.0804029,141.910258 L78.0806769,144.570086 L78.0806769,149.281197 C78.0840887,149.381283 78.1473729,149.468587 78.2392817,149.5 L78.3053671,149.5 C78.37817,149.5 78.4467242,149.464535 78.490406,149.404274 L83.9490544,141.882907 C84.00565,141.811495 84.0160256,141.712193 83.9754885,141.629916 L83.9754885,141.629916 Z M75.8337757,141.964959 L82.7925611,141.964959 L78.3450183,144.18718 L75.8337757,141.964959 Z M78.5300572,144.611112 L83.0436853,142.354702 L78.5366657,148.583761 L78.5300572,144.611112 Z" id="Shape" fill="#3E3E3D" fill-rule="nonzero"></path>
                    <g id="4" fill-rule="nonzero">
                        <use fill="#000000" xlink:href="#path-3"></use>
                        <use fill="#A5A6A9" xlink:href="#path-3"></use>
                    </g>
                    <g id="5MIN" fill-rule="nonzero">
                        <use fill="#000000" xlink:href="#path-4"></use>
                        <use fill="#A5A6A9" xlink:href="#path-4"></use>
                    </g>
                    <g id="A" fill-rule="nonzero">
                        <use fill="#000000" xlink:href="#path-5"></use>
                        <use fill="#A5A6A9" xlink:href="#path-5"></use>
                    </g>
                    <g id="GO" fill-rule="nonzero">
                        <use fill="#000000" xlink:href="#path-6"></use>
                        <use fill="#A5A6A9" xlink:href="#path-6"></use>
                    </g>
                    <g id="your_account" fill-rule="nonzero">
                        <use fill="#000000" xlink:href="#path-7"></use>
                        <use fill="#4E4E50" xlink:href="#path-7"></use>
                    </g>
                    <path d="M157.999322,11.996988 C158.006208,12.1338538 157.957482,12.2672437 157.865622,12.3630013 C157.773763,12.458759 157.647689,12.5075856 157.519684,12.4969785 C157.341127,12.5179966 157.167042,12.428135 157.07159,12.265675 C156.976137,12.103215 156.976137,11.896785 157.07159,11.734325 C157.167042,11.571865 157.341127,11.4820034 157.519684,11.5030215 C157.647126,11.4905504 157.773342,11.5379126 157.865445,11.6327678 C157.957549,11.7276229 158.006419,11.8605769 157.999322,11.996988 Z" id="Path" fill="#4E4E50" fill-rule="nonzero"></path>
                    <path d="M159.999322,11.996988 C160.006208,12.1338538 159.957482,12.2672437 159.865622,12.3630013 C159.773763,12.458759 159.647689,12.5075856 159.519684,12.4969785 C159.341127,12.5179966 159.167042,12.428135 159.07159,12.265675 C158.976137,12.103215 158.976137,11.896785 159.07159,11.734325 C159.167042,11.571865 159.341127,11.4820034 159.519684,11.5030215 C159.647126,11.4905504 159.773342,11.5379126 159.865445,11.6327678 C159.957549,11.7276229 160.006419,11.8605769 159.999322,11.996988 Z" id="Path" fill="#4E4E50" fill-rule="nonzero"></path>
                    <path d="M162.999456,11.9777022 C163.008958,12.1814037 162.893348,12.3703851 162.707468,12.4549985 C162.521588,12.5396118 162.302834,12.5028346 162.154976,12.3621129 C162.007119,12.2213912 161.959905,12.0050356 162.035732,11.8156796 C162.111558,11.6263236 162.29517,11.502062 162.499466,11.5018413 C162.631256,11.4900217 162.761749,11.535511 162.857515,11.6266548 C162.95328,11.7177985 163.005011,11.8457406 162.999456,11.9777022 Z" id="Path" fill="#4E4E50" fill-rule="nonzero"></path>
                    <path d="M94.9988595,146.454125 C95.0183419,146.862215 94.7867927,147.240972 94.4143417,147.41025 C94.0418907,147.579529 93.6037133,147.505162 93.3082164,147.22252 C93.0127195,146.939878 92.9195461,146.50601 93.0730116,146.127272 C93.226477,145.748535 93.5956058,145.501372 94.0048321,145.503341 C94.2673846,145.480894 94.5269142,145.572338 94.7171915,145.754338 C94.9074688,145.936338 95.0100872,146.191287 94.9988595,146.454125 L94.9988595,146.454125 Z" id="Path" fill="#CFD1D2" fill-rule="nonzero"></path>
                    <path d="M99.9985439,146.49409 C100.01368,146.769869 99.9102336,147.038748 99.7150052,147.231065 C99.5197769,147.423383 99.2519785,147.520213 98.9809926,147.496469 C98.4392053,147.496469 98,147.050459 98,146.500277 C98,145.950096 98.4392053,145.504086 98.9809926,145.504086 C99.2502526,145.478613 99.5171362,145.573128 99.7124048,145.76311 C99.9076735,145.953093 100.012082,146.219818 99.9985439,146.49409 L99.9985439,146.49409 Z" id="Path" fill="#CFD1D2" fill-rule="nonzero"></path>
                    <path d="M103.998456,146.494425 C104.013592,146.770112 103.91015,147.038902 103.71493,147.231155 C103.51971,147.423408 103.251923,147.520206 102.980949,147.49647 C102.439186,147.49647 102,147.050608 102,146.50061 C102,145.950612 102.439186,145.504751 102.980949,145.504751 C103.250695,145.477131 103.518815,145.570894 103.71458,145.761304 C103.910345,145.951715 104.014094,146.219648 103.998456,146.494425 L103.998456,146.494425 Z" id="Path" fill="#164485" fill-rule="nonzero"></path>
                    <path d="M107.998859,146.454125 C108.018342,146.862215 107.786793,147.240972 107.414342,147.41025 C107.041891,147.579529 106.603713,147.505162 106.308216,147.22252 C106.01272,146.939878 105.919546,146.50601 106.073012,146.127272 C106.226477,145.748535 106.595606,145.501372 107.004832,145.503341 C107.267385,145.480894 107.526914,145.572338 107.717191,145.754338 C107.907469,145.936338 108.010087,146.191287 107.998859,146.454125 Z" id="Path" fill="#CFD1D2" fill-rule="nonzero"></path>
                    <path d="M111.998544,146.49409 C112.01368,146.769869 111.910234,147.038748 111.715005,147.231065 C111.519777,147.423383 111.251979,147.520213 110.980993,147.496469 C110.439205,147.496469 110,147.050459 110,146.500277 C110,145.950096 110.439205,145.504086 110.980993,145.504086 C111.250253,145.478613 111.517136,145.573128 111.712405,145.76311 C111.907673,145.953093 112.012082,146.219818 111.998544,146.49409 L111.998544,146.49409 Z" id="Path" fill="#CFD1D2" fill-rule="nonzero"></path>
                    <rect id="Rectangle" fill="#E7EEFE" fill-rule="nonzero" x="37" y="23.5" width="133" height="111"></rect>
                    <ellipse id="Oval" fill="#451E00" fill-rule="nonzero" transform="translate(137.533027, 45.302323) rotate(-56.210000) translate(-137.533027, -45.302323) " cx="137.533027" cy="45.3023233" rx="10.0157204" ry="10.013209"></ellipse>
                    <path d="M146.478303,40 C148.667136,43.7766833 148.828547,48.5979286 148.823656,52.2637504 C148.816069,58.0721782 147.834613,63.8375943 145.920701,69.3167194 C144.984028,71.9995688 143.822357,74.6159013 143.198723,77.3899035 C142.57509,80.1639056 142.531068,83.1842668 143.773445,85.7365459 C144.150071,86.5076496 144.663651,87.2491901 145.407121,87.6630732 C146.796234,88.439104 148.515507,87.8897235 150,87.328025 C148.992403,89.4146856 146.757104,90.7548785 144.46311,90.9667472 C142.169116,91.178616 139.853112,90.3607041 137.98221,89.0081933 C136.111309,87.6556824 134.643935,85.8055264 133.448026,83.8149458 C130.581756,79.062681 129.151067,73.5048222 129.011666,67.9568178 C128.872266,62.4088135 129.989915,56.8706634 131.946414,51.6749524 C133.007814,48.8639964 134.348015,46.0949213 136.431686,43.9392802" id="Path" fill="#451E00" fill-rule="nonzero"></path>
                    <polygon id="Path" fill="#FDC78B" fill-rule="nonzero" points="126.98542 112 107.7221 112.213622 106 118 129 118"></polygon>
                    <path d="M130.200819,120 L105.275756,120 L103.217535,125.483718 C101.974809,129.013219 102.324245,130.828078 103,134.5 L134,134.5 C134,130 134,130 132.338797,125.034028 L130.200819,120 Z" id="Path" fill="#42B6B5" fill-rule="nonzero"></path>
                    <polygon id="Path" fill="#339392" fill-rule="nonzero" points="128.256813 118 105.65896 118 105 121 129 121"></polygon>
                    <polygon id="Path" fill="#84D7D8" fill-rule="nonzero" points="105 118.255012 105.167521 121 106 120.718524 106 118"></polygon>
                    <polygon id="Path" fill="#84D7D8" fill-rule="nonzero" points="119 118 119 121 119.789011 121 120 118"></polygon>
                    <polygon id="Path" fill="#84D7D8" fill-rule="nonzero" points="128 118 128 121 128.607623 121 129 118"></polygon>
                    <path d="M112.0002,123.109777 C112.142267,125.34833 112.273406,127.596723 112.483774,129.830356 C112.620377,131.234986 113.202305,132.359182 114.726792,132.969249 C114.775595,133.002207 114.840219,133.009217 114.896319,132.98764 C114.95242,132.966063 114.991474,132.919177 114.998771,132.864643 C115.006068,132.810108 114.980499,132.756212 114.931696,132.723255 C114.415337,132.164846 113.721395,131.798314 113.259678,131.185787 C112.579396,130.280526 112.639501,129.289167 112.568468,128.248609 C112.45099,126.526645 112.363564,124.816981 112.237889,123.102397 C112.237889,122.9671 111.992004,122.96464 112.0002,123.102397 L112.0002,123.109777 Z" id="Path" fill="#339392" fill-rule="nonzero"></path>
                    <path d="M114,127.035617 C114.197809,128.967688 114.100381,131.026486 114.655427,132.925317 C114.690856,133.04789 114.935903,133.00634 114.950665,132.896232 C115.18095,130.978704 114.555047,128.913673 114.106286,127.025229 C114.097991,127.00827 114.073753,126.997842 114.048519,127.000378 C114.023286,127.002915 114.004166,127.017701 114.002952,127.035617 L114,127.035617 Z" id="Path" fill="#339392" fill-rule="nonzero"></path>
                    <path d="M121.001561,124.087561 C121.896735,127.83242 126.679744,129.402038 129.885043,128.913095 C129.953531,128.889891 130,128.822512 130,128.74641 C130,128.670309 129.953531,128.602929 129.885043,128.579725 C128.047444,128.268579 126.209844,128.338032 124.479875,127.468491 C122.967793,126.712852 121.954488,125.5405 121.124943,124.031999 C121.106691,124.003206 121.071682,123.992199 121.041536,124.005775 C121.01139,124.01935 120.994611,124.053679 121.001561,124.087561 L121.001561,124.087561 Z" id="Path" fill="#339392" fill-rule="nonzero"></path>
                    <path d="M108.776926,124.045757 C108.165122,125.027791 107.44372,125.950288 106.624067,126.79874 C105.848728,127.567232 104.905398,128.143601 104.039603,128.820718 C103.931055,128.905064 104.068032,129.038613 104.181748,128.989411 C106.24932,128.099085 108.117888,126.023219 108.991436,124.127761 C109.043126,124.015299 108.846706,123.949696 108.77951,124.0481 L108.776926,124.045757 Z" id="Path" fill="#339392" fill-rule="nonzero"></path>
                    <path d="M113.999992,119.504941 C113.997271,120.330819 113.32746,120.99913 112.501579,120.999999 C111.675697,121.000868 111.004481,120.333969 111.000022,119.508099 C110.995563,118.682229 111.659539,118.00812 112.485382,118.000071 C112.886577,117.996161 113.272618,118.153139 113.557233,118.435924 C113.841849,118.718709 114.001314,119.103729 113.999992,119.504941 L113.999992,119.504941 Z" id="Path" fill="#D4A33F" fill-rule="nonzero"></path>
                    <polygon id="Path" fill="#418FE6" fill-rule="nonzero" points="106.261519 73 114 84.3136854 106 91"></polygon>
                    <polygon id="Path" fill="#E45745" fill-rule="nonzero" points="133 78.9979244 126.686205 109.228838 127.524636 112.822534 106.121639 113 107.8803 109.300318 104 77.590517 118.726223 75"></polygon>
                    <polygon id="Path" fill="#50A1F0" fill-rule="nonzero" points="107 72.4308519 106.304705 118 75.5465379 118 76.7028971 106.224178 71 72.4606892 91.617218 68"></polygon>
                    <polygon id="Path" fill="#418FE6" fill-rule="nonzero" points="101 71 98.4575342 70 82.3881279 70 79 71"></polygon>
                    <polygon id="Path" fill="#418FE6" fill-rule="nonzero" points="106.985155 74 107 73 71 73 71.1682474 74"></polygon>
                    <polygon id="Path" fill="#418FE6" fill-rule="nonzero" points="106.982484 77 107 76 71 76 71.2051852 77"></polygon>
                    <polygon id="Path" fill="#418FE6" fill-rule="nonzero" points="106.985644 79 107 78 73 78 73.1627023 79"></polygon>
                    <polygon id="Path" fill="#418FE6" fill-rule="nonzero" points="105.981136 83 106 82 73 82 73.2075027 83"></polygon>
                    <polygon id="Path" fill="#418FE6" fill-rule="nonzero" points="105.983552 87 106 86 74 86 74.1762244 87"></polygon>
                    <polygon id="Path" fill="#418FE6" fill-rule="nonzero" points="105.981528 90 106 89 75 89 75.2031878 90"></polygon>
                    <polygon id="Path" fill="#418FE6" fill-rule="nonzero" points="105.983585 92 106 91 75 91 75.1594554 92"></polygon>
                    <polygon id="Path" fill="#418FE6" fill-rule="nonzero" points="105.978621 95 106 94 75 94 75.2256705 95"></polygon>
                    <polygon id="Path" fill="#418FE6" fill-rule="nonzero" points="105.983102 98 106 97 75 97 75.1955303 98"></polygon>
                    <polygon id="Path" fill="#418FE6" fill-rule="nonzero" points="105.983361 100 106 99 76 99 76.1782743 100"></polygon>
                    <polygon id="Path" fill="#418FE6" fill-rule="nonzero" points="105.980701 103 106 102 76 102 76.2122869 103"></polygon>
                    <polygon id="Path" fill="#418FE6" fill-rule="nonzero" points="106.981005 105 107 104 78 104 78.2089406 105"></polygon>
                    <polygon id="Path" fill="#418FE6" fill-rule="nonzero" points="105.97571 114 106 111 76.1627399 111 76 114"></polygon>
                    <polygon id="Path" fill="#418FE6" fill-rule="nonzero" points="106.982558 117 107 116 76.1171128 116 76 117"></polygon>
                    <polygon id="Path" fill="#418FE6" fill-rule="nonzero" points="105.985299 112 106 111 76.0980072 111 76 112"></polygon>
                    <polygon id="Path" fill="#418FE6" fill-rule="nonzero" points="107.977809 109 108 106 78.1553382 106 78 109"></polygon>
                    <polygon id="Path" fill="#418FE6" fill-rule="nonzero" points="105.983772 84 106 83 74 83 74.1715569 84"></polygon>
                    <path d="M120.238653,76.3507109 L120.274524,74.0663507 L113.740849,74 L113.704978,76.471564 L110,77.3744076 L114.161054,90 C114.161054,90 120.469253,81.7061611 124,77.4407583 L120.238653,76.3507109 Z" id="Path" fill="#FBB87B" fill-rule="nonzero"></path>
                    <path d="M122.696959,38.5435177 C113.091565,36.3128245 107.709361,41.1038578 105.468434,50.0638089 C104.620314,53.4594197 100.601071,68.1225098 111.0322,74.9781736 C115.123571,77.6673982 124.447916,74.5493848 127.524527,71.3892361 C129.775403,69.0767508 132.618221,63.9312851 134.013515,59.3781924 C136.95582,49.7738188 133.354419,41.0121515 122.696959,38.5435177 Z" id="Path" fill="#FDC78B" fill-rule="nonzero"></path>
                    <path d="M115.537839,56 C115.28741,56.9778505 114.988674,57.9378044 114.643142,58.875 C114.295646,59.8277387 113.899933,60.7553145 113.458113,61.6527778 L113.35146,61.7569444 C113.35146,61.7569444 113.387011,61.7569444 113.404786,61.6875 C113.422562,61.6180556 113.404786,61.5972222 113.404786,61.6041667 C113.404786,61.6111111 113.440337,61.6666667 113.487738,61.7013889 C113.584854,61.7856112 113.687931,61.8599556 113.795846,61.9236111 C114.026927,62.0625 114.269858,62.1875 114.512788,62.3055556 L116,63 C115.466246,62.9061347 114.937914,62.7739414 114.417986,62.6041667 C114.154583,62.5166793 113.895464,62.4123566 113.641792,62.2916667 C113.505024,62.2256974 113.374055,62.1442958 113.250732,62.0486111 C113.167987,61.9936364 113.098632,61.9147412 113.049278,61.8194444 C112.999837,61.7286019 112.986844,61.6169296 113.013727,61.5138889 C113.045356,61.4087238 113.114618,61.3250102 113.203331,61.2847222 L113.096679,61.3888889 C113.505514,60.5138889 113.872873,59.5902778 114.281708,58.6875 C114.690543,57.7847222 115.099378,56.8819444 115.537839,56 Z" id="Path" fill="#F2895F" fill-rule="nonzero"></path>
                    <path d="M113.021409,74.7027075 C102.883476,67.8251458 107.220016,53.239543 108.044298,49.8380591 C109.56958,43.5398437 112.395342,39.240746 117.150066,38 C111.503378,38.7459395 108.082974,43.1494687 106.427159,49.9822741 C105.602878,53.3887309 101.696608,68.0986569 111.83454,74.9762187 C113.768338,76.294045 116.932514,76.2194511 120,75.4312417 C117.326525,75.9434535 114.713481,75.8514543 113.021409,74.7027075 Z" id="Path" fill="#FBB87B" fill-rule="nonzero"></path>
                    <path d="M108,52.2481463 C108,52.2481463 108.091657,52.2181472 108.253819,52.1731485 C108.351955,52.1454563 108.452497,52.1235235 108.554642,52.1075253 C108.685933,52.0802302 108.819426,52.0601833 108.954172,52.047527 C109.109831,52.0279225 109.266763,52.0154026 109.424207,52.0100281 C109.59342,52.0006534 109.772033,51.9987784 109.957697,52.0006534 C110.342569,52.0061019 110.726533,52.0324118 111.106933,52.0794011 C111.301998,52.1056504 111.494712,52.1318996 111.682726,52.1675236 C111.87074,52.2031476 112.054054,52.2443964 112.232667,52.2818954 C112.555123,52.3557888 112.869515,52.4504729 113.172738,52.5650123 C113.296569,52.6094091 113.416678,52.6601382 113.532315,52.716883 C113.623551,52.7587653 113.711458,52.8051022 113.795535,52.8556291 C113.849415,52.8885288 113.901184,52.9235722 113.950646,52.9606261 L114,53 L113.743831,52.9343769 C113.661575,52.9193773 113.567568,52.895003 113.452409,52.8762535 L113.06933,52.8106304 L112.618096,52.7393824 L112.115159,52.6662595 C111.762632,52.6212607 111.391304,52.5687622 111.015276,52.5237635 C110.829612,52.4956393 110.641598,52.4806397 110.458284,52.4562654 C110.274971,52.4318911 110.094007,52.4093918 109.917744,52.3943922 C109.741481,52.3793926 109.569918,52.3568933 109.407756,52.3437686 C109.245593,52.330644 109.092832,52.3137695 108.951821,52.3043947 C108.810811,52.29502 108.679201,52.2837703 108.564042,52.2781455 C108.448884,52.2725206 108.345476,52.261271 108.258519,52.261271 C108.098707,52.2556461 108,52.2481463 108,52.2481463 Z" id="Path" fill="#943B20" fill-rule="nonzero"></path>
                    <path d="M126,58 C126,58 125.942016,57.8930803 125.853659,57.7032978 C125.807337,57.5874316 125.749057,57.4763855 125.679705,57.3718466 C125.599632,57.2542349 125.533364,57.1179123 125.42844,56.9842626 L125.260009,56.7784422 C125.205392,56.7017152 125.143454,56.6301213 125.075012,56.5646027 C124.935752,56.4161234 124.787296,56.2759782 124.630465,56.1449428 C124.54763,56.078118 124.470318,56.0032742 124.38196,55.9391224 L124.105844,55.7493398 C124.017475,55.682044 123.925293,55.6195769 123.829728,55.5622303 C123.733088,55.5034245 123.639208,55.4392727 123.537046,55.3858128 C123.33272,55.2788931 123.136677,55.1612814 122.926829,55.0677266 C122.716981,54.9741719 122.515416,54.8725981 122.313852,54.8004273 C122.112287,54.7282565 121.910723,54.6400477 121.720202,54.5678769 C121.529682,54.4957061 121.347446,54.4315543 121.167971,54.3834404 C120.988495,54.3353265 120.842154,54.2818667 120.698573,54.2444448 C120.554993,54.2070229 120.422457,54.1776199 120.331339,54.15089 C120.240221,54.1241601 120.146341,54.1134681 120.088357,54.1027761 L120,54.0840652 L120.085596,54.0653542 C120.168253,54.0455999 120.252202,54.031311 120.336861,54.0225863 C120.467769,54.0062205 120.599731,53.9990738 120.731707,54.0012024 C120.903203,53.9969234 121.0748,54.0040683 121.245283,54.0225863 C121.447636,54.0383924 121.648707,54.0669651 121.847216,54.1081221 C122.308373,54.1962226 122.758308,54.3324497 123.189139,54.5144171 C123.420563,54.6121833 123.646384,54.7219347 123.865624,54.8431952 C124.082674,54.9713561 124.291946,55.1114733 124.492407,55.2628551 C124.591809,55.3403719 124.685688,55.4205617 124.768523,55.4980785 C124.851358,55.5755953 124.939715,55.671823 125.025311,55.7653778 C125.185736,55.9295583 125.329087,56.1086203 125.45329,56.2999764 C125.566321,56.4698269 125.664234,56.64867 125.745973,56.834575 C125.812899,56.9931784 125.866456,57.156765 125.906121,57.3237328 C125.943648,57.4452631 125.964081,57.5711363 125.966866,57.6979518 C125.997239,57.8797153 126,58 126,58 Z" id="Path" fill="#943B20" fill-rule="nonzero"></path>
                    <path d="M110.050842,64 C109.673809,66.7516769 111.431691,69.3319658 114.06452,69.891436 C116.697349,70.4509062 119.296928,68.796568 120,66.1141737 L110.050842,64 Z" id="Path" fill="#FFFFFF" fill-rule="nonzero"></path>
                    <path d="M127.038104,110.189171 L124.74984,112.730891 C124.462662,113.006153 124.229916,113.362015 124.069934,113.770449 C123.934364,114.188871 123.989824,114.742435 124.289722,114.98933 C124.62454,115.262214 125.064117,115.038709 125.42153,114.815205 L126.551283,114.103107 L125.004548,116.091262 C124.702596,116.478497 124.388319,117.032062 124.57935,117.512858 C124.770381,117.993653 125.380448,117.949472 125.811808,117.801335 C125.605807,118.01173 125.480593,118.323384 125.467647,118.657942 C125.4547,118.992501 125.555252,119.31814 125.744023,119.55299 C125.952589,119.757322 126.222765,119.832041 126.479692,119.756443 C126.73662,119.680845 126.953013,119.462959 127.068915,119.163156 C127.08124,119.651748 127.494113,120 127.880283,120 C128.267291,119.959081 128.639757,119.794545 128.962792,119.521803 C129.274857,119.333487 129.554166,119.068446 129.784431,118.742135 C130.015435,118.403441 130.065469,117.923553 129.911785,117.520654 C129.848108,117.385512 129.755673,117.276358 129.687888,117.143814 C129.277069,116.345954 129.946704,115.199841 129.5934,114.360398 C129.529723,114.209662 129.437288,114.082316 129.371557,113.93158 C129.299088,113.656737 129.250866,113.372597 129.227771,113.08434 C129.135336,112.621737 128.67111,111.891448 128.67111,111.891448 C128.637659,111.567307 128.579883,111.247933 128.498566,110.937653 C128.293157,110.285331 127.459193,109.671991 127.033995,110.199567" id="Path" fill="#FBB87B" fill-rule="nonzero"></path>
                    <path d="M112.66217,57.999837 C112.579981,58.0020046 112.501396,57.9694954 112.44978,57.911975 C112.398164,57.8544546 112.37946,57.7785464 112.399229,57.7068195 C112.588131,57.0779656 112.383875,56.4064704 111.865275,55.9514311 C111.346674,55.4963919 110.594813,55.3289545 109.899797,55.5137248 C109.20478,55.6984951 108.675276,56.2065842 108.515594,56.8419451 C108.476382,56.9639024 108.336955,57.0362254 108.199834,57.0057354 C108.062713,56.9752453 107.976898,56.852838 108.005489,56.728519 C108.223898,55.9387375 108.894555,55.3136659 109.764828,55.0887626 C110.635101,54.8638592 111.572776,55.0732923 112.224639,55.6381705 C112.876502,56.2030486 113.14352,57.0375533 112.925111,57.8273348 C112.892372,57.9325464 112.783649,58.0038736 112.66217,57.999837 Z" id="Path" fill="#F58153" fill-rule="nonzero"></path>
                    <path d="M123.691036,60.999896 C123.608339,61.0021074 123.529267,60.9689412 123.477332,60.9102583 C123.425396,60.8515755 123.406576,60.7741332 123.426467,60.7009568 C123.616539,60.0593941 123.411018,59.3743284 122.889207,58.9100931 C122.367396,58.4458578 121.610879,58.2750366 120.911559,58.463541 C120.21224,58.6520454 119.679457,59.1704026 119.518786,59.8186039 C119.479331,59.9430258 119.339041,60.0168104 119.201071,59.9857042 C119.063101,59.954598 118.976755,59.8297169 119.005523,59.7028854 C119.371188,58.4914253 120.72994,57.7663557 122.068349,58.0684724 C123.406758,58.3705891 124.236954,59.5897657 123.939731,60.8166752 C123.911307,60.9216595 123.809647,60.9965557 123.691036,60.999896 Z" id="Path" fill="#F58153" fill-rule="nonzero"></path>
                    <path d="M137.377895,58.6169847 C139.685729,50.1154306 135.487199,40.1128411 126.201562,38.4694661 C102.135915,34.1941032 105.117587,60.5269228 105.117587,60.5269228 C105.892624,48.997418 109.130996,45.9901712 111.443767,45.8659476 C113.171557,52.0020768 118.196957,57.5740238 123.718481,59.6263016 C120.418402,56.220504 120.613395,52.3281638 120.613395,52.3281638 C123.313684,59.6263016 132.954753,65.9927621 132.954753,65.9927621 C132.954753,65.9927621 135.235436,66.5181245 137.377895,58.6169847 Z" id="Path" fill="#5E2F0D" fill-rule="nonzero"></path>
                    <ellipse id="Oval" fill="#FDC78B" fill-rule="nonzero" transform="translate(133.004607, 65.214162) rotate(-40.150000) translate(-133.004607, -65.214162) " cx="133.004607" cy="65.2141618" rx="4.18073289" ry="2.96778095"></ellipse>
                    <polygon id="Path" fill="#FDC78B" fill-rule="nonzero" points="37 86 48.5369313 92 61 88.5617956 58.8185937 79 51.4027969 82.8676642 37 79"></polygon>
                    <polygon id="Path" fill="#418FE6" fill-rule="nonzero" points="71.7025888 73 56 79.5042631 59.0857917 89 74 85.1193666"></polygon>
                    <path d="M77.4024085,121 L77.4024085,134.5 C77.4024085,134.5 82.1016056,134.5 91.5,134.5 C98.5,134.5 103.5,134.5 106.5,134.5 L108,121 L77.4024085,121 Z" id="Path" fill="#2A404B" fill-rule="nonzero"></path>
                    <path d="M75,121.370023 L75,118.629977 C75,118.283372 75.2243697,118 75.5042017,118 L107.495798,118 C107.773109,118 108,118.283372 108,118.629977 L108,121.370023 C108,121.716628 107.77563,122 107.495798,122 L75.4991597,122 C75.2243697,121.997658 75,121.714286 75,121.370023 Z" id="Path" fill="#704815" fill-rule="nonzero"></path>
                    <path d="M107.495875,121.5 L75.5041247,121.5 C75.2293767,121.5 75,121.276952 75,121 L75,121.5 C75,121.775093 75.2243355,122 75.5041247,122 L107.495875,122 C107.773144,122 108,121.775093 108,121.5 L108,121.007435 C107.997479,121.282528 107.773144,121.5 107.495875,121.5 Z" id="Path" fill="#4E3107" fill-rule="nonzero"></path>
                    <path d="M86.401479,70.390153 L86,69.8368417 L86,65 L97,65 L97,69.8288994 L96.5958969,70.3875056 C95.4075176,72.0288819 93.5140483,72.9994766 91.4993542,72.9999998 C89.48466,73.000523 87.5906957,72.0309119 86.401479,70.390153 Z" id="Path" fill="#FBB87B" fill-rule="nonzero"></path>
                    <path d="M95.1278918,118 L90.8721082,118 C90.3914771,117.999998 90.0014433,118.384862 90,118.86055 L90,122.13945 C90.0014433,122.615138 90.3914771,123.000002 90.8721082,123 L95.1278918,123 C95.6085229,123.000002 95.9985567,122.615138 96,122.13945 L96,118.86055 C95.9985567,118.384862 95.6085229,117.999998 95.1278918,118 L95.1278918,118 Z M95.5312091,122.017626 C95.5213297,122.296822 95.2896902,122.518056 95.0074203,122.517885 L91.0056744,122.517885 C90.7234045,122.518056 90.491765,122.296822 90.4818856,122.017626 L90.4818856,119.047175 C90.491765,118.767978 90.7234045,118.546744 91.0056744,118.546916 L94.9969446,118.546916 C95.2792144,118.546744 95.5108539,118.767978 95.5207333,119.047175 L95.5312091,122.017626 Z" id="Shape" fill="#D4A33F" fill-rule="nonzero"></path>
                    <path d="M95.4802495,118 L91.5197505,118 C91.2327002,118 91,118.351149 91,118.784314 L91,119 C91,118.566835 91.2327002,118.215686 91.5197505,118.215686 L95.4802495,118.215686 C95.7672998,118.215686 96,118.566835 96,119 L96,118.784314 C96,118.351149 95.7672998,118 95.4802495,118 Z" id="Path" fill="#AF8832" fill-rule="nonzero"></path>
                    <path d="M95.1278918,122.857881 L90.8721082,122.857881 C90.3914771,122.857883 90.0014433,122.474212 90,122 L90,122.142119 C90.0014433,122.616331 90.3914771,123.000002 90.8721082,123 L95.1278918,123 C95.6085229,123.000002 95.9985567,122.616331 96,122.142119 L96,122 C95.9985567,122.474212 95.6085229,122.857883 95.1278918,122.857881 L95.1278918,122.857881 Z" id="Path" fill="#AF8832" fill-rule="nonzero"></path>
                    <path d="M96.8384622,122 L94.2743699,122 C94.1228462,122 94.000012,121.777184 94.000012,121.502326 L94.000012,121.502326 C93.9993278,121.36953 94.0279309,121.241746 94.0794574,121.147406 C94.1309838,121.053066 94.2011592,120.999994 94.2743699,121 L96.8384622,121 C96.9276771,121 97,121.131191 97,121.293023 L97,121.706977 C97,121.868809 96.9276771,122 96.8384622,122 Z" id="Path" fill="#D4A33F" fill-rule="nonzero"></path>
                    <path d="M96.820584,120.04716 L94.2575433,120.04716 C94.1331403,120.042066 94.0278929,119.95645 94.0012393,119.838663 C93.9995869,119.857659 93.9995869,119.876756 94.0012393,119.895752 C94.0012393,120.04243 94.1240231,120.161337 94.2754846,120.161337 L96.8385253,120.161337 C96.9277036,120.161337 96.9999969,120.091326 96.9999969,120.004964 L96.9999969,119.890788 C97.0002826,119.935454 96.9808306,119.978106 96.9465472,120.007987 C96.9122638,120.037867 96.8664219,120.052124 96.820584,120.04716 Z" id="Path" fill="#AF8832" fill-rule="nonzero"></path>
                    <path d="M104.171419,37.2825366 C103.461127,33.9256325 100.227876,31.6518583 96.722192,32.0438896 L89.8791777,32.8197083 L83.031026,33.583054 C79.5281141,33.9722797 76.9115557,36.8955417 77.0022893,40.3184573 C77.1512739,46.1383448 77.9347271,54.2881828 80.2105944,60.4573134 C83.5165101,69.4153999 92.1036711,68.0059543 94.0147832,67.7939139 C95.9258953,67.5818734 104.618373,67.0629979 105.746032,57.6084872 C106.521779,51.0975973 105.383845,42.9851782 104.171419,37.2825366 Z" id="Path" fill="#FDC78B" fill-rule="nonzero"></path>
                    <path d="M99.2569537,49 C99.1236485,48.992583 99.0172069,48.8852343 99.0098526,48.7507931 C98.8883879,47.3620313 99.9040374,46.1359862 101.280711,46.0095175 C102.65686,45.8898354 103.87083,46.9126952 103.998823,48.2997287 C104.007651,48.3932134 103.966356,48.4843467 103.890495,48.5387995 C103.814633,48.5932524 103.715728,48.6027521 103.631038,48.5637202 C103.546348,48.5246883 103.488739,48.4430548 103.479911,48.3495701 C103.381652,47.2485048 102.416951,46.4362482 101.32519,46.535344 C100.233428,46.6344399 99.4280353,47.6073627 99.5262938,48.708428 C99.5324205,48.7797554 99.5095775,48.8505361 99.4629956,48.9045618 C99.4164138,48.9585874 99.3500831,48.9912305 99.2791928,48.9950159 L99.2569537,49 Z" id="Path" fill="#F58153" fill-rule="nonzero"></path>
                    <path d="M88.2692233,50.9999998 C88.1308608,51.000158 88.0168082,50.8906757 88.0102195,50.7513749 C87.9295835,49.8533528 88.3303952,48.9801865 89.0616726,48.4607893 C89.7929501,47.9413921 90.7435949,47.8546727 91.5555083,48.2332975 C92.3674217,48.6119223 92.9172549,49.3983692 92.9978908,50.2963913 C93.0100119,50.3921052 92.9692681,50.4868434 92.8916773,50.5433613 C92.8140864,50.5998792 92.7120551,50.6091397 92.6256951,50.5675021 C92.5393351,50.5258646 92.4824552,50.4399868 92.4774167,50.34363 C92.4135249,49.633029 91.9783657,49.0107626 91.3358596,48.7112325 C90.6933534,48.4117025 89.9411122,48.4804146 89.362498,48.8914856 C88.7838837,49.3025566 88.4668017,49.9935351 88.5306937,50.7041362 C88.5361142,50.77514 88.5130644,50.8453699 88.4667028,50.8991082 C88.4203413,50.9528464 88.3545392,50.9856059 88.2840235,50.9900548 L88.2692233,50.9999998 Z" id="Path" fill="#F58153" fill-rule="nonzero"></path>
                    <path d="M101.595188,33.2473436 C102.445955,32.7240472 103.705745,33.0896378 104.360181,33.7969242 C105.014617,34.5042106 105.213675,35.4480557 105.366377,36.3488901 C105.976906,40.2081706 106.146809,44.1111776 105.873565,48 C105.355469,44.7216319 104.782838,41.4313164 104.272923,38.1505588 C104.193845,37.6559362 104.272923,37.0800713 103.817544,36.7694387 C102.770446,36.0525944 100.886216,37.2114927 100,36.3297742" id="Path" fill="#D4691B" fill-rule="nonzero"></path>
                    <path d="M86,40.081622 C85.8276631,39.900397 82.3596784,41.9677931 82.2227533,43.5535121 C82.1472083,44.4262537 82.6949091,50.1610722 83.2733,53.5471188 C82.5650662,53.5852715 77.7325512,55.4261363 76.932247,51.4010329 C76.3090013,48.2582093 75.4189875,43.5320512 75.0577883,40.3367678 C74.1984647,32.7610845 83.1859512,34.1751167 84.5386777,34.0058143" id="Path" fill="#D4691B" fill-rule="nonzero"></path>
                    <path d="M83.2195848,26.0787058 C84.7138443,25.471331 86.2915636,25.0812427 87.9021904,24.9209399 C91.3747122,24.5486292 94.8866664,24.4549511 98.3000395,23.7199379 C101.713413,22.9849246 105.107069,21.5581343 107.3005,19 C107.861902,21.0088693 107.870402,23.1264331 107.325146,25.1395222 C108.047814,24.952591 108.644338,24.4560234 108.946806,23.789596 C109.035517,24.8867815 109.013229,25.9898128 108.880264,27.0827435 C108.780937,27.9633585 108.58343,28.8307997 108.291241,29.6697018 C107.078693,33.0325074 103.936418,35.6194657 100.419535,37.0438541 C96.9026514,38.4682425 93.0259468,38.8669751 89.2059264,38.9822713 C87.6434149,39.0279094 86.0488644,39.0158994 84.5726114,38.5667246 C77.684252,36.4793831 79.7298113,27.5343202 83.2195848,26.0787058 Z" id="Path" fill="#D4691B" fill-rule="nonzero"></path>
                    <path d="M80,32.8084441 C79.5691386,32.2443806 79.222564,31.6368919 78.9682759,31 C78.9528951,31.4722308 79.0010233,31.9444097 79.1117241,32.4073495 C78.7167957,32.255443 78.2752507,32.2143671 77.8510345,32.2900704 C77.1076716,32.3502681 76.3798697,32.5085369 75.6937931,32.7591869 C75.0031874,33.0122758 74.4145066,33.4312944 74,33.9648163 C75.2320551,33.3056346 76.8034775,33.3193903 78.0193103,34" id="Path" fill="#D4691B" fill-rule="nonzero"></path>
                    <ellipse id="Oval" fill="#FDC78B" fill-rule="nonzero" transform="translate(79.921003, 53.095827) rotate(-30.450000) translate(-79.921003, -53.095827) " cx="79.9210027" cy="53.0958266" rx="2.42630844" ry="3.36764149"></ellipse>
                    <path d="M93,58.2909282 C93.4988587,61.2554166 96.1718871,63.3054861 99.0912431,62.9625853 C102.010599,62.6196845 104.160581,60.0031151 103.990579,57 L93,58.2909282 Z" id="Path" fill="#FFFFFF" fill-rule="nonzero"></path>
                    <polygon id="Path" fill="#D4691B" fill-rule="nonzero" points="90.8220025 45.6892139 85.3708282 47 85 46.0703839 91 44"></polygon>
                    <polygon id="Path" fill="#D4691B" fill-rule="nonzero" points="99.4118343 44 104.83432 43.9449225 105 43.3166954 99 43"></polygon>
                    <path d="M127.538236,84.0242107 L110,103.865532 L111.666425,110 L132.244486,91.10584 C133.457155,89.6000514 134.076464,87.7291351 133.99245,85.8252904 L133.737644,80 L132.718424,80.2821855 C130.578938,80.8858607 128.738788,82.2151343 127.538236,84.0242107 Z" id="Path" fill="#D14233" fill-rule="nonzero"></path>
                    <polygon id="Path" fill="#B93A2B" fill-rule="nonzero" points="109.00725 104 105 105.336671 107.278206 112 111 111.013767"></polygon>
                    <polygon id="Path" fill="#FDC78B" fill-rule="nonzero" points="83 114.534516 84.2757581 118 109 110.901716 107.205123 105"></polygon>
                    <polygon id="Path" fill="#FDC78B" fill-rule="nonzero" points="84.229179 114.695809 81.7598937 114 77.0206734 115.497832 76.2046663 116.345376 76 118.291908 76.765505 120 85 117.754335"></polygon>
                    <polygon id="Path" fill="#FDC78B" fill-rule="nonzero" points="82 115.029372 78.074813 114 78 115.558077 80.5735661 117"></polygon>
                    <path d="M55.9999957,11.4927397 C56.0028983,13.9207814 54.5421315,16.1112224 52.2994676,17.0417351 C50.0568037,17.9722478 47.474395,17.459377 45.757509,15.742491 C44.040623,14.025605 43.5277522,11.4431963 44.4582649,9.20053237 C45.3887776,6.95786848 47.5792186,5.49710169 50.0072603,5.50000432 C53.3153172,5.50395896 55.996041,8.18468278 55.9999957,11.4927397 L55.9999957,11.4927397 Z" id="Path" fill="#FF1C46" fill-rule="nonzero"></path>
                    <path d="M50.0404409,12.4994782 C50.6070081,12.4903749 51.1424611,12.2388338 51.5110201,11.8086405 C52.2105374,11.0023297 52.1530019,9.78899387 51.3803225,9.05242594 C50.6076431,8.31585802 49.3923569,8.31585802 48.6196775,9.05242594 C47.8469981,9.78899387 47.7894626,11.0023297 48.4889799,11.8086405 C48.8765004,12.2595684 49.4458659,12.5130966 50.0404409,12.4994782 L50.0404409,12.4994782 Z" id="Path" fill="#FFFFFF" fill-rule="nonzero"></path>
                    <g id="your_account" fill-rule="nonzero">
                        <use fill="#000000" xlink:href="#path-8"></use>
                        <use fill="#4E4E50" xlink:href="#path-8"></use>
                    </g>
                    <path d="M48.9436706,11.5 L51.0563422,11.5 C52.1297947,11.5 53,12.2519437 53,13.1795132 L53,14.5 L47,14.5 L47.0000128,13.1855984 C46.9981406,12.7391104 47.2020915,12.3103547 47.5668012,11.9940675 C47.9315108,11.6777804 48.426958,11.4999971 48.9436706,11.5 Z" id="Path" fill="#FFFFFF" fill-rule="nonzero"></path>
                    <circle id="Oval" fill="#4080FF" fill-rule="nonzero" transform="translate(178.642249, 41.260152) rotate(-25.340000) translate(-178.642249, -41.260152) " cx="178.642249" cy="41.2601521" r="19.44"></circle>
                    <rect id="Rectangle" fill="#FFFFFF" fill-rule="nonzero" transform="translate(169.856326, 41.085384) rotate(-71.000000) translate(-169.856326, -41.085384) " x="164.156326" y="38.5503844" width="11.4" height="5.07"></rect>
                    <path d="M187.84,42.84 C188.436827,42.7038083 188.92091,42.2688898 189.12,41.69 C189.437489,40.7538823 188.936073,39.7376202 188,39.42 L182.84,37.65 C183.439843,36.1934949 183.92466,34.6922354 184.29,33.16 C184.92,30.36 181.66,30.58 181.66,30.58 C182.03,34.39 175.37,38.58 175.37,38.58 L172.37,47.31 L182,50.66 C182.44549,50.815864 182.934779,50.7873522 183.35915,50.5807999 C183.783522,50.3742475 184.107824,50.0067631 184.26,49.56 C184.415311,49.1174606 184.38649,48.6310994 184.18,48.21 C184.840541,48.3370229 185.516269,48.0808489 185.926592,47.5478525 C186.336915,47.0148561 186.411741,46.2960834 186.12,45.69 C186.851089,45.8350226 187.594692,45.5065211 187.979808,44.8683927 C188.364924,44.2302644 188.309025,43.4192564 187.84,42.84 L187.84,42.84 Z" id="Path" fill="#FFFFFF" fill-rule="nonzero"></path>
                    <circle id="Oval" fill="#F25268" fill-rule="nonzero" transform="translate(39.536517, 138.453985) rotate(-2.440000) translate(-39.536517, -138.453985) " cx="39.5365173" cy="138.453985" r="19.44"></circle>
                    <path d="M39.76,150 L49.17,142.09 C50.2355556,141.210827 51.021063,140.039517 51.43,138.72 C53.08,133.19 47.98,127.4 42.12,129.82 C40.9752228,130.460411 40.0407977,131.419152 39.43,132.58 C38.7667755,131.473748 37.8026009,130.578939 36.65,130 C30.7,127.8 25.82,133.78 27.65,139.24 C28.1035564,140.549005 28.9353269,141.693995 30.04,142.53 L39.76,150 Z" id="Path" fill="#FFFFFF" fill-rule="nonzero"></path>
                    <path d="M95,47 C95.5335476,47.7038549 96.0566336,48.4294785 96.5692578,49.1768707 C97.0923437,49.8952381 97.5578901,50.629932 98.0391292,51.3537415 L97.7932788,51.2394558 C98.6929866,51.0816327 99.5926944,50.9346939 100.497633,50.7931973 L100.696406,50.7659864 L100.764407,50.9455782 C100.924831,51.398442 101.004596,51.8779286 100.999795,52.3605442 C100.996358,52.8487957 100.86036,53.3260959 100.607481,53.737415 C100.350236,54.1389316 99.9869356,54.4545422 99.5613092,54.6462585 C99.3615153,54.7403116 99.1551819,54.8185384 98.9440678,54.8802721 C98.7296026,54.9292517 98.5151374,54.9619048 98.3006722,55 L98.9074518,54.7714286 C99.097748,54.6789837 99.2828672,54.5754171 99.4619229,54.4612245 C99.8113255,54.2304181 100.097749,53.9099338 100.29363,53.5306122 C100.476489,53.1613779 100.561357,52.7480739 100.53948,52.3333333 C100.523206,51.9185843 100.438266,51.509867 100.288399,51.1251701 L100.555172,51.277551 C99.6554647,51.4353741 98.750526,51.5823129 97.8508183,51.7238095 L97.6886616,51.7238095 L97.6049679,51.5877551 C97.1446523,50.8331066 96.6982856,50.0712018 96.2658679,49.3020408 C95.8317066,48.5619048 95.4027762,47.7836735 95,47 Z" id="Path" fill="#D4691B" fill-rule="nonzero"></path>
                </g>
                <g id="inst" transform="translate(32.000000, 0.000000)">
                    <g id="Group" transform="translate(12.000000, 151.500000)"></g>
                    <g id="Group" transform="translate(12.000000, 172.500000)"></g>
                    <g id="para" transform="translate(5.000000, 19.000000)"></g>
                </g>
                <g id="like" transform="translate(152.000000, 15.000000)"></g>
                <g id="heart" transform="translate(11.000000, 119.000000)"></g>
            </g>
        </g>
    </g>
</svg>