<?xml version="1.0" encoding="UTF-8"?>
<svg width="367px" height="526px" viewBox="0 0 367 526" version="1.1" xmlns="http://www.w3.org/2000/svg" xmlns:xlink="http://www.w3.org/1999/xlink">
    <!-- Generator: Sketch 53 (72520) - https://sketchapp.com -->
    <title>woman_paid</title>
    <desc>Created with Sketch.</desc>
    <g id="Page-1" stroke="none" stroke-width="1" fill="none" fill-rule="evenodd">
        <g id="Landing-page-—-Secondary-colors" transform="translate(-868.000000, -2918.000000)">
            <g id="woman_paid" transform="translate(868.000000, 2918.000000)">
                <path d="M125,313 L83,235" id="Path" stroke="#000000" stroke-width="0.5" stroke-linecap="round"></path>
                <path d="M280.838057,356.293918 L229.461066,403.39779 C229.461066,403.39779 157.838057,316.460294 157.838057,316.460294 L269.413726,291 L280.838057,356.293918 Z" id="Path" fill="#E37965" fill-rule="nonzero"></path>
                <path d="M243.062958,115.816118 C243.062958,115.816118 276.540787,95.9798522 289.137862,115.816118 C301.734937,135.652384 338.153718,228.099179 342.173018,256.016887 C346.192318,283.934595 334.477529,346.504545 330.262165,363.953112 C326.046801,381.401679 318.890487,360.953183 318.890487,360.953183 C318.890487,360.953183 318.400328,276.587829 316.978868,269.608402 C308.802364,247.590638 299.604435,226.187435 289.431957,205.507876 C285.657736,197.671327 276.540787,182.732904 276.540787,182.732904 C272.742553,202.218247 268.09547,221.430055 262.620284,240.282565 C257.032477,256.016887 269.580536,281.240781 272.423455,293.485389 C275.266375,305.729998 250.072225,337.933319 229.142455,339.708787 C208.212685,341.484255 169,320.545974 169,320.545974 C174.59241,313.260261 177.474143,303.372973 176.940569,293.30172 C174.293712,250.812928 162.235812,173.120887 180.126599,161.794624 C205.369765,146.121525 243.062958,115.816118 243.062958,115.816118 Z" id="Path" fill="#000000" fill-rule="nonzero"></path>
                <path d="M321.999409,190 C331.895883,216.302801 340.172486,242.396507 342.102298,255.036297 C346.357782,282.422508 334.333566,356.214804 330.078082,373.368805 C325.822598,390.522805 314.293206,373.970699 314.293206,373.970699 C314.293206,373.970699 314.293206,278.149055 312.808735,271.287455 C311.967535,267.014002 299.550097,231.63229 290,206.051763 C306.576594,208.158395 314.626536,199.509937 321.999409,190 Z" id="Path" fill="#FFD3B2" fill-rule="nonzero"></path>
                <path d="M167.928401,159.82183 C176.211615,155.674157 185.643596,150.428571 194.954654,145 C202.633254,148.110754 208.800318,151.099518 208.800318,151.099518 L214,203.494382 C214,203.494382 211.158313,286.813804 205.414479,335 C187.863547,330.781047 170.693123,325.088655 154.082737,317.982343 C158.976071,307.397068 160.313395,295.490463 157.891806,284.069021 C154.082737,263.879615 138,238.322632 138,218.194222 C138.060461,182.756019 153.3572,167.202247 167.928401,159.82183 Z" id="Path" fill="#000000" fill-rule="nonzero"></path>
                <path d="M314.683345,395.845597 C319.824717,398.492793 320.960424,411.521938 324.898449,406.652043 C328.836473,401.782147 332.25935,386.116599 330.547911,372.152043 C328.836473,358.187486 324.868656,358.187486 319.888345,363.344271 C313.313545,370.152043 309.000515,371.79773 309.000515,381.152043 C308.980152,388.039068 309.541973,393.198401 314.683345,395.845597 Z" id="Path" fill="#FFD3B2" fill-rule="nonzero"></path>
                <path d="M275.806604,310 C275.806604,310 300.137317,519 295.425288,519 C290.713259,519 258.401107,519 235.884148,519 C213.367189,519 212,404.135736 212,404.135736 L275.806604,310 Z" id="Path" fill="#FFD3B2" fill-rule="nonzero"></path>
                <path d="M232.425121,76 L240,131.959985 L240,131.959985 C234.676851,144.550219 222.418544,152.493069 209.108696,151.976206 L202.835749,151.976206 L191,93.0870182 L232.425121,76 Z" id="Path" fill="#EEBCC5" fill-rule="nonzero"></path>
                <path d="M292.7695,355 C288.895,355 361.957,407.720307 361.957,407.720307 L367,480.609195 L332.068,499 L250.642,439.35249 L244,364.685824 L292.7695,355 Z" id="Path" fill="#000000" fill-rule="nonzero"></path>
                <polygon id="Path" fill="#353535" fill-rule="nonzero" points="364 408.663496 332.562044 422.19679 333.669447 459 249.014599 399.661712 246 365.61415 294.787278 356"></polygon>
                <path d="M272.423455,293.485389 L312,459.320486 C312,459.320486 268.910891,518.660385 221.962196,525.106445 C175.013501,531.552505 120,501.009024 120,501.009024 L154,317.887014 L186.246625,329.676361 C211.765977,339.194842 240.108011,315.458882 262.343834,299.554584 L272.423455,293.485389 Z" id="Path" fill="#222222" fill-rule="nonzero"></path>
                <path d="M271,103 C271,103 298.121387,111.222222 309.26474,236.321811 C320.408092,361.421399 322,399 322,399" id="Path" stroke="#000000"></path>
                <path d="M64.509721,120 C64.509721,120 75.2170566,129.229078 75.2170566,132.689982 C75.2170566,136.150886 93,240.706625 93,240.706625 L81.1029604,268.272423 C81.1029604,268.272423 53.8650014,286.487709 51.4855935,257.950428 C49.1061855,229.413148 56.2444093,130.44343 56.2444093,130.44343 L64.509721,120 Z" id="Path" fill="#FFD3B2" fill-rule="nonzero"></path>
                <path d="M55.9389027,131.612896 C55.9389027,145.167692 80.4431835,132.47512 80.824146,123.417429 C81.1960991,114.573942 80.1156041,110.312797 77.6238265,104.332325 C77.5634714,104.187467 77.1344959,104.479816 77.0729277,104.332325 C74.4220662,97.9819911 74.8813464,98.0907966 68,98.1160032 C63.4971051,98.1159728 58.7017809,98.8493384 55.5236009,102.039212 C52.345421,105.229086 51.9081542,104.515461 51.924709,109.018339 C51.9412637,113.521217 55.9389027,118.058101 55.9389027,131.612896 Z" id="Path" fill="#FFD3B2" fill-rule="nonzero"></path>
                <polygon id="Path" fill="#010101" fill-rule="nonzero" points="55.7438345 265.183206 141.748608 315.015267 154 457.122137 103.217979 489 0 423.656489 7.35083532 270.923664 27.0143198 274.954198 40.9809069 257"></polygon>
                <polygon id="Path" fill="#434343" fill-rule="nonzero" points="103.349555 329.588631 9.33531157 271 2 425.08009 105 491"></polygon>
                <polygon id="Path" fill="#353434" fill-rule="nonzero" points="142.084112 315 127.725467 343.582661 103 328.98596 104.608645 489 154 457.11934"></polygon>
                <polygon id="Path" fill="#2D2D2D" fill-rule="nonzero" points="154 456.853372 128.761158 447 105 489"></polygon>
                <path d="M156,208.633154 C156,208.633154 104.193874,250.578998 94.1747644,260.648472 C81.9563383,272.632998 63.2010544,276.957312 58.313684,271.953463 C53.4263136,266.949615 50.1273386,255.397519 56.6031044,248.849273 C61.5515669,243.845424 102,190.847957 102,190.847957 L156,208.633154 Z" id="Path" fill="#FFD3B2" fill-rule="nonzero"></path>
                <circle id="Oval" fill="#FFD3B2" fill-rule="nonzero" cx="201.5" cy="60.5" r="52.5"></circle>
                <path d="M171.562972,219.120922 C223.457525,221.39303 236.976784,197.44379 236.976784,197.44379 C237.306889,174.92902 234.114882,152.503341 227.519365,131 L189.204695,146.413485 C189.204695,146.413485 172.654213,152.001641 163.803039,154.273749 C163.803039,154.273749 127.428352,157.651206 117.607186,171.713708 L102.08732,190.136201 C102.08732,190.136201 98.8742226,227.963719 131.429567,226.981186 L171.562972,219.120922 Z" id="Path" fill="#000000" fill-rule="nonzero"></path>
                <path d="M168.599982,75.9398845 C168.838323,72.0895648 171.002803,68.6521379 174.300957,66.8861206 C177.599111,65.1201033 181.546561,65.2848602 184.698057,67.3200703 C188.783439,71.1856998 190.240495,77.2231618 188.394652,82.6372942 C186.493061,87.883063 183.61611,92.6876031 179.928257,96.7762701 C196.063892,108.019848 213.464439,117.162676 231.74021,124 L254.575627,89.6447691 C258.267535,84.6466628 261.147646,79.0535003 263.101645,73.0872841 C265.903854,55.9014751 262.091601,38.2589861 252.48884,23.9729468 C240.157829,9.33975558 222.536255,0.692302911 203.83688,0.0979216482 C188.871632,-1.1423394 170.806015,9.58591864 161.14717,21.6784638 C148.387955,37.6158182 162.637732,58.8242821 168.599982,75.9398845 Z" id="Path" fill="#222222" fill-rule="nonzero"></path>
                <path d="M277.990195,141.187887 C275.112899,151.722215 266.236132,160.541652 265.74638,171.443457 C266.104857,176.440514 266.883045,181.398527 268.072705,186.265011 C270.738974,200.0381 265.334196,214.128198 254.142427,222.58083 C242.950659,231.033462 227.924915,232.373606 215.415074,226.034918 C202.905234,219.69623 195.094319,206.784838 195.283223,192.757097 C195.723382,188.624631 195.263915,184.445815 193.936403,180.507879 C192.099831,176.588129 187.814495,174.383269 185.426951,170.953488 C175.019708,158.70427 185.733047,139.350504 182.672093,123.365274 C181.508931,117.240665 175.325804,108.176243 176.060433,101.990388 C177.407252,91.6397983 190.997887,90.782353 195.344442,82.3303922 C202.323417,68.8562519 194.609813,57.8319552 196.14029,44.1128305 C196.579065,35.4193813 201.106026,27.4470665 208.345433,22.6186648 C215.584841,17.7902632 224.681794,16.675961 232.871736,19.6143935 C250.598696,26.0403085 264.019637,40.7961107 268.746115,59.0568771 C272.051945,71.6735721 269.786839,85.1477125 271.868288,98.0093919 C274.317051,112.7697 281.66334,126.733809 277.990195,141.187887 Z" id="Path" fill="#222222" fill-rule="nonzero"></path>
                <path d="M70,232 L90,345" id="Path" stroke="#000000" stroke-width="0.5" stroke-linecap="round"></path>
                <path d="M68,234 L26,312" id="Path" stroke="#000000" stroke-width="0.5" stroke-linecap="round"></path>
                <path d="M102.793695,136.629285 L98.2790698,132.544467 C92.5736434,120.381678 77.1937984,87.7176924 76.2635659,85.8368487 C75.548981,84.4178292 74.2174006,83.4198097 72.6666667,83.1409728 L49.1627907,80.0062333 L47.6744186,78 L46.248062,80.0062333 C45.6899225,80.5704864 46.248062,81.6989926 46.248062,81.6989926 L70.4341085,132.983331 C70.8121831,133.574778 71.3218905,134.068598 71.9224806,134.425311 C72.5901027,134.952209 73.3800383,135.297544 74.2170543,135.428428 L96.9767442,138.500472 C99.8050927,139.068675 101.346186,139.227121 101.600025,138.975811 C101.853863,138.724501 102.251754,137.942325 102.793695,136.629285 Z" id="Path" fill="#000000" fill-rule="nonzero"></path>
                <path d="M48.6833333,79.785 C48.6833333,79.785 48.4433333,79.245 48.6833333,78.975 L49.3733333,78.015 L50.2433333,78.945 L50.4233333,78.945 L49.8833333,79.935 L49.1333333,80.985 L48.6833333,79.785 Z" id="Path" fill="#2D2D70" fill-rule="nonzero"></path>
                <path d="M98.7135376,136.659515 L75.4938658,133.606489 C73.9120384,133.338699 72.5534346,132.344074 71.8342436,130.927302 L47.2264392,80.022765 C47.2264392,80.022765 46.1537913,77.7174187 48.6776687,78.028952 L74.4843148,81.3935114 C76.0661422,81.6613005 77.424746,82.6559258 78.143937,84.0726976 L102.751741,134.977235 C102.751741,134.977235 103.887486,137.282581 101.300512,136.971048 L98.7135376,136.659515 Z" id="Path" fill="#404040" fill-rule="nonzero"></path>
                <polygon id="Path" fill="#FFFFFF" fill-rule="nonzero" points="98 125 78.6786156 84.8964578 49 81 68.3213844 121.103542"></polygon>
                <path d="M83.255,129.603577 C82.985,129.963577 83.255,130.683577 84.005,131.163577 C84.755,131.643577 85.475,131.763577 85.745,131.403577 C86.015,131.043577 85.745,130.323577 84.995,129.813577 C84.245,129.303577 83.465,129.273577 83.255,129.603577 Z" id="Path" fill="#8F8F8F" fill-rule="nonzero"></path>
                <path d="M67.27875,82.3419333 C67.27875,82.3419333 67.27875,82.5819333 67.27875,82.7019333 C67.27875,82.8219333 67.63875,82.7019333 67.69875,82.7019333 C67.75875,82.7019333 67.69875,82.4319333 67.51875,82.3119333 C67.33875,82.1919333 67.33875,82.2519333 67.27875,82.3419333 Z" id="Path" fill="#0F0F49" fill-rule="nonzero"></path>
                <path d="M64.37,82.3714667 C64.37,82.3714667 64.37,82.3714667 64.37,82.5514667 C64.37,82.7314667 64.37,82.5514667 64.55,82.5514667 C64.73,82.5514667 64.55,82.5514667 64.55,82.5514667 C64.55,82.5514667 64.37,82.3414667 64.37,82.3714667 Z" id="Path" fill="#0F0F49" fill-rule="nonzero"></path>
                <path d="M58.18,82.26 C58.18,82.26 58.18,82.26 58.18,82.26 C58.2202657,82.3478555 58.2970198,82.4136447 58.39,82.44 L60.82,82.74 C60.82,82.74 60.82,82.74 60.82,82.74 C60.7690506,82.6676176 60.694994,82.61472 60.61,82.59 L58.18,82.26 Z" id="Path" fill="#0F0F49" fill-rule="nonzero" opacity="0.5"></path>
                <path d="M55.5236009,102.039212 C57.8171394,98.3571621 59.5826057,95.676239 60.82,93.996443 C62.6760914,91.476749 65.3910571,97.6775148 63.3711929,100.245049 C61.3513288,102.812584 61.2167069,103.140293 60.4394255,105.033495 C59.6621441,106.926697 59.5,108.586014 59.5,110.075524 C59.5,111.068531 58.1745336,108.389761 55.5236009,102.039212 Z" id="Path-3" fill="#FFD3B2"></path>
                <path d="M149.603858,67.2223884 C149.755787,73.5664582 149.320539,77.9171873 148.298114,80.2745757 C146.764475,83.8106582 154.488738,83.4174115 155.470162,85.6444809 C156.124445,87.1291938 154.16901,80.9884963 149.603858,67.2223884 Z" id="Path-4" fill="#FFD3B2"></path>
            </g>
        </g>
    </g>
</svg>