<svg width="104" height="104" xmlns="http://www.w3.org/2000/svg" xmlns:xlink="http://www.w3.org/1999/xlink"><defs><circle id="b" cx="29" cy="29" r="29"/><filter x="-63.8%" y="-60.3%" width="227.6%" height="227.6%" filterUnits="objectBoundingBox" id="a"><feOffset dy="2" in="SourceAlpha" result="shadowOffsetOuter1"/><feGaussianBlur stdDeviation="12" in="shadowOffsetOuter1" result="shadowBlurOuter1"/><feColorMatrix values="0 0 0 0 0 0 0 0 0 0 0 0 0 0 0 0 0 0 0.1 0" in="shadowBlurOuter1"/></filter></defs><g fill="none" fill-rule="evenodd"><g transform="translate(23 21)"><use fill="#000" filter="url(#a)" xlink:href="#b"/><use fill="#FFF" xlink:href="#b"/></g><path d="M64 45.858C64 42.071 61.098 39 57.519 39c-2.338 0-4.379 1.314-5.52 3.277C50.86 40.314 48.819 39 46.48 39 42.9 39 40 42.07 40 45.858c0 2.063.864 3.908 2.225 5.164l9.183 9.719c.157.166.37.259.592.259a.814.814 0 0 0 .591-.26l9.184-9.718C63.136 49.766 64 47.92 64 45.858z" fill="#FCB8CD" fill-rule="nonzero"/></g></svg>