<svg width="104" height="104" xmlns="http://www.w3.org/2000/svg" xmlns:xlink="http://www.w3.org/1999/xlink"><defs><circle id="b" cx="29" cy="29" r="29"/><filter x="-63.8%" y="-60.3%" width="227.6%" height="227.6%" filterUnits="objectBoundingBox" id="a"><feOffset dy="2" in="SourceAlpha" result="shadowOffsetOuter1"/><feGaussianBlur stdDeviation="12" in="shadowOffsetOuter1" result="shadowBlurOuter1"/><feColorMatrix values="0 0 0 0 0 0 0 0 0 0 0 0 0 0 0 0 0 0 0.1 0" in="shadowBlurOuter1"/></filter></defs><g fill="none" fill-rule="evenodd"><g transform="translate(23 21)"><use fill="#000" filter="url(#a)" xlink:href="#b"/><use fill="#FFF" xlink:href="#b"/></g><g fill="#B5DCFF" fill-rule="nonzero"><path d="M60.929 54.312a2.695 2.695 0 0 0 1.223-1.54c.2-.612.145-1.215-.16-1.809-.307-.594-.77-.991-1.387-1.192l-3.293-1.07c.067-.1.13-.183.187-.251a2.06 2.06 0 0 1 .214-.217 10.188 10.188 0 0 0 .729-.726c.131-.147.283-.358.455-.632.172-.273.307-.56.404-.857.06-.188.108-.342.143-.46.034-.12.071-.303.112-.55.04-.247.057-.458.049-.634a2.872 2.872 0 0 0-.114-.622 1.743 1.743 0 0 0-.32-.631 2.754 2.754 0 0 0-.614-.538 3.77 3.77 0 0 0-.941-.442.773.773 0 0 0-.608.05c-.21.105-.408.257-.595.456-.188.2-.331.378-.431.537-.1.158-.227.381-.382.67a30.83 30.83 0 0 1-.392.659 3.93 3.93 0 0 1-.393.503c-.18.201-.363.35-.552.445-.346.173-.899.514-1.66 1.021-.551.376-1.105.72-1.663 1.033-.557.314-.933.447-1.129.401a.823.823 0 0 0-.59.075.742.742 0 0 0-.38.442l-2.45 7.541a.737.737 0 0 0 .056.597.83.83 0 0 0 .46.403c.275.098.845.474 1.71 1.129.545.401.972.712 1.282.93.31.217.755.487 1.333.81.58.322 1.13.569 1.653.739l.202.065.903.294.428.139c1.06.327 1.94.274 2.64-.157.636-.392 1.06-1.038 1.275-1.94a2.4 2.4 0 0 0 1.001-.897c.29-.435.439-.893.447-1.376.52-.36.865-.842 1.035-1.446.082-.25.12-.568.113-.952zM47.228 47.177l-3.95-1.283a.997.997 0 0 0-.687.01c-.22.086-.36.225-.424.418l-2.317 7.133c-.063.193-.03.388.097.586a1 1 0 0 0 .55.412l3.95 1.284a.999.999 0 0 0 .686-.011c.22-.085.36-.224.423-.417l2.318-7.133c.063-.193.03-.389-.098-.586a.997.997 0 0 0-.548-.413zM43.4 53.591a1.015 1.015 0 0 1-.685.006 1.007 1.007 0 0 1-.557-.409.663.663 0 0 1-.089-.59c.063-.193.202-.332.417-.418a.99.99 0 0 1 .693-.01c.238.078.42.215.548.413.128.197.16.393.098.586a.656.656 0 0 1-.425.422z"/></g></g></svg>