<svg height="32" viewBox="0 0 32 32" width="32" xmlns="http://www.w3.org/2000/svg"><path d="m16.206 3.564c7.535-3.012 8.228 3.122 8.228 3.122 5.934 0 7.719 3.969 7.222 8.749-.009.085-.07.155-.157.162-.089.008-.172-.047-.187-.132-1.104-6.595-5.417-6.821-5.867-6.827h-.038c4.084 2.011 3.88 5.371 2.319 8.264-.063.115-.171.185-.297.157-.126-.027-.01-.374 0-.5.321-3.966-2.23-6.411-4.343-6.821-3.767 4.381-6.866 13.318-6.636 18.658 4.506 1.242-2.048.497-3.942.87-1.895.372-6.441.372-3.03-.87-.26-3.488-1.49-9.465-3.799-12.483-1.23-1.145-2.605 3.814-2.609 3.819-.045.243-.217-.215-.225-.343-.179-2.685.229-3.792.736-4.279-1.251.325-2.237.445-2.909 4.189-.011.06-.064.102-.126.099-.06-.002-.11-.047-.116-.108-.26-2.542-.328-5.699 4.209-5.699 0 0 .624-3.605 4.903-2.213.058.021.087.085.071.141-.016.059-.144.006-.206 0-1.48-.141-2.97.254-3.269 1.382 0 0 3.393-2.908 7.693 1.867.635-7.673 6.274-7.585 6.637-7.572l.019.002c-2.449-1.68-5.993-.065-7.979 1.226-.072.046-.168.034-.227-.03-.058-.063-.041-.148-.001-.222 3.011-5.653 9.783-2.554 10.212-2.352l.02.01c-1.047-1.646-2.933-2.381-6.217-1.944-.086.012-.167-.041-.191-.123-.021-.081.023-.168.102-.199zm5.259 6.075c-4.53-1.213-7.673 5.456-7.685 5.356-1.419-.915-4.465-2.427-6.425-.644 0 0 3.004-.043 3.185 2.881.015.25-1.674-1.955-3.546-1.752 1.571 1.606 4.794 6.235 5.557 12.423.027-.001.053-.006.08-.008 2.05-9.211 6.814-15.713 8.834-18.256z"/></svg>