<svg viewBox="0 0 32 32" width="32px" height="32px" xmlns="http://www.w3.org/2000/svg">
  <path fill="#3C445A" fill-rule="nonzero" d="M 29.953 24.18 C 30.531 24.18 31 24.649 31 25.227 C 31 25.756 30.607 26.194 30.096 26.264 L 29.953 26.273 L 2.047 26.273 C 1.469 26.273 1 25.805 1 25.227 C 1 24.697 1.393 24.259 1.904 24.19 L 2.047 24.18 L 29.953 24.18 Z M 16 5 C 17.155 5 18.093 5.938 18.093 7.093 C 18.093 7.867 17.673 8.543 17.048 8.906 L 17.047 10.277 C 23.164 10.798 28.013 15.832 28.204 22.079 L 28.204 22.079 L 28.225 23.488 L 3.791 23.488 L 3.791 22.442 C 3.791 16.051 8.701 10.807 14.955 10.277 L 14.952 8.906 C 14.327 8.544 13.907 7.867 13.907 7.093 C 13.907 5.938 14.843 5 16 5 Z M 16 12.326 C 10.86 12.326 6.615 16.16 5.969 21.123 L 5.969 21.123 L 5.937 21.395 L 26.062 21.395 L 26.03 21.118 C 25.396 16.258 21.315 12.496 16.34 12.331 L 16.34 12.331 Z"></path>
</svg>