<svg viewBox="0 0 32 32" width="32px" height="32px" xmlns="http://www.w3.org/2000/svg">
  <path fill-rule="nonzero" d="M 25.817 6.206 L 23.425 6.206 L 24.31 2.144 C 24.413 1.62 24.055 1.116 23.512 1.017 C 22.967 0.919 22.443 1.262 22.34 1.786 L 21.387 6.206 L 15.869 6.206 C 15.433 3.719 13.18 1.819 10.474 1.819 C 7.455 1.819 5 4.181 5 7.086 C 5 9.821 7.178 12.076 9.951 12.33 L 11.303 30.107 C 11.34 30.61 11.776 31 12.301 31 L 24.08 31 C 24.605 31 25.042 30.61 25.079 30.107 L 26.817 7.241 C 26.837 6.974 26.74 6.711 26.552 6.515 C 26.362 6.319 26.095 6.206 25.817 6.206 Z M 24.739 8.136 L 24.249 14.614 C 23.709 14.525 23.292 14.463 23 14.424 C 22.708 14.386 22.272 14.338 21.69 14.278 L 22.888 8.136 L 24.739 8.136 Z M 19.604 14.165 C 18.415 14.284 17.295 14.344 16.245 14.344 C 15.194 14.344 13.798 14.091 12.056 13.588 L 11.883 11.301 L 11.641 8.136 L 20.848 8.136 L 19.604 14.165 Z M 7.005 7.086 C 7.005 5.245 8.56 3.747 10.474 3.747 C 12.07 3.747 13.419 4.791 13.82 6.206 L 10.564 6.206 C 10.285 6.206 10.02 6.319 9.83 6.515 C 9.806 6.539 9.784 6.565 9.764 6.591 C 9.639 6.75 9.569 6.942 9.563 7.141 C 9.561 7.175 9.561 7.209 9.565 7.241 L 9.801 10.363 C 8.209 10.06 7.005 8.706 7.005 7.086 Z M 23.214 29.072 L 13.233 29.072 L 12.203 15.516 C 13.715 16.078 15.089 16.359 16.325 16.359 C 17.743 16.359 20.44 15.978 22.473 16.185 C 23.012 16.24 23.572 16.298 24.152 16.359 L 23.214 29.072 Z" style=""></path>
</svg>