<svg viewBox="0 0 32 32" width="32px" height="32px" xmlns="http://www.w3.org/2000/svg">
  <path d="M 30.33 2 L 30.442 2.005 C 30.475 2.012 30.499 2.017 30.525 2.024 C 30.631 2.05 30.733 2.087 30.819 2.167 C 30.882 2.224 30.932 2.295 30.97 2.375 C 30.974 2.393 30.974 2.419 30.981 2.438 C 30.988 2.471 30.995 2.495 30.995 2.521 C 31.007 2.619 31 2.714 30.965 2.803 C 30.965 2.815 30.97 2.82 30.965 2.834 L 19.205 30.053 C 19.106 30.292 18.857 30.456 18.587 30.46 C 18.31 30.467 18.063 30.316 17.964 30.079 L 13.249 18.871 L 1.399 14.352 C 1.324 14.321 1.249 14.276 1.185 14.219 C 1.129 14.158 1.077 14.094 1.048 14.019 C 1.016 13.945 0.997 13.861 1.001 13.781 C 1.001 13.668 1.048 13.569 1.11 13.473 C 1.124 13.449 1.14 13.43 1.154 13.412 C 1.23 13.322 1.317 13.249 1.43 13.204 L 30.103 2.043 C 30.219 2 30.33 1.993 30.442 2.005 L 30.33 2 Z" style=""></path>
</svg>