<svg height="32" viewBox="0 0 32 32" width="32" xmlns="http://www.w3.org/2000/svg"><path d="m21.575-1.567c.304 0 .558.219.61.508l.01.112v29.117h2.478v1.239h-22.303v-1.239h2.478v-29.117c0-.304.219-.558.508-.61l.112-.01zm-9.097 24.413h-3.457v5.324h3.456zm5.544 0h-3.457v5.324h3.455zm2.521-3.098h-14.043v1.639h14.043zm0-3.28h-14.043v1.641h14.043zm0-3.278h-14.043v1.639h14.043zm0-3.28h-14.043v1.64h14.043zm0-3.278h-14.043v1.639h14.043zm-7.848-6.56h-1.652v4.919h1.652v-1.639h1.653v1.639h1.651v-4.919h-1.651v1.641h-1.653z" fill="#fff" transform="translate(2 2)"/></svg>