<svg viewBox="0 0 32 32" width="32px" height="32px" xmlns="http://www.w3.org/2000/svg">
  <path d="M 15.985 1 C 7.705 1 1 7.72 1 16 C 1 24.28 7.705 31 15.985 31 C 24.28 31 31 24.28 31 16 C 31 7.72 24.28 1 15.985 1 Z M 16 3.5 C 22.906 3.5 28.5 9.094 28.5 16 C 28.5 22.906 22.906 28.499 16 28.499 C 9.094 28.499 3.501 22.906 3.501 16 C 3.501 9.094 9.094 3.5 16 3.5 Z M 17.001 12.25 L 14.751 12.25 L 14.751 24.749 L 17.001 24.749 L 17.001 12.25 Z M 17.001 8.5 L 14.751 8.5 L 14.751 11 L 17.001 11 L 17.001 8.5 Z"></path>
</svg>