<svg viewBox="0 0 32 32" width="32px" height="32px" xmlns="http://www.w3.org/2000/svg">
  <path d="M 21.655 0 C 22.214 0 22.676 0.415 22.748 0.953 L 22.759 1.103 L 22.759 2.575 L 23.126 2.575 C 25.564 2.575 27.54 4.551 27.54 6.989 L 27.54 27.586 C 27.54 30.024 25.564 32 23.126 32 L 8.414 32 C 5.976 32 4 30.024 4 27.586 L 4 6.989 C 4 4.551 5.976 2.575 8.414 2.575 L 8.782 2.575 L 8.782 1.103 C 8.782 0.494 9.276 0 9.885 0 C 10.444 0 10.906 0.415 10.978 0.953 L 10.989 1.103 L 10.989 2.575 L 14.667 2.575 L 14.667 1.103 C 14.667 0.494 15.161 0 15.77 0 C 16.329 0 16.791 0.415 16.863 0.953 L 16.874 1.103 L 16.874 2.575 L 20.552 2.575 L 20.552 1.103 C 20.552 0.494 21.046 0 21.655 0 Z M 14.667 4.782 L 10.989 4.782 C 10.989 5.391 10.494 5.885 9.885 5.885 C 9.326 5.885 8.865 5.47 8.792 4.932 L 8.782 4.782 L 8.414 4.782 C 7.266 4.782 6.325 5.657 6.217 6.777 L 6.207 6.989 L 6.207 27.586 C 6.207 28.734 7.082 29.677 8.202 29.783 L 8.414 29.793 L 23.126 29.793 C 24.274 29.793 25.217 28.918 25.323 27.8 L 25.333 27.586 L 25.333 6.989 C 25.333 5.842 24.458 4.899 23.34 4.792 L 23.126 4.782 L 22.759 4.782 C 22.759 5.391 22.264 5.885 21.655 5.885 C 21.096 5.885 20.636 5.47 20.562 4.932 L 20.552 4.782 L 16.874 4.782 C 16.874 5.391 16.379 5.885 15.77 5.885 C 15.211 5.885 14.751 5.47 14.677 4.932 L 14.667 4.782 Z M 21.655 22.069 C 22.264 22.069 22.759 22.563 22.759 23.172 C 22.759 23.731 22.344 24.193 21.805 24.266 L 21.655 24.276 L 9.885 24.276 C 9.276 24.276 8.782 23.782 8.782 23.172 C 8.782 22.615 9.197 22.153 9.735 22.079 L 9.885 22.069 L 21.655 22.069 Z M 21.655 16.184 C 22.264 16.184 22.759 16.678 22.759 17.287 C 22.759 17.846 22.344 18.308 21.805 18.381 L 21.655 18.391 L 9.885 18.391 C 9.276 18.391 8.782 17.896 8.782 17.287 C 8.782 16.73 9.197 16.268 9.735 16.194 L 9.885 16.184 L 21.655 16.184 Z M 21.655 10.299 C 22.264 10.299 22.759 10.793 22.759 11.402 C 22.759 11.961 22.344 12.423 21.805 12.495 L 21.655 12.506 L 9.885 12.506 C 9.276 12.506 8.782 12.011 8.782 11.402 C 8.782 10.845 9.197 10.383 9.735 10.309 L 9.885 10.299 L 21.655 10.299 Z"></path>
</svg>