<svg viewBox="0 0 32 32" width="32px" height="32px" xmlns="http://www.w3.org/2000/svg">
  <path d="M 13.687 18.25 L 12.876 17.398 C 12.45 16.945 12.055 16.513 11.683 16.088 L 11.273 15.611 C 11.207 15.533 11.143 15.456 11.08 15.38 C 10.136 14.236 9.579 13.348 9.579 12.992 C 9.579 12.43 9.666 12.124 9.889 11.783 L 9.996 11.634 L 10.648 10.778 C 10.687 10.725 10.936 10.432 11.004 10.344 C 11.805 9.32 11.854 8.202 10.729 6.696 L 7.918 2.471 C 7.783 2.273 7.67 2.106 7.554 1.94 C 6.811 0.868 5.558 0.806 4.735 1.287 L 3.199 2.276 L 2.694 2.613 C 2.346 2.851 2.104 3.031 1.969 3.157 C 1.286 3.792 1 4.493 1 6.024 C 1 7.965 1.795 10.554 3.381 13.438 C 4.978 16.341 7.449 19.489 9.646 21.704 L 9.973 22.029 C 12.352 24.438 15.335 26.877 18.154 28.431 L 18.829 28.798 C 21.993 30.488 23.761 31 25.682 31 C 27.238 31 28.196 30.658 28.647 29.996 L 30.829 26.527 C 30.868 26.459 30.897 26.391 30.926 26.303 C 31.103 25.747 30.978 25.116 30.376 24.568 C 30.211 24.418 30.013 24.279 29.781 24.15 L 29.507 23.967 C 28.36 23.209 25.741 21.574 24.937 21.116 L 24.726 20.995 L 24.424 20.807 C 23.326 20.127 22.42 20.067 21.209 20.999 C 20.538 21.63 19.409 22.269 18.753 22.169 C 18.074 22.066 15.351 19.899 13.98 18.548 L 13.687 18.25 Z"></path>
</svg>
