<svg viewBox="0 0 32 32" width="32px" height="32px" xmlns="http://www.w3.org/2000/svg">
  <path d="M 16 30 C 16.798 30 17.455 29.399 17.545 28.626 L 17.556 28.444 L 17.556 17.556 L 28.444 17.556 C 29.304 17.556 30 16.859 30 16 C 30 15.202 29.399 14.545 28.626 14.455 L 28.444 14.444 L 17.556 14.444 L 17.556 3.556 C 17.556 2.696 16.859 2 16 2 C 15.202 2 14.545 2.601 14.455 3.374 L 14.444 3.556 L 14.444 14.446 L 3.556 14.444 C 2.696 14.444 2 15.141 2 16 C 2 16.798 2.601 17.455 3.374 17.545 L 3.556 17.556 L 14.444 17.557 L 14.444 28.444 C 14.444 29.304 15.141 30 16 30 Z" style="clip-rule: nonzero;"></path>
</svg>