<svg height="32" viewBox="0 0 32 32" width="32" xmlns="http://www.w3.org/2000/svg" xmlns:xlink="http://www.w3.org/1999/xlink"><linearGradient id="a"><stop offset="0" stop-color="#fcfbfb"/><stop offset="1" stop-color="#8f8f8f"/></linearGradient><linearGradient id="b" x1="48.483%" x2="55.365%" xlink:href="#a" y1="6.372%" y2="21.735%"/><linearGradient id="c" x1="45.885%" x2="57.679%" xlink:href="#a" y1="6.125%" y2="31.842%"/><path d="m13.062 20.34c.002-.715-.017-16.043-.021-19.429-.001-.422-.635-.543-.944-.157-.944 1.181-2.467 4.053-3 13.822-.029.537.276 1.054.864 1.497 1.045.789.985 3.691.781 4.544-.1.413-.286 1.756-.281 2.693.017 2.556-.136 6.683-.135 6.694-.003.722.609 1.401 1.461 1.393.853-.007 1.463-.676 1.46-1.393.003-.007-.183-8.783-.185-9.664z" fill="url(#b)"/><path d="m9.422 14.576c-.029.537.276 1.054.865 1.497 1.043.789.985 3.691.78 4.544-.099.413-.286 1.756-.28 2.693.016 2.556-.137 6.683-.136 6.694-.004.671.526 1.305 1.286 1.385l-.15.008c-.852.008-1.464-.671-1.461-1.393-.001-.011.152-4.138.135-6.694-.005-.937.181-2.28.281-2.693.204-.853.264-3.755-.781-4.544-.588-.443-.893-.96-.864-1.497.533-9.769 2.056-12.641 3-13.822.058-.072.128-.127.203-.165-.947 1.278-2.364 4.551-2.878 13.987z" fill="#fff"/><path d="m18.809.522c.113.003.207.082.233.187l.007.066-.013.516-.211 8.468-.006.256v.014c0 .265.191.486.444.533l.098.009h.061c.239 0 .438-.169.483-.395l.011-.099v-.318l.002-8.468v-.23c0-.265.19-.484.441-.53l.096-.009.098.009c.218.039.391.212.431.432l.008.097v9.017c0 .238.171.437.395.484l.099.01h.068c.297-.008.531-.253.525-.55-.002-.086-.004-.173-.006-.258v-.026c-.006-.28-.066-2.944-.175-7.992l-.01-.451-.013-.521c0-.117.078-.214.182-.243l.065-.009h.27c.295 0 .54.226.568.52.007.084.014.168.022.252.163 1.801.405 4.491.727 8.072.004.04.011.161.011.212 0 .06 0 .134-.002.175-.057 1.068-.429 2.022-.994 2.717-.006.009-.048.068-.057.079-1.417 1.877-1.331 4.142-1.114 5.848h.001c.134 4.133.304 11.655.304 11.665 0 .736-.713 1.336-1.377 1.336-.663-.002-1.371-.599-1.372-1.337.001-.009.195-7.533.357-11.664.252-1.46.4-3.395-.798-5.338-.072-.116-.411-.548-.495-.656-.588-.753-.953-1.794-.953-2.94 0-.121.021-.441.021-.441.334-3.436.585-6.013.751-7.73.01-.093.019-.186.027-.277.024-.245.207-.439.44-.483l.103-.009z" fill="url(#c)"/><path d="m18.809.522.027.004-.052.005c-.2.038-.362.186-.42.382l-.02.101c-.008.091-.017.184-.026.277-.168 1.717-.418 4.294-.752 7.73 0 0-.021.32-.021.441 0 1.146.365 2.187.952 2.94.084.108.424.54.497.656 1.198 1.943 1.048 3.878.796 5.338-.161 4.131-.355 11.655-.356 11.664.001.678.599 1.237 1.209 1.325-.053.009-.108.012-.162.012-.663-.002-1.371-.599-1.372-1.337.001-.009.195-7.533.357-11.664.252-1.46.4-3.395-.798-5.338-.072-.116-.411-.548-.495-.656-.588-.753-.953-1.794-.953-2.94 0-.121.021-.441.021-.441.334-3.436.585-6.013.751-7.73.01-.093.019-.186.027-.277.024-.245.207-.439.44-.483l.103-.009zm.613 10.049c.239 0 .438-.169.483-.395l.011-.099v-.318l.002-8.468v-.23c0-.265.19-.484.441-.53l.096-.009.098.009.065.016c-.217.069-.375.273-.375.514v.23l-.002 8.468v.318l-.01.099c-.047.226-.245.395-.484.395zm2.132 0c.297-.008.531-.253.525-.55-.002-.086-.004-.173-.006-.258v-.026c-.006-.272-.062-2.785-.166-7.54l-.019-.903-.013-.521c0-.117.078-.214.182-.243l.065-.009h.27l.032.003-.042.006c-.083.023-.15.09-.172.175l-.009.068.011.521.02.903c.104 4.755.16 7.268.166 7.54v.026l.006.258c.006.297-.229.542-.525.55z" fill="#fff"/></svg>