<svg width="100" height="29" viewBox="0 0 100 29" fill="none" xmlns="http://www.w3.org/2000/svg">
<path d="M2.736 16.608C2.736 19.92 4.488 21.312 7.512 21.312C8.688 21.312 9.624 21.096 10.224 20.928V17.208C9.84 17.328 9.408 17.4 9.048 17.4C8.184 17.4 7.704 17.016 7.704 16.128V11.16H10.224V7.848H7.704V5.16H2.736V7.848H1.2V11.16H2.736V16.608ZM55.92 7.848C55.008 7.56 53.928 7.416 52.944 7.416C49.56 7.416 46.656 9 46.656 12.48C46.656 13.872 47.112 15.024 47.976 15.888C47.136 16.68 46.656 17.736 46.656 18.744C46.656 19.32 46.824 20.52 48.192 21.384C46.896 21.96 46.2 22.968 46.2 24.264C46.2 27.504 50.304 28.272 52.896 28.272C56.304 28.272 60.888 26.952 60.888 22.896C60.888 21.216 60.12 20.088 58.512 19.512C57.12 19.008 55.248 18.96 53.16 18.96C51.72 18.96 49.824 18.84 49.824 17.64C49.824 17.448 49.848 17.304 49.92 17.16C50.856 17.52 51.864 17.688 52.944 17.688C56.04 17.688 59.376 16.272 59.376 12.744C59.376 11.784 59.112 10.992 58.584 10.344L55.92 7.848ZM50.784 22.272C50.952 22.296 51.216 22.296 51.384 22.296C53.04 22.296 54.36 22.296 55.296 22.44C56.28 22.608 56.736 22.944 56.736 23.448C56.736 24.336 55.488 25.176 53.232 25.176C51.312 25.176 50.112 24.576 50.112 23.52C50.112 23.04 50.352 22.56 50.784 22.272ZM53.088 14.4C52.104 14.4 51.096 13.728 51.096 12.552C51.096 11.496 51.912 10.704 53.016 10.704C53.952 10.704 54.984 11.304 54.984 12.552C54.984 13.656 54.192 14.4 53.088 14.4ZM11.376 2.136V21H16.344V13.728C16.344 12.144 17.088 11.448 18.312 11.448C19.488 11.448 19.968 12.12 19.968 13.464V21H24.936V12.336C24.936 9.072 23.208 7.488 20.616 7.488C18.48 7.488 17.088 8.544 16.344 9.96V2.136H11.376ZM31.032 21V7.848H26.112V21H31.032ZM25.896 4.344C25.896 5.808 27.048 6.864 28.584 6.864C30.096 6.864 31.248 5.808 31.248 4.344C31.248 2.904 30.096 1.872 28.584 1.872C27.048 1.872 25.896 2.904 25.896 4.344ZM32.256 7.848V21H37.224V13.728C37.224 12.144 37.968 11.448 39.192 11.448C40.392 11.448 40.872 12.12 40.872 13.464V21H45.816V12.336C45.816 9.072 44.088 7.488 41.496 7.488C39.384 7.488 37.968 8.544 37.224 9.96V7.848H32.256ZM84.264 11.16L86.592 19.512L83.784 25.368H88.704L98.04 7.848H93.144L89.856 14.472L88.488 7.848H81.144V6.888C81.144 6.168 81.576 5.616 82.656 5.616C83.064 5.616 83.424 5.688 83.736 5.76V2.208C83.112 2.04 82.464 1.944 81.624 1.944C78.36 1.944 76.176 3.456 76.176 6.864V7.848H70.728L67.464 14.472L66.096 7.848H55.92L58.584 10.344L61.872 11.16L64.176 19.512L61.368 25.368H66.312L73.872 11.16H76.176V21H81.144V11.16H84.264Z" fill="black"/>
</svg>
