<svg width="48px" height="48px" viewBox="0 0 48 48" xmlns="http://www.w3.org/2000/svg">
  <defs>
    <filter id="picker-_-hotel's-beach-service-_-sand-a" width="118%" height="280%" x="-9%" y="-90%" filterUnits="objectBoundingBox">
      <feGaussianBlur in="SourceGraphic" stdDeviation=".6"></feGaussianBlur>
    </filter>
    <linearGradient id="picker-_-hotel's-beach-service-_-sand-b" x1="31.481%" x2="50%" y1="6.137%" y2="100%">
      <stop offset="0" stop-color="#F2CF87"></stop>
      <stop offset="1" stop-color="#DBB870"></stop>
    </linearGradient>
    <path id="picker-_-hotel's-beach-service-_-sand-c" d="M17,42 C16.5485905,42 0,30.1538462 0,18.2142857 C0,6.27472527 7.61115914,0 17,0 C26.3888427,0 34,6.27219134 34,18.2142857 C34,30.1563801 17.4514095,42 17,42 Z"></path>
  </defs>
  <path d="M 33.5 45 C 33.5 45.552 29.023 46 23.5 46 C 17.977 46 13.5 45.552 13.5 45 C 13.5 44.448 17.977 44 23.5 44 C 29.023 44 33.5 44.448 33.5 45 Z" fill="#000" fill-rule="nonzero" filter="url(#picker-_-hotel's-beach-service-_-sand-a)" opacity=".448"></path>
  <path fill="#000" fill-rule="nonzero" d="M 23.5 2.5 C 33.818 2.5 41 9.646 41 21.214 C 41 26.613 37.808 32.326 32.533 37.928 C 29.094 41.58 24.214 45.5 23.5 45.5 C 22.786 45.5 17.906 41.58 14.467 37.927 C 9.192 32.325 6 26.612 6 21.214 C 6 9.647 13.183 2.5 23.5 2.5 Z M 23.5 3.5 C 13.734 3.5 7 10.201 7 21.214 C 7 26.298 10.078 31.808 15.195 37.242 C 18.396 40.642 23.199 44.5 23.5 44.5 C 23.801 44.5 28.604 40.643 31.805 37.243 C 36.922 31.809 40 26.299 40 21.214 C 40 10.199 33.267 3.5 23.5 3.5 Z M 24.149 10.716 C 30.627 8.126 31.223 13.4 31.223 13.4 C 36.325 13.4 37.859 16.813 37.432 20.922 C 37.425 20.995 37.372 21.056 37.297 21.062 C 37.221 21.069 37.149 21.021 37.137 20.948 C 36.187 15.278 32.479 15.083 32.092 15.078 L 32.059 15.078 C 35.571 16.807 35.396 19.697 34.053 22.184 C 34 22.282 33.906 22.343 33.798 22.319 C 33.69 22.295 33.789 21.997 33.798 21.889 C 34.074 18.479 31.881 16.377 30.064 16.024 C 26.825 19.791 24.161 27.475 24.358 32.067 C 28.232 33.134 22.598 32.494 20.969 32.814 C 19.34 33.134 15.431 33.134 18.364 32.067 C 18.14 29.068 17.083 23.928 15.098 21.333 C 14.04 20.349 12.857 24.613 12.854 24.617 C 12.816 24.826 12.668 24.432 12.661 24.322 C 12.507 22.013 12.857 21.062 13.293 20.643 C 12.218 20.922 11.37 21.025 10.792 24.245 C 10.783 24.296 10.737 24.332 10.684 24.33 C 10.632 24.328 10.589 24.289 10.584 24.237 C 10.361 22.051 10.302 19.337 14.203 19.337 C 14.203 19.337 14.74 16.237 18.419 17.435 C 18.469 17.452 18.494 17.507 18.48 17.556 C 18.466 17.606 18.356 17.561 18.303 17.556 C 17.03 17.435 15.749 17.774 15.492 18.743 C 15.492 18.743 18.409 16.243 22.106 20.349 C 22.652 13.751 27.501 13.827 27.813 13.839 L 27.829 13.84 C 25.724 12.396 22.676 13.784 20.969 14.894 C 20.907 14.934 20.824 14.923 20.774 14.869 C 20.724 14.814 20.739 14.741 20.773 14.678 C 23.361 9.817 29.185 12.481 29.553 12.655 L 29.571 12.664 C 28.67 11.249 27.049 10.617 24.225 10.993 C 24.151 11.003 24.081 10.957 24.061 10.887 C 24.043 10.817 24.08 10.743 24.149 10.716 Z M 28.67 15.939 C 24.776 14.896 22.073 20.63 22.063 20.544 C 20.842 19.757 18.224 18.457 16.539 19.991 C 16.539 19.991 19.121 19.954 19.277 22.467 C 19.29 22.683 17.837 20.787 16.228 20.961 C 17.579 22.342 20.35 26.322 21.006 31.643 C 21.029 31.642 21.052 31.638 21.075 31.636 C 22.837 23.716 26.933 18.126 28.67 15.939 Z"></path>
</svg>