<svg width="48px" height="48px" viewBox="0 0 48 48" xmlns="http://www.w3.org/2000/svg" xmlns:xlink="http://www.w3.org/1999/xlink">
  <defs>
    <filter id="picker-_-hotel's-room-service-_-azure-a" width="118%" height="280%" x="-9%" y="-90%" filterUnits="objectBoundingBox">
      <feGaussianBlur in="SourceGraphic" stdDeviation=".6"></feGaussianBlur>
    </filter>
    <linearGradient id="picker-_-hotel's-room-service-_-azure-b" x1="34.923%" x2="49.962%" y1="3.819%" y2="99.759%">
      <stop offset="0" stop-color="#078F93"></stop>
      <stop offset="1" stop-color="#076E6A"></stop>
    </linearGradient>
    <path id="picker-_-hotel's-room-service-_-azure-c" d="M17,42 C16.5485905,42 0,30.1538462 0,18.2142857 C0,6.27472527 7.61115914,0 17,0 C26.3888427,0 34,6.27219134 34,18.2142857 C34,30.1563801 17.4514095,42 17,42 Z"></path>
  </defs>
  <g fill="none" fill-rule="evenodd" transform="matrix(1, 0, 0, 1, 5.5, 2)">
    <g transform="translate(1 1)">
      <ellipse cx="17" cy="42" fill="#000" fill-rule="nonzero" filter="url(#picker-_-hotel's-room-service-_-azure-a)" opacity=".448" rx="10" ry="1"></ellipse>
      <use fill="url(#picker-_-hotel's-room-service-_-azure-b)" fill-rule="nonzero" transform="matrix(1, 0, 0, 1, 0, 0)" xlink:href="#picker-_-hotel's-room-service-_-azure-c"></use>
    </g>
    <path fill="#FFF" fill-rule="nonzero" d="M18,0.5 C28.3179328,0.5 35.5,7.6456828 35.5,19.2142857 C35.5,24.612818 32.3082366,30.3260965 27.0333016,35.9281924 C23.5943558,39.5804277 18.7138045,43.5 18,43.5 C17.2862849,43.5 12.4057229,39.5798208 8.96668627,35.9272292 C3.69176435,30.3247488 0.5,24.611712 0.5,19.2142857 C0.5,7.64735385 7.68300397,0.5 18,0.5 Z M18,1.5 C8.23417799,1.5 1.5,8.20075546 1.5,19.2142857 C1.5,24.2976412 4.57825506,29.8075042 9.69475659,35.2417268 C12.8962335,38.6420069 17.6993748,42.5 18,42.5 C18.3007617,42.5 23.1038048,38.6426746 26.3052556,35.2426641 C31.4217594,29.8088256 34.5,24.2987537 34.5,19.2142857 C34.5,8.19910768 27.7667818,1.5 18,1.5 Z M24.5,7 C24.7454599,7 24.9496084,7.17687516 24.9919443,7.41012437 L25,7.5 L25,31 L27,31 L27,32 L9,32 L9,31 L11,31 L11,7.5 C11,7.25454011 11.1768752,7.05039163 11.4101244,7.00805567 L11.5,7 L24.5,7 Z M17.1578947,26.7030075 L14.3684211,26.7030075 L14.368,31 L17.157,31 L17.1578947,26.7030075 Z M21.6315789,26.7030075 L18.8421053,26.7030075 L18.842,31 L21.631,31 L21.6315789,26.7030075 Z M23.6666667,24.2030075 L12.3333333,24.2030075 L12.3333333,25.5263158 L23.6666667,25.5263158 L23.6666667,24.2030075 Z M23.6666667,21.556391 L12.3333333,21.556391 L12.3333333,22.8796992 L23.6666667,22.8796992 L23.6666667,21.556391 Z M23.6666667,18.9097744 L12.3333333,18.9097744 L12.3333333,20.2330827 L23.6666667,20.2330827 L23.6666667,18.9097744 Z M23.6666667,16.2631579 L12.3333333,16.2631579 L12.3333333,17.5864662 L23.6666667,17.5864662 L23.6666667,16.2631579 Z M23.6666667,13.6165414 L12.3333333,13.6165414 L12.3333333,14.9398496 L23.6666667,14.9398496 L23.6666667,13.6165414 Z M17.3333333,8.32330827 L16,8.32330827 L16,12.2932331 L17.3333333,12.2932331 L17.3333333,10.9699248 L18.6666667,10.9699248 L18.6666667,12.2932331 L20,12.2932331 L20,8.32330827 L18.6666667,8.32330827 L18.6666667,9.64661654 L17.3333333,9.64661654 L17.3333333,8.32330827 Z"></path>
  </g>
</svg>