<svg viewBox="0 0 48 48" width="48px" height="48px" xmlns="http://www.w3.org/2000/svg">
  <defs>
    <filter id="picker-_-restaurants-_-black-a" width="118%" height="280%" x="-9%" y="-90%" filterUnits="objectBoundingBox">
      <feGaussianBlur in="SourceGraphic" stdDeviation=".6"></feGaussianBlur>
    </filter>
    <linearGradient id="picker-_-restaurants-_-black-b" x1="48.483%" x2="55.365%" y1="6.372%" y2="21.735%">
      <stop offset="0" stop-color="#FCFBFB"></stop>
      <stop offset="1" stop-color="#8F8F8F"></stop>
    </linearGradient>
    <linearGradient id="picker-_-restaurants-_-black-c" x1="45.885%" x2="57.679%" y1="6.125%" y2="31.842%">
      <stop offset="0" stop-color="#FCFBFB"></stop>
      <stop offset="1" stop-color="#8F8F8F"></stop>
    </linearGradient>
  </defs>
  <path d="M 34 44 C 34 44.552 29.523 45 24 45 C 18.477 45 14 44.552 14 44 C 14 43.448 18.477 43 24 43 C 29.523 43 34 43.448 34 44 Z" fill="#000" fill-rule="nonzero" filter="url(#picker-_-restaurants-_-black-a)" opacity=".448"></path>
  <path fill="#000" fill-rule="nonzero" d="M 24 44 C 23.549 44 7 32.154 7 20.214 C 7 8.275 14.611 2 24 2 C 33.389 2 41 8.272 41 20.214 C 41 32.156 24.451 44 24 44 Z"></path>
  <path fill="url(#picker-_-restaurants-_-black-b)" d="M 21.644 23.047 C 21.646 22.469 21.63 10.057 21.627 7.316 C 21.626 6.974 21.113 6.876 20.863 7.189 C 20.098 8.146 18.864 10.47 18.434 18.38 C 18.41 18.815 18.657 19.233 19.133 19.592 C 19.979 20.231 19.931 22.581 19.766 23.271 C 19.685 23.606 19.533 24.693 19.538 25.452 C 19.552 27.522 19.428 30.863 19.428 30.872 C 19.425 31.456 19.922 32.006 20.612 32 C 21.302 31.994 21.796 31.452 21.793 30.872 C 21.796 30.866 21.646 23.76 21.644 23.047 Z"></path>
  <path fill="#FFF" d="M 18.697 18.38 C 18.673 18.815 18.92 19.233 19.396 19.592 C 20.242 20.231 20.194 22.581 20.029 23.271 C 19.948 23.606 19.796 24.693 19.801 25.452 C 19.815 27.522 19.691 30.863 19.692 30.872 C 19.689 31.415 20.118 31.928 20.732 31.993 L 20.612 32 C 19.922 32.006 19.425 31.456 19.428 30.872 C 19.428 30.863 19.552 27.522 19.538 25.452 C 19.533 24.693 19.685 23.606 19.766 23.271 C 19.931 22.581 19.979 20.231 19.133 19.592 C 18.657 19.233 18.41 18.815 18.434 18.38 C 18.864 10.47 20.098 8.146 20.863 7.189 C 20.91 7.13 20.966 7.086 21.026 7.055 C 20.26 8.09 19.113 10.74 18.697 18.38 Z"></path>
  <path fill="url(#picker-_-restaurants-_-black-c)" d="M 26.297 7.001 C 26.389 7.003 26.465 7.067 26.486 7.152 L 26.492 7.206 L 26.481 7.623 L 26.31 14.48 L 26.305 14.687 L 26.305 14.698 C 26.305 14.913 26.46 15.093 26.665 15.13 L 26.743 15.137 L 26.793 15.137 C 26.987 15.137 27.148 15 27.185 14.817 L 27.193 14.737 L 27.193 14.48 L 27.195 7.623 L 27.195 7.437 C 27.195 7.223 27.349 7.045 27.552 7.008 L 27.63 7.001 L 27.709 7.008 C 27.886 7.04 28.026 7.18 28.058 7.358 L 28.065 7.436 L 28.065 14.737 C 28.065 14.93 28.202 15.091 28.385 15.129 L 28.465 15.137 L 28.519 15.137 C 28.759 15.131 28.95 14.932 28.945 14.692 C 28.943 14.622 28.941 14.553 28.94 14.483 L 28.939 14.463 C 28.934 14.235 28.887 12.078 28.797 7.991 L 28.789 7.626 L 28.78 7.205 C 28.78 7.109 28.842 7.031 28.927 7.007 L 28.98 7 L 29.198 7 C 29.437 7 29.636 7.183 29.658 7.421 C 29.664 7.489 29.67 7.557 29.676 7.625 C 29.807 9.083 30.004 11.261 30.265 14.161 C 30.268 14.193 30.274 14.291 30.274 14.333 C 30.274 14.381 30.274 14.441 30.272 14.474 C 30.226 15.34 29.925 16.111 29.467 16.675 C 29.462 16.681 29.428 16.729 29.42 16.739 C 28.274 18.258 28.343 20.092 28.519 21.473 L 28.52 21.474 C 28.628 24.819 28.766 30.91 28.766 30.918 C 28.766 31.514 28.188 32 27.651 32 C 27.114 31.998 26.541 31.515 26.54 30.917 C 26.541 30.91 26.698 24.818 26.829 21.473 C 27.033 20.291 27.153 18.724 26.183 17.152 C 26.125 17.057 25.85 16.707 25.782 16.62 C 25.305 16.01 25.011 15.168 25.011 14.239 C 25.011 14.141 25.027 13.882 25.027 13.882 C 25.298 11.1 25.501 9.014 25.636 7.623 C 25.643 7.548 25.651 7.474 25.658 7.399 C 25.677 7.201 25.825 7.045 26.014 7.008 L 26.097 7.001 L 26.297 7.001 Z"></path>
  <path fill="#FFF" d="M 26.297 7.001 L 26.319 7.004 L 26.277 7.008 C 26.115 7.039 25.983 7.159 25.937 7.317 L 25.921 7.399 C 25.914 7.474 25.907 7.548 25.899 7.623 C 25.764 9.014 25.561 11.1 25.291 13.882 C 25.291 13.882 25.274 14.141 25.274 14.239 C 25.274 15.168 25.569 16.01 26.045 16.62 C 26.113 16.707 26.388 17.057 26.446 17.152 C 27.416 18.724 27.296 20.291 27.092 21.473 C 26.961 24.818 26.804 30.91 26.803 30.917 C 26.804 31.466 27.287 31.919 27.782 31.99 C 27.739 31.997 27.695 32 27.651 32 C 27.114 31.998 26.541 31.515 26.54 30.917 C 26.541 30.91 26.698 24.818 26.829 21.473 C 27.033 20.291 27.153 18.724 26.183 17.152 C 26.125 17.057 25.85 16.707 25.782 16.62 C 25.305 16.01 25.011 15.168 25.011 14.239 C 25.011 14.141 25.027 13.882 25.027 13.882 C 25.298 11.1 25.501 9.014 25.636 7.623 C 25.643 7.548 25.651 7.474 25.658 7.399 C 25.677 7.201 25.825 7.045 26.014 7.008 L 26.097 7.001 L 26.297 7.001 Z M 26.793 15.137 C 26.987 15.137 27.148 15 27.185 14.817 L 27.193 14.737 L 27.193 14.48 L 27.195 7.623 L 27.195 7.437 C 27.195 7.223 27.349 7.045 27.552 7.008 L 27.63 7.001 L 27.709 7.008 L 27.762 7.021 C 27.586 7.077 27.458 7.242 27.458 7.437 L 27.458 7.437 L 27.458 7.623 L 27.457 14.48 L 27.457 14.737 L 27.448 14.817 C 27.411 15 27.25 15.137 27.057 15.137 L 27.057 15.137 L 26.793 15.137 Z M 28.519 15.137 C 28.759 15.131 28.95 14.932 28.945 14.692 C 28.943 14.622 28.941 14.553 28.94 14.483 L 28.939 14.463 C 28.935 14.242 28.89 12.207 28.805 8.358 L 28.789 7.626 L 28.78 7.205 C 28.78 7.109 28.842 7.031 28.927 7.007 L 28.98 7 L 29.198 7 L 29.224 7.002 L 29.19 7.007 C 29.123 7.026 29.069 7.08 29.05 7.149 L 29.043 7.205 L 29.053 7.626 L 29.069 8.358 C 29.153 12.207 29.198 14.242 29.203 14.463 L 29.203 14.463 L 29.203 14.483 L 29.203 14.483 L 29.208 14.692 C 29.213 14.932 29.023 15.131 28.783 15.137 L 28.783 15.137 L 28.519 15.137 Z"></path>
</svg>
