<svg width="48" height="48" xmlns="http://www.w3.org/2000/svg"><path d="M4 4h39.9v21.593l-1.974 3.094L43.9 31.44V44H4V23.644l1.234-1.423L4 20.861z" fill="#016fd0"/><path d="M11.746 31.873v-6.28h6.632l.712.93.735-.93h24.076v5.847s-.63.427-1.358.433H29.212l-.803-.99v.99H25.78v-1.69s-.359.236-1.135.236h-.895v1.454h-3.981l-.71-.95-.722.95zM4 20.86l1.496-3.496h2.586l.85 1.959v-1.959h3.215l.505 1.416.49-1.416h14.434v.712s.76-.712 2.006-.712l4.684.017.834 1.932v-1.949h2.69l.741 1.11v-1.11h2.716v6.28H38.53l-.71-1.113v1.113h-3.953l-.398-.99h-1.063l-.39.99h-2.682c-1.073 0-1.759-.697-1.759-.697v.697h-4.042l-.803-.99v.99H7.7l-.397-.99h-1.06l-.394.99H4z" fill="#fff"/><path d="M6.025 18.139L4.008 22.84H5.32l.372-.942h2.164l.37.942H9.57l-2.015-4.702h-1.53zm.747 1.094l.66 1.645H6.11l.662-1.645zM9.709 22.84v-4.702l1.866.007 1.086 3.031 1.06-3.038h1.851v4.702H14.4v-3.465l-1.243 3.465h-1.028l-1.246-3.465v3.465zM16.374 22.84v-4.702h3.827v1.052h-2.642v.804h2.58v.99h-2.58v.835h2.642v1.021zM20.88 18.139v4.702h1.173v-1.67h.493l1.406 1.67h1.433l-1.543-1.733a1.43 1.43 0 0 0 1.287-1.444c0-.99-.775-1.525-1.64-1.525h-2.61zm1.173 1.051h1.34c.321 0 .555.253.555.495 0 .313-.303.495-.538.495h-1.357v-.99zM26.805 22.84h-1.198v-4.702h1.198zM29.644 22.84h-.259c-1.25 0-2.01-.988-2.01-2.332 0-1.377.751-2.37 2.33-2.37h1.297v1.114h-1.344c-.64 0-1.094.501-1.094 1.268 0 .91.518 1.293 1.265 1.293h.309zM32.195 18.139l-2.017 4.702h1.314l.372-.942h2.164l.37.942h1.342l-2.015-4.702h-1.53zm.747 1.094l.66 1.645H32.28l.662-1.645zM35.877 22.84v-4.702h1.491l1.904 2.954v-2.954h1.172v4.702h-1.442l-1.952-3.032v3.032zM12.548 31.07v-4.703h3.826v1.052h-2.641v.804h2.58v.99h-2.58v.835h2.641v1.021zM31.298 31.07v-4.703h3.826v1.052h-2.641v.804h2.567v.99h-2.567v.835h2.641v1.021zM16.523 31.07l1.863-2.323-1.907-2.38h1.477l1.136 1.471 1.14-1.471h1.42l-1.883 2.351 1.866 2.351h-1.477l-1.103-1.448-1.076 1.448zM21.775 26.368v4.702h1.203v-1.485h1.235c1.044 0 1.836-.556 1.836-1.636 0-.895-.621-1.581-1.684-1.581h-2.59zm1.203 1.063h1.3c.338 0 .579.207.579.541 0 .314-.24.542-.583.542h-1.296V27.43zM26.558 26.367v4.702h1.173V29.4h.493l1.406 1.67h1.433l-1.543-1.732a1.43 1.43 0 0 0 1.287-1.445c0-.99-.775-1.525-1.64-1.525h-2.61zm1.173 1.052h1.34c.322 0 .555.252.555.495 0 .312-.303.495-.538.495h-1.357v-.99zM35.667 31.07v-1.022h2.347c.348 0 .498-.188.498-.394 0-.198-.15-.398-.498-.398h-1.06c-.922 0-1.435-.563-1.435-1.408 0-.754.47-1.481 1.84-1.481h2.283l-.494 1.058h-1.975c-.377 0-.493.198-.493.388 0 .195.143.41.432.41h1.11c1.028 0 1.474.584 1.474 1.35 0 .822-.497 1.496-1.53 1.496zM39.971 31.07v-1.022h2.347c.347 0 .498-.188.498-.394 0-.198-.15-.398-.498-.398h-1.06c-.922 0-1.436-.563-1.436-1.408 0-.754.47-1.481 1.84-1.481h2.284l-.494 1.058h-1.975c-.377 0-.493.198-.493.388 0 .195.143.41.432.41h1.11c1.028 0 1.474.584 1.474 1.35 0 .822-.497 1.496-1.53 1.496z" fill="#016fd0"/></svg>