<svg width="48" height="48" xmlns="http://www.w3.org/2000/svg"><path d="M41.592 30.208v-.422h-.108l-.128.29-.126-.29h-.112v.422h.079v-.317l.119.274h.081l.118-.275v.318h.078zm-.698 0v-.349h.142v-.072h-.358v.072h.14v.349h.076z" fill="#f79410"/><path d="M29.091 32.02h-9.518V14.914h9.518V32.02z" fill="#ff5f00"/><path d="M20.047 23.361c0-3.436 1.608-6.496 4.114-8.469a10.718 10.718 0 0 0-6.657-2.303c-5.95 0-10.773 4.824-10.773 10.772 0 5.952 4.823 10.775 10.773 10.775 2.512 0 4.826-.861 6.657-2.303a10.76 10.76 0 0 1-4.114-8.472" fill="#eb001b"/><path d="M41.593 23.361c0 5.952-4.824 10.775-10.773 10.775a10.734 10.734 0 0 1-6.659-2.303 10.754 10.754 0 0 0 4.115-8.472 10.75 10.75 0 0 0-4.115-8.469 10.728 10.728 0 0 1 6.659-2.303c5.949 0 10.773 4.824 10.773 10.772" fill="#f79e1b"/></svg>