<svg width="48" height="48" xmlns="http://www.w3.org/2000/svg"><path fill="#253B80" d="M16.657 43.428l.717-4.543-1.594-.037H8.17l5.288-33.531a.443.443 0 0 1 .148-.263.43.43 0 0 1 .282-.103h12.831c4.259 0 7.199.885 8.733 2.636.719.82 1.177 1.677 1.399 2.621.233.991.237 2.174.011 3.618l-.017.105v.924l.719.408c.606.321 1.088.689 1.457 1.111.615.701 1.014 1.592 1.182 2.65.173 1.088.116 2.382-.168 3.847-.329 1.685-.86 3.153-1.576 4.354a8.954 8.954 0 0 1-2.496 2.735c-.952.676-2.084 1.189-3.363 1.517-1.239.323-2.652.486-4.202.486h-.999a3.03 3.03 0 0 0-1.951.718 3.02 3.02 0 0 0-1.018 1.817l-.075.408-1.265 8.009-.056.294c-.016.094-.042.14-.08.172a.216.216 0 0 1-.131.047h-6.166z"/><path fill="#179BD7" d="M38.246 14.038c-.039.244-.083.495-.132.751-1.692 8.688-7.481 11.689-14.874 11.689h-3.765c-.904 0-1.666.657-1.807 1.549L15.741 40.25l-.546 3.465a.964.964 0 0 0 .951 1.113h6.677c.791 0 1.462-.575 1.587-1.355l.065-.339 1.257-7.977.081-.438a1.604 1.604 0 0 1 1.586-1.357h.999c6.468 0 11.533-2.626 13.013-10.226.618-3.174.298-5.826-1.338-7.691-.495-.561-1.11-1.027-1.827-1.407z"/><path fill="#222D65" d="M36.476 13.332a12.628 12.628 0 0 0-1.646-.366 20.805 20.805 0 0 0-3.318-.242H21.455a1.605 1.605 0 0 0-1.585 1.357l-2.14 13.55-.062.396a1.829 1.829 0 0 1 1.807-1.549h3.765c7.393 0 13.182-3.003 14.874-11.689.05-.256.093-.507.132-.751a9.036 9.036 0 0 0-1.392-.588c-.123-.041-.251-.08-.378-.118z"/><path fill="#253B80" d="M19.87 14.081a1.597 1.597 0 0 1 1.585-1.355h10.057c1.191 0 2.303.078 3.318.241.29.048.572.101.846.16.274.062.54.13.8.206.127.038.255.078.38.117.499.166.962.361 1.391.588.503-3.212-.005-5.398-1.741-7.376-1.913-2.179-5.367-3.112-9.786-3.112H13.889c-.902 0-1.673.656-1.812 1.55L6.732 38.975A1.103 1.103 0 0 0 7.82 40.25h7.921l1.989-12.619 2.14-13.55z"/></svg>