<svg width="48" height="48" xmlns="http://www.w3.org/2000/svg" xmlns:bx="https://boxy-svg.com"><g bx:origin="0.047998 0.5"><path fill="#00579f" d="M20.933 30.691h-3.726l2.33-14.411h3.727zm13.509-14.059a9.183 9.183 0 0 0-3.343-.613c-3.68 0-6.27 1.962-6.287 4.767-.03 2.07 1.856 3.22 3.266 3.91 1.442.705 1.932 1.166 1.932 1.794-.015.966-1.165 1.41-2.238 1.41-1.488 0-2.285-.229-3.496-.766l-.491-.23-.521 3.235c.874.398 2.484.751 4.155.767 3.91 0 6.456-1.932 6.486-4.922.015-1.64-.98-2.897-3.128-3.925-1.303-.659-2.101-1.104-2.101-1.778.015-.614.675-1.242 2.146-1.242a6.331 6.331 0 0 1 2.776.552l.337.153.507-3.112zm4.952 8.954c.307-.828 1.488-4.032 1.488-4.032-.016.03.306-.844.49-1.38l.26 1.242s.706 3.45.86 4.17h-3.098zm4.6-9.306h-2.882c-.89 0-1.565.26-1.948 1.195l-5.535 13.216h3.91l.782-2.162h4.784c.107.506.445 2.162.445 2.162H47L43.994 16.28zm-29.899 0l-3.65 9.827-.398-1.993c-.675-2.3-2.791-4.798-5.152-6.04l3.342 12.602h3.94l5.858-14.396h-3.94z"/><path d="M7.057 16.28H1.06l-.06.29c4.677 1.196 7.774 4.079 9.047 7.543L8.743 17.49c-.214-.92-.874-1.18-1.686-1.211z" fill="#faa61a"/></g></svg>