<svg width="240" height="71" xmlns="http://www.w3.org/2000/svg" xmlns:xlink="http://www.w3.org/1999/xlink"><defs><linearGradient x1="50%" y1="0%" x2="50%" y2="100%" id="a"><stop offset="0%"/><stop stop-opacity="0" offset="100%"/></linearGradient><circle id="b" cx="10.24" cy="10.24" r="10.24"/></defs><g fill="none" fill-rule="evenodd"><path d="M0 28.153C0 12.605 12.608 0 28.163 0h183.674C227.391 0 240 12.598 240 28.153V71.04H0V28.153z" fill="url(#a)" opacity=".4"/><path d="M228.224 47.705l4.118-4.118a.096.096 0 0 0 0-.135l-.543-.544a.096.096 0 0 0-.136 0l-4.118 4.118-4.118-4.118a.095.095 0 0 0-.136 0l-.543.544a.096.096 0 0 0 0 .135l4.118 4.118-4.118 4.118a.097.097 0 0 0 0 .136l.543.543a.097.097 0 0 0 .136 0l4.118-4.118 4.118 4.118a.097.097 0 0 0 .136 0l.543-.543a.097.097 0 0 0 0-.136l-4.118-4.118z" fill="#FFF"/><g fill="#FFF" font-size="8.32"><text opacity=".7" font-family="Helvetica" transform="translate(35.84 42.88)"><tspan x="79.36" y="8">1h</tspan></text><text font-family="Roboto-Medium, Roboto" font-weight="400" transform="translate(35.84 42.88)"><tspan x="0" y="8">happy_mnfst_user</tspan></text></g><use fill="#FFF" opacity=".5" xlink:href="#b" transform="translate(7.68 37.12)"/><g fill="#FFF" opacity=".25"><path d="M5.12 31.36a.64.64 0 0 1 .64-.64h229.12a.64.64 0 0 1 0 1.28H5.76a.639.639 0 0 1-.64-.64z"/><path d="M5.76 30.72h111.36V32H5.76a.64.64 0 1 1 0-1.28z"/></g></g></svg>