<svg width="240" height="72" xmlns="http://www.w3.org/2000/svg"><defs><linearGradient x1="50%" y1="0%" x2="50%" y2="100%" id="a"><stop offset="0%"/><stop stop-opacity="0" offset="100%"/></linearGradient></defs><g fill="none" fill-rule="evenodd"><path d="M0 28.153C0 12.605 12.608 0 28.163 0h183.674C227.391 0 240 12.598 240 28.153V71.04H0V28.153z" fill="url(#a)" opacity=".4" transform="matrix(1 0 0 -1 0 71.04)"/><path d="M229.401 21.618l-14.748-.071a.37.37 0 0 0-.244.656l5.214 4.345 1.257 8.067a.37.37 0 0 0 .66.236l8.145-12.624a.37.37 0 0 0 .035-.419.37.37 0 0 0-.319-.19zm-1.662.737l-7.045 4.223-5.016-4.284 12.061.06zm.313.671l-6.426 10.558-.62-6.334 7.046-4.224z" opacity=".8" fill="#FFF" fill-rule="nonzero" stroke="#FFF" stroke-width=".5"/><g transform="translate(35.84 15.36)"><rect stroke="#FFF" stroke-width=".64" opacity=".5" x=".32" y=".32" width="168.96" height="24.96" rx="12.48"/><g opacity=".8" fill="#FFF"><g transform="translate(147.84 12.16)"><circle cx=".96" cy=".96" r="1"/><circle cx="4.16" cy=".96" r="1"/><circle cx="7.36" cy=".96" r="1"/></g><text font-family="Helvetica" font-size="9.6" transform="translate(12.8 7.04)"><tspan x="0" y="9">Send Message</tspan></text></g></g><g transform="translate(5.12 15.36)"><rect stroke="#FFF" stroke-width=".64" opacity=".5" x=".32" y=".32" width="24.96" height="24.96" rx="12.48"/><g fill="#FFF"><path d="M17.027 8.247c1.16 0 2.106.919 2.133 2.074v5.406c0 1.142-.947 2.074-2.107 2.074H8.587c-1.16 0-2.107-.932-2.107-2.074v-5.406c0-1.116.907-2.074 2-2.074h1.64l.36-.616a1.156 1.156 0 0 1 1-.565h2.64c.413 0 .8.21 1 .565l.36.616h1.547zm-4.227 7.68c1.642 0 2.963-1.3 2.963-2.916 0-1.599-1.32-2.916-2.963-2.916-1.624 0-2.963 1.3-2.963 2.916 0 1.599 1.32 2.916 2.963 2.916z" fill-rule="nonzero"/><path d="M12.8 15.19c-1.227 0-2.213-.985-2.213-2.18 0-1.206 1-2.178 2.213-2.178 1.227 0 2.213.985 2.213 2.179 0 1.207-.986 2.178-2.213 2.178z"/></g></g><rect fill="#D8D8D8" x="75.52" y="60.8" width="89.6" height="2.56" rx="1.28"/></g></svg>