<?xml version="1.0" encoding="utf-8"?>
<svg viewBox="0 0 32 32" width="32" height="32" style="enable-background:new 0 0 240 234;" xmlns="http://www.w3.org/2000/svg">
  <defs>
    <style type="text/css">
	.st0{fill:#001D26;}
	.st1{fill:#00C8FF;}
</style>
  </defs>
  <path class="st0" d="M 1.333 1.367 L 30.666 1.367 L 30.666 30.633 L 1.333 30.633 L 1.333 1.367 Z"/>
  <path class="st1" d="M 0 0 L 0 32 L 32 32 L 32 0 L 0 0 Z M 1.333 1.367 L 30.666 1.367 L 30.666 30.633 L 1.333 30.633 L 1.333 1.367 Z M 7.733 7.494 C 7.733 7.398 7.92 7.33 8.027 7.33 C 8.88 7.289 10.147 7.262 11.467 7.262 C 15.16 7.262 16.6 9.341 16.6 12.007 C 16.6 15.48 14.147 16.971 11.132 16.971 C 10.626 16.971 10.453 16.944 10.093 16.944 L 10.093 22.195 C 10.093 22.305 10.053 22.359 9.933 22.359 L 7.893 22.359 C 7.787 22.359 7.733 22.318 7.733 22.195 L 7.733 7.494 L 7.733 7.494 Z M 10.107 14.756 C 10.413 14.783 10.653 14.783 11.187 14.783 C 12.747 14.783 14.212 14.223 14.212 12.048 C 14.212 10.311 13.159 9.436 11.387 9.436 C 10.853 9.436 10.347 9.464 10.107 9.477 L 10.107 14.756 L 10.107 14.756 Z M 21.573 13.128 C 20.52 13.128 20.16 13.675 20.16 14.126 C 20.16 14.618 20.4 14.961 21.812 15.713 C 23.907 16.752 24.56 17.751 24.56 19.213 C 24.56 21.402 22.933 22.577 20.733 22.577 C 19.573 22.577 18.572 22.331 18 21.99 C 17.907 21.949 17.893 21.88 17.893 21.771 L 17.893 19.761 C 17.893 19.624 17.96 19.583 18.053 19.651 C 18.892 20.212 19.853 20.458 20.733 20.458 C 21.787 20.458 22.227 20.007 22.227 19.392 C 22.227 18.899 21.92 18.462 20.573 17.751 C 18.68 16.821 17.893 15.877 17.893 14.305 C 17.893 12.541 19.239 11.077 21.573 11.077 C 22.72 11.077 23.52 11.254 23.959 11.459 C 24.067 11.528 24.093 11.638 24.093 11.733 L 24.093 13.607 C 24.093 13.716 24.027 13.785 23.893 13.744 C 23.307 13.361 22.439 13.128 21.573 13.128 L 21.573 13.128 Z"/>
</svg>