<?xml version="1.0" encoding="utf-8"?>
<svg width="48px" height="48px" viewBox="0 0 48 48" fill="none" xmlns="http://www.w3.org/2000/svg">
  <path fill-rule="evenodd" clip-rule="evenodd" d="M 23.36 5.957 C 15.415 5.957 8.977 12.398 8.977 20.341 C 8.977 25.521 11.717 30.062 15.825 32.594 L 15.825 34.722 C 15.825 35.478 16.438 36.092 17.196 36.092 L 29.523 36.092 C 30.279 36.092 30.893 35.478 30.893 34.722 L 30.893 32.594 C 35.002 30.062 37.741 25.521 37.741 20.341 C 37.741 12.398 31.303 5.957 23.36 5.957 Z" fill="#725286" style=""/>
  <path d="M 17.196 37.462 L 29.523 37.462 L 29.523 38.147 C 29.523 40.038 27.989 41.571 26.099 41.571 L 20.62 41.571 C 18.729 41.571 17.196 40.038 17.196 38.147 L 17.196 37.462 Z" fill="#725286" style=""/>
</svg>