<?xml version="1.0" encoding="utf-8"?>
<svg width="48px" height="48px" viewBox="0 0 48 48" fill="none" xmlns="http://www.w3.org/2000/svg">
  <path d="M 11.154 13.787 C 11.406 14.033 11.721 14.156 12.099 14.156 C 12.477 14.156 12.792 14.033 13.044 13.787 C 13.296 13.541 13.422 13.233 13.422 12.864 C 13.422 12.495 13.296 12.188 13.044 11.941 L 10.188 9.152 C 9.937 8.906 9.622 8.783 9.244 8.783 C 8.866 8.783 8.551 8.906 8.299 9.152 C 8.047 9.398 7.921 9.706 7.921 10.075 C 7.921 10.444 8.047 10.752 8.299 10.998 L 11.154 13.787 Z M 7.375 22.688 L 3.344 22.688 C 2.98 22.688 2.665 22.817 2.399 23.077 C 2.133 23.337 2 23.645 2 24 C 2 24.356 2.133 24.663 2.399 24.923 C 2.665 25.183 2.98 25.313 3.344 25.313 L 7.375 25.313 C 7.739 25.313 8.054 25.183 8.32 24.923 C 8.586 24.663 8.719 24.356 8.719 24 C 8.719 23.645 8.586 23.337 8.32 23.077 C 8.054 22.817 7.739 22.688 7.375 22.688 Z M 36.434 13.213 L 39.247 10.465 C 39.499 10.191 39.625 9.877 39.625 9.521 C 39.625 9.166 39.499 8.865 39.247 8.619 C 38.995 8.373 38.687 8.25 38.323 8.25 C 37.959 8.25 37.637 8.373 37.357 8.619 L 34.544 11.367 C 34.292 11.613 34.166 11.921 34.166 12.29 C 34.166 12.659 34.292 12.967 34.544 13.213 C 34.796 13.459 35.111 13.582 35.489 13.582 C 35.867 13.582 36.182 13.459 36.434 13.213 Z M 23.5 9.563 C 23.864 9.563 24.179 9.433 24.445 9.173 C 24.711 8.913 24.844 8.605 24.844 8.25 L 24.844 4.312 C 24.844 3.957 24.711 3.649 24.445 3.39 C 24.179 3.13 23.864 3 23.5 3 C 23.136 3 22.821 3.13 22.555 3.39 C 22.289 3.649 22.156 3.957 22.156 4.312 L 22.156 8.25 C 22.156 8.605 22.289 8.913 22.555 9.173 C 22.821 9.433 23.136 9.563 23.5 9.563 Z M 11.952 33.434 L 9.139 36.182 C 8.887 36.455 8.761 36.77 8.761 37.125 C 8.761 37.481 8.887 37.781 9.139 38.027 C 9.391 38.273 9.699 38.397 10.063 38.397 C 10.426 38.397 10.748 38.273 11.028 38.027 L 13.842 35.279 C 14.094 35.033 14.22 34.726 14.22 34.356 C 14.22 33.987 14.094 33.68 13.842 33.434 C 13.59 33.188 13.275 33.065 12.897 33.065 C 12.519 33.065 12.204 33.188 11.952 33.434 Z M 35.846 34.213 C 35.594 33.967 35.279 33.844 34.901 33.844 C 34.523 33.844 34.208 33.967 33.956 34.213 C 33.704 34.459 33.578 34.767 33.578 35.136 C 33.578 35.505 33.704 35.813 33.956 36.059 L 36.812 38.848 C 37.064 39.094 37.378 39.217 37.756 39.217 C 38.134 39.217 38.449 39.094 38.701 38.848 C 38.953 38.602 39.079 38.294 39.079 37.925 C 39.079 37.556 38.953 37.248 38.701 37.002 L 35.846 34.213 Z M 43.656 22.688 L 39.625 22.688 C 39.261 22.688 38.946 22.817 38.68 23.077 C 38.414 23.337 38.281 23.645 38.281 24 C 38.281 24.356 38.414 24.663 38.68 24.923 C 38.946 25.183 39.261 25.313 39.625 25.313 L 43.656 25.313 C 44.02 25.313 44.335 25.183 44.601 24.923 C 44.867 24.663 45 24.356 45 24 C 45 23.645 44.867 23.337 44.601 23.077 C 44.335 22.817 44.02 22.688 43.656 22.688 Z M 23.5 38.438 C 23.136 38.438 22.821 38.567 22.555 38.827 C 22.289 39.087 22.156 39.395 22.156 39.75 L 22.156 43.688 C 22.156 44.043 22.289 44.351 22.555 44.61 C 22.821 44.87 23.136 45 23.5 45 C 23.864 45 24.179 44.87 24.445 44.61 C 24.711 44.351 24.844 44.043 24.844 43.688 L 24.844 39.75 C 24.844 39.395 24.711 39.087 24.445 38.827 C 24.179 38.567 23.864 38.438 23.5 38.438 Z M 23.5 12.188 C 21.82 12.188 20.246 12.495 18.776 13.11 C 17.306 13.726 16.025 14.566 14.934 15.633 C 13.842 16.699 12.981 17.95 12.351 19.386 C 11.721 20.821 11.406 22.359 11.406 24 C 11.406 25.641 11.721 27.179 12.351 28.614 C 12.981 30.05 13.842 31.301 14.934 32.367 C 16.025 33.434 17.306 34.274 18.776 34.89 C 20.246 35.505 21.82 35.813 23.5 35.813 C 25.18 35.813 26.754 35.505 28.224 34.89 C 29.694 34.274 30.975 33.434 32.066 32.367 C 33.158 31.301 34.019 30.05 34.649 28.614 C 35.279 27.179 35.594 25.641 35.594 24 C 35.594 22.359 35.279 20.821 34.649 19.386 C 34.019 17.95 33.158 16.699 32.066 15.633 C 30.975 14.566 29.694 13.726 28.224 13.11 C 26.754 12.495 25.18 12.188 23.5 12.188 Z" fill="#FFC83C"/>
</svg>