<svg width="16" height="16" viewBox="0 0 48 48" xmlns="http://www.w3.org/2000/svg" xmlns:xlink="http://www.w3.org/1999/xlink"><defs><path d="M32.919 36.789C29.683 40.629 25.604 44 24 44s-5.683-3.37-8.919-7.211C10.69 31.576 8 25.843 8 20c0-8.837 7.163-16 16-16s16 7.163 16 16c0 5.843-2.69 11.576-7.081 16.789zm-10.27 1.92c.593.49 1.351 1.04 1.351 1.04s.843-.62 1.351-1.04a36.282 36.282 0 0 0 4.509-4.498C33.699 29.655 36 24.75 36 20c0-6.627-5.373-12-12-12s-12 5.373-12 12c0 4.75 2.301 9.655 6.14 14.211a36.282 36.282 0 0 0 4.509 4.497zM18 20a6 6 0 1 1 12 0 6 6 0 0 1-12 0zm8 0a2 2 0 1 0-4 0 2 2 0 0 0 4 0z" id="a"/></defs><g fill="none" fill-rule="evenodd"><mask id="b" fill="#fff"><use xlink:href="#a"/></mask><g mask="url(#b)" fill="#000"><path d="M0 0h48v48H0z"/></g></g></svg>