<svg width="34" height="39" xmlns="http://www.w3.org/2000/svg"><defs><filter x="-79.5%" y="-62.5%" width="259.1%" height="225%" filterUnits="objectBoundingBox" id="a"><feOffset dy="3" in="SourceAlpha" result="shadowOffsetOuter1"/><feMorphology radius="4" in="SourceAlpha" result="shadowInner"/><feOffset dy="3" in="shadowInner" result="shadowInner"/><feComposite in="shadowOffsetOuter1" in2="shadowInner" operator="out" result="shadowOffsetOuter1"/><feGaussianBlur stdDeviation="3" in="shadowOffsetOuter1" result="shadowBlurOuter1"/><feColorMatrix values="0 0 0 0 0 0 0 0 0 0 0 0 0 0 0 0 0 0 0.3 0" in="shadowBlurOuter1" result="shadowMatrixOuter1"/><feMerge><feMergeNode in="shadowMatrixOuter1"/><feMergeNode in="SourceGraphic"/></feMerge></filter></defs><g filter="url(#a)" transform="translate(6 3)" fill-rule="nonzero" fill="none"><path d="M16.946 22.526c2.928-3.475 4.72-7.297 4.72-11.193C21.667 5.443 16.892.667 11 .667S.333 5.442.333 11.333c0 3.896 1.793 7.718 4.721 11.193 2.158 2.56 4.876 4.807 5.946 4.807 1.07 0 3.788-2.247 5.946-4.807z" fill="#674FF1"/><path d="M7 11.333a4 4 0 1 1 8 0 4 4 0 0 1-8 0z" fill="#FFF"/></g></svg>