<svg width="120" height="48" xmlns="http://www.w3.org/2000/svg"><path d="M118 24.801c0-8.203-3.974-14.676-11.568-14.676-7.626 0-12.24 6.473-12.24 14.612 0 9.645 5.447 14.515 13.266 14.515 3.813 0 6.697-.865 8.876-2.082v-6.409c-2.179 1.09-4.679 1.762-7.851 1.762-3.108 0-5.864-1.089-6.216-4.87h15.669c0-.417.064-2.083.064-2.852zm-15.829-3.044c0-3.621 2.211-5.127 4.229-5.127 1.955 0 4.038 1.506 4.038 5.127h-8.267zM81.824 10.125c-3.14 0-5.159 1.474-6.281 2.5l-.416-1.987h-7.05V48l8.011-1.698.032-9.068c1.153.833 2.852 2.018 5.672 2.018 5.735 0 10.958-4.614 10.958-14.771-.032-9.293-5.319-14.356-10.926-14.356zm-1.923 22.078c-1.89 0-3.012-.673-3.781-1.506l-.032-11.888c.833-.929 1.986-1.57 3.813-1.57 2.916 0 4.935 3.268 4.935 7.466 0 4.294-1.987 7.498-4.935 7.498zM57.055 8.235l8.042-1.73V0l-8.042 1.698zm0 2.435h8.042v28.037h-8.042V10.67zm-8.62 2.371l-.513-2.371h-6.921v28.037h8.011V19.706c1.89-2.467 5.095-2.018 6.088-1.666v-7.37c-1.026-.384-4.774-1.089-6.665 2.371zM32.414 3.717l-7.819 1.666-.032 25.667c0 4.742 3.557 8.234 8.299 8.234 2.628 0 4.55-.48 5.608-1.057v-6.505c-1.026.417-6.088 1.891-6.088-2.852V17.495h6.088V10.67h-6.088l.032-6.953zM10.753 18.809c0-1.249 1.025-1.73 2.723-1.73 2.436 0 5.512.737 7.947 2.051v-7.531c-2.659-1.057-5.287-1.474-7.947-1.474-6.504 0-10.83 3.397-10.83 9.069 0 8.844 12.176 7.433 12.176 11.246 0 1.474-1.282 1.955-3.076 1.955-2.66 0-6.056-1.089-8.747-2.563v7.626a22.199 22.199 0 0 0 8.747 1.826c6.665 0 11.247-3.3 11.247-9.036-.032-9.548-12.24-7.85-12.24-11.439z" fill-rule="evenodd" clip-rule="evenodd" fill="#fff"/></svg>