<svg width="240" height="48" xmlns="http://www.w3.org/2000/svg"><path d="M52.488.059h7.474v7.475h-7.474V.059m0 13.18v33.839h7.474V13.239h-7.474M0 13.062h7.962l6.646 25.398h.131l6.381-25.398h7.568l6.12 25.398h.131l6.908-25.398h7.634L38.82 47.078h-7.699l-6.314-25.266h-.133l-6.251 25.266h-7.895L0 13.062m64.097 0h7.039v6.582h.132c.855-3.622 5.33-7.502 9.938-7.502 1.708 0 2.17.131 2.827.195v7.239c-1.052-.132-2.17-.327-3.224-.327-5.133 0-9.211 4.145-9.211 11.644v16.185h-7.501V13.062m43.372 14.016c-.264-4.738-3.488-9.013-8.555-9.013-5.199 0-8.75 3.946-8.947 9.013h17.502zm-17.502 4.933c0 5.329 2.896 10.069 9.146 10.069 4.343 0 6.975-1.908 8.29-5.66h7.106c-1.645 7.435-7.961 11.579-15.396 11.579-10.66 0-16.647-7.434-16.647-17.895 0-9.672 6.316-17.962 16.448-17.962 10.726 0 17.305 9.671 16.056 19.869H89.967m51.718-7.567c-.592-4.145-3.619-6.379-7.765-6.379-3.882 0-9.344 2.036-9.344 12.368 0 5.657 2.502 11.646 9.014 11.646 4.343 0 7.371-2.898 8.095-7.764h7.499C147.804 43.131 142.342 48 133.59 48c-10.659 0-16.515-7.566-16.515-17.567 0-10.266 5.594-18.291 16.78-18.291 7.895 0 14.605 3.946 15.329 12.302h-7.499m32.635 5.594c-2.301 1.514-5.921 1.447-9.212 2.039-3.223.526-6.118 1.71-6.118 5.659 0 3.356 4.277 4.343 6.908 4.343 3.29 0 8.422-1.709 8.422-6.448v-5.593zm7.501 9.477c0 1.841.396 2.564 1.778 2.564.459 0 1.052 0 1.841-.131v5.197c-1.119.395-3.486.855-4.738.855-3.026 0-5.197-1.051-5.788-4.145-2.963 2.895-7.765 4.145-11.78 4.145-6.119 0-11.645-3.289-11.645-9.937 0-8.485 6.777-9.866 13.093-10.593 5.395-.986 10.199-.393 10.199-4.8 0-3.884-4.013-4.605-7.041-4.605-4.211 0-7.172 1.709-7.5 5.394h-7.5c.524-8.751 7.958-11.318 15.461-11.318 6.646 0 13.62 2.697 13.62 9.871v17.503m6.118-26.453h7.041v6.582h.132c.857-3.622 5.331-7.502 9.938-7.502 1.709 0 2.17.131 2.827.195v7.239c-1.052-.132-2.171-.327-3.223-.327-5.132 0-9.212 4.145-9.212 11.644v16.185h-7.503V13.062m35.282 29.018c6.71 0 9.539-6.119 9.539-12.042 0-7.501-3.618-11.973-9.407-11.973-7.041 0-9.541 6.249-9.541 12.368 0 5.855 2.894 11.647 9.409 11.647zM240 47.078h-7.107v-4.605h-.133c-1.972 3.884-6.25 5.526-10.527 5.526-10.725 0-15.923-7.962-15.923-18.157 0-12.305 7.305-17.7 14.739-17.7 4.277 0 9.014 1.579 11.318 5.328h.131V.099H240v46.979" fill="#fff"/></svg>