<?xml version="1.0" standalone="no"?>
<!DOCTYPE svg PUBLIC "-//W3C//DTD SVG 20010904//EN"
 "http://www.w3.org/TR/2001/REC-SVG-20010904/DTD/svg10.dtd">
<svg version="1.0" xmlns="http://www.w3.org/2000/svg"
 width="512.000000pt" height="512.000000pt" viewBox="0 0 512.000000 512.000000"
 preserveAspectRatio="xMidYMid meet">
<metadata>
Created by potrace 1.11, written by Peter Selinger 2001-2013
</metadata>
<g transform="translate(0.000000,512.000000) scale(0.100000,-0.100000)"
fill="#000000" stroke="none">
<path d="M2250 2480 l0 -1810 475 0 475 0 0 709 c0 443 4 739 11 788 11 84 49
178 93 230 15 18 57 47 93 65 55 27 80 33 154 36 50 3 109 -1 135 -7 64 -16
128 -63 159 -115 53 -91 55 -116 55 -943 l0 -763 475 0 475 0 0 898 c0 540 -4
925 -10 967 -67 470 -354 725 -815 725 -197 -1 -342 -37 -493 -122 -92 -52
-219 -174 -282 -273 l-45 -69 -3 747 -2 747 -475 0 -475 0 0 -1810z"/>
<path d="M590 3450 l0 -260 -145 0 -145 0 0 -315 0 -315 145 0 145 0 0 -555
c0 -338 4 -594 11 -657 40 -368 220 -599 541 -692 219 -63 533 -60 821 10 l67
16 0 354 c0 195 -3 354 -7 354 -5 0 -43 -7 -86 -15 -210 -40 -341 6 -378 133
-11 37 -14 153 -14 547 l0 500 243 3 242 2 0 315 0 315 -242 2 -243 3 -3 258
-2 257 -475 0 -475 0 0 -260z"/>
</g>
</svg>
